<svg width="22" height="22" viewBox="0 0 22 22" fill="none" xmlns="http://www.w3.org/2000/svg">
<path fill-rule="evenodd" clip-rule="evenodd" d="M1 11C1 5.47692 5.47692 1 11 1C16.5231 1 21 5.47692 21 11C21 16.5231 16.5231 21 11 21C5.47692 21 1 16.5231 1 11ZM11 2.53846C6.32667 2.53846 2.53846 6.32667 2.53846 11C2.53846 15.6733 6.32667 19.4615 11 19.4615C15.6733 19.4615 19.4615 15.6733 19.4615 11C19.4615 6.32667 15.6733 2.53846 11 2.53846Z" fill="#0D1442" stroke="white" stroke-width="0.3"/>
<path fill-rule="evenodd" clip-rule="evenodd" d="M10.9997 15.8717C10.7957 15.8717 10.6 15.7907 10.4558 15.6464C10.3115 15.5022 10.2305 15.3065 10.2305 15.1025V9.97431C10.2305 9.7703 10.3115 9.57464 10.4558 9.43038C10.6 9.28612 10.7957 9.20508 10.9997 9.20508C11.2037 9.20508 11.3994 9.28612 11.5436 9.43038C11.6879 9.57464 11.7689 9.7703 11.7689 9.97431V15.1025C11.7689 15.3065 11.6879 15.5022 11.5436 15.6464C11.3994 15.7907 11.2037 15.8717 10.9997 15.8717Z" fill="#EE4036"/>
<path d="M10.2305 6.8974C10.2305 6.69339 10.3115 6.49773 10.4558 6.35348C10.6 6.20922 10.7957 6.12817 10.9997 6.12817C11.2037 6.12817 11.3994 6.20922 11.5436 6.35348C11.6879 6.49773 11.7689 6.69339 11.7689 6.8974C11.7689 7.10142 11.6879 7.29707 11.5436 7.44133C11.3994 7.58559 11.2037 7.66664 10.9997 7.66664C10.7957 7.66664 10.6 7.58559 10.4558 7.44133C10.3115 7.29707 10.2305 7.10142 10.2305 6.8974Z" fill="#EE4036"/>
</svg>
