<svg width="91" height="35" viewBox="0 0 91 35" fill="none" xmlns="http://www.w3.org/2000/svg">
<path d="M1.79599 9.45187L0.0610608 9.45499C0.0482334 9.45499 0.0359306 9.4499 0.0268602 9.44083C0.0177899 9.43176 0.0126953 9.41946 0.0126953 9.40663L0.014257 0.0548557C0.0142074 0.0452536 0.0170164 0.0358539 0.0223275 0.0278542C0.0276385 0.0198545 0.0352086 0.0136163 0.0440772 0.00993499C0.0529457 0.00625371 0.0627111 0.00529595 0.0721261 0.00718295C0.0815411 0.00906995 0.090182 0.0137167 0.0969469 0.0205313L7.11935 7.13811C7.12387 7.1426 7.12923 7.14615 7.13512 7.14855C7.14101 7.15096 7.14732 7.15219 7.15368 7.15216L8.87925 7.15527C8.88689 7.15522 8.89441 7.15335 8.90119 7.14982C8.90797 7.1463 8.91382 7.14122 8.91825 7.13499L13.6222 0.808427C13.6267 0.802301 13.6326 0.797318 13.6394 0.793884C13.6461 0.79045 13.6536 0.788661 13.6612 0.788661C13.6688 0.788661 13.6763 0.79045 13.6831 0.793884C13.6899 0.797318 13.6957 0.802301 13.7002 0.808427L18.3995 7.13499C18.4041 7.14093 18.41 7.14571 18.4168 7.14896C18.4236 7.15221 18.431 7.15384 18.4385 7.15372L20.1641 7.15527C20.1705 7.15531 20.1768 7.15409 20.1827 7.15168C20.1886 7.14927 20.1939 7.14572 20.1984 7.14123L27.2286 0.0142916C27.2354 0.00747699 27.244 0.00283024 27.2534 0.000943239C27.2629 -0.000943759 27.2726 1.40052e-05 27.2815 0.00369528C27.2904 0.00737656 27.2979 0.0136148 27.3033 0.0216145C27.3086 0.0296142 27.3114 0.0390139 27.3113 0.0486159L27.316 9.40663C27.316 9.41946 27.3109 9.43176 27.3018 9.44083C27.2928 9.4499 27.2805 9.45499 27.2676 9.45499H25.5296C25.5168 9.45499 25.5045 9.4499 25.4954 9.44083C25.4863 9.43176 25.4812 9.41946 25.4812 9.40663L25.4828 4.7479C25.4828 4.7383 25.48 4.7289 25.4747 4.7209C25.4694 4.7129 25.4618 4.70667 25.453 4.70298C25.4441 4.6993 25.4343 4.69834 25.4249 4.70023C25.4155 4.70212 25.4069 4.70677 25.4001 4.71358L20.7086 9.25841C20.7041 9.2629 20.6987 9.26644 20.6928 9.26885C20.6869 9.27126 20.6806 9.27249 20.6743 9.27245H17.3651C17.3575 9.27239 17.35 9.27052 17.3432 9.267C17.3364 9.26347 17.3305 9.25839 17.3261 9.25217L13.6971 4.20652C13.6926 4.20039 13.6867 4.19541 13.68 4.19198C13.6732 4.18854 13.6657 4.18675 13.6581 4.18675C13.6505 4.18675 13.643 4.18854 13.6362 4.19198C13.6295 4.19541 13.6236 4.20039 13.6191 4.20652L9.99166 9.25373C9.98723 9.25995 9.98138 9.26504 9.9746 9.26856C9.96782 9.27209 9.9603 9.27395 9.95266 9.27401L6.64662 9.27245C6.64025 9.27249 6.63395 9.27126 6.62806 9.26885C6.62217 9.26644 6.61681 9.2629 6.61229 9.25841L1.92237 4.71826C1.9156 4.71145 1.90696 4.7068 1.89754 4.70491C1.88813 4.70303 1.87837 4.70398 1.8695 4.70766C1.86063 4.71135 1.85306 4.71758 1.84775 4.72558C1.84243 4.73358 1.83963 4.74298 1.83968 4.75258L1.84436 9.40351C1.84436 9.41634 1.83926 9.42864 1.83019 9.43771C1.82112 9.44678 1.80882 9.45187 1.79599 9.45187Z" fill="url(#paint0_linear_627_414)"/>
<path d="M7.42023 31.2711L7.42492 34.73C7.42492 34.7448 7.422 34.7594 7.41635 34.773C7.41069 34.7867 7.4024 34.799 7.39195 34.8095C7.3815 34.8199 7.3691 34.8282 7.35544 34.8338C7.34179 34.8395 7.32715 34.8424 7.31237 34.8424L0.0922247 34.8408C0.0307412 34.8408 0 34.8101 0 34.7488L0.00156467 10.6688C0.00156467 10.6589 0.00551523 10.6493 0.0125507 10.6423C0.0195862 10.6353 0.0291288 10.6314 0.0390785 10.6314H12.5864C12.6656 10.6314 12.7052 10.6709 12.7052 10.7499L12.7021 15.8283C12.7021 15.8897 12.6719 15.9204 12.6114 15.9204L5.40065 15.9719C5.32666 15.9719 5.28967 16.0088 5.28967 16.0827L5.29592 22.52C5.29592 22.5319 5.29827 22.5436 5.30282 22.5546C5.30738 22.5656 5.31405 22.5756 5.32247 22.584C5.33089 22.5924 5.34089 22.5991 5.35189 22.6036C5.36288 22.6081 5.37467 22.6105 5.38658 22.6105L7.0779 22.6042C7.13313 22.6032 7.16074 22.6308 7.16074 22.6869L7.16231 27.4752C7.16231 27.5313 7.13417 27.5594 7.0779 27.5594L5.57103 27.5578C5.54533 27.5578 5.52068 27.5478 5.5025 27.53C5.48433 27.5121 5.47412 27.4879 5.47412 27.4627L5.48037 24.1676C5.48037 24.1124 5.45223 24.0849 5.39596 24.0849L3.70151 24.088C3.64107 24.089 3.61085 24.0589 3.61085 23.9975L3.61398 14.2697C3.61398 14.2063 3.64577 14.1745 3.70933 14.1745L11.0201 14.1792C11.0712 14.1792 11.0967 14.1532 11.0967 14.1012V12.4599C11.0967 12.4069 11.0702 12.3803 11.017 12.3803L1.56626 12.3819C1.51312 12.3819 1.48655 12.4079 1.48655 12.4599V32.9421C1.48655 32.9632 1.49478 32.9834 1.50944 32.9983C1.52409 33.0132 1.54398 33.0216 1.5647 33.0216L5.74298 33.0201C5.78153 33.0201 5.80081 33.0008 5.80081 32.9623L5.80394 29.6173C5.80394 29.5726 5.82582 29.5502 5.86959 29.5502H9.37415C9.45231 29.5502 9.49139 29.5117 9.49139 29.4348L9.48982 26.1022C9.48982 26.0377 9.52213 26.006 9.58674 26.007L12.5942 26.0164C12.6228 26.0164 12.6503 26.005 12.6705 25.9849C12.6907 25.9647 12.7021 25.9373 12.7021 25.9087L12.6989 24.8384C12.6989 24.7646 12.6734 24.7011 12.6224 24.6481L11.0811 23.0598C11.0049 22.9817 10.9623 22.8771 10.9623 22.7681L10.9639 19.2296C10.9639 19.162 10.93 19.1287 10.8623 19.1297C10.0609 19.1339 9.24754 19.1344 8.4222 19.1313C8.41386 19.1313 8.40657 19.1287 8.40031 19.1235C8.28256 18.9955 7.93867 18.5088 7.36864 17.6631C7.36773 17.6623 7.36716 17.6612 7.36701 17.66C7.36686 17.6588 7.36712 17.6576 7.36778 17.6564C7.36844 17.6553 7.36946 17.6543 7.37072 17.6535C7.37198 17.6528 7.37343 17.6523 7.37489 17.6522C9.15896 17.6512 10.9076 17.6501 12.6208 17.6491C12.6428 17.6491 12.6638 17.658 12.6794 17.6738C12.6949 17.6896 12.7036 17.711 12.7036 17.7333V22.4092C12.7036 22.4592 12.7287 22.4841 12.7787 22.4841L14.5356 22.4857C14.5655 22.4857 14.5941 22.4737 14.6152 22.4523C14.6363 22.431 14.6482 22.402 14.6482 22.3718L14.6513 17.7302C14.6513 17.6772 14.6779 17.6506 14.731 17.6506H19.9504C19.9544 17.6505 19.9585 17.6515 19.962 17.6535C19.9655 17.6555 19.9684 17.6585 19.9704 17.662C19.9723 17.6656 19.9732 17.6696 19.973 17.6737C19.9728 17.6777 19.9714 17.6816 19.9691 17.685L18.9968 19.1032C18.99 19.1123 18.9811 19.1198 18.9708 19.1249C18.9605 19.1301 18.9491 19.1328 18.9374 19.1328H16.4896C16.4239 19.1328 16.3906 19.1656 16.3895 19.2311C16.3843 20.395 16.3864 21.5449 16.3958 22.6807C16.3968 22.8575 16.3306 23.012 16.1973 23.1441C15.6866 23.6485 15.1989 24.1473 14.7342 24.6403C14.6748 24.7037 14.6451 24.7786 14.6451 24.865L14.6513 25.9056C14.6524 25.9763 14.6878 26.0117 14.7576 26.0117L17.7854 26.007C17.8354 26.007 17.8604 26.0315 17.8604 26.0804L17.862 29.5112C17.862 29.5215 17.8661 29.5315 17.8734 29.5388C17.8808 29.5461 17.8907 29.5502 17.9011 29.5502H21.4463C21.5088 29.5502 21.5401 29.5819 21.5401 29.6454L21.5432 32.8875C21.5432 32.9759 21.587 33.0201 21.6745 33.0201L25.8012 33.0216C25.8157 33.0216 25.8296 33.0159 25.8399 33.0056C25.8501 32.9954 25.8559 32.9815 25.8559 32.967L25.8512 12.4708C25.8512 12.4105 25.821 12.3803 25.7605 12.3803H16.3364C16.2822 12.3803 16.2551 12.4074 16.2551 12.4615L16.2567 14.1012C16.2567 14.1532 16.2827 14.1792 16.3348 14.1792L23.6472 14.1745C23.6587 14.1745 23.6701 14.1768 23.6807 14.1812C23.6913 14.1856 23.701 14.192 23.7091 14.2001C23.7172 14.2083 23.7237 14.2179 23.7281 14.2285C23.7325 14.2391 23.7347 14.2504 23.7347 14.2619L23.7363 24.0427C23.7363 24.076 23.7196 24.0921 23.6863 24.0911L21.9543 24.0849C21.8949 24.0849 21.8652 24.114 21.8652 24.1722L21.8683 27.4689C21.8683 27.5292 21.8381 27.5594 21.7777 27.5594L20.2896 27.5578C20.2177 27.5578 20.1817 27.5214 20.1817 27.4486L20.1786 22.7041C20.1786 22.6365 20.2119 22.6027 20.2786 22.6027L22.0028 22.6074C22.0144 22.6074 22.0255 22.6028 22.0337 22.5946C22.0419 22.5864 22.0465 22.5753 22.0465 22.5637V16.0187C22.0465 16.0082 22.0425 15.9981 22.0352 15.9905C22.0279 15.983 22.018 15.9785 22.0074 15.9781L14.7623 15.9188C14.6873 15.9188 14.6497 15.8819 14.6497 15.8081V10.7312C14.6497 10.7047 14.6601 10.6793 14.6786 10.6606C14.6971 10.6419 14.7221 10.6314 14.7482 10.6314L27.2784 10.6298C27.2995 10.6298 27.3198 10.6382 27.3347 10.6531C27.3497 10.668 27.3581 10.6883 27.3581 10.7094L27.3503 34.7862C27.3503 34.7936 27.3488 34.8009 27.3459 34.8077C27.343 34.8145 27.3387 34.8207 27.3333 34.8259C27.328 34.8311 27.3216 34.8353 27.3146 34.8381C27.3075 34.8409 27.3 34.8424 27.2924 34.8424L20.0004 34.8408C19.9801 34.8408 19.9606 34.8329 19.9462 34.8189C19.9319 34.8048 19.9238 34.7858 19.9238 34.7659L19.9285 31.2305C19.9287 31.2214 19.927 31.2123 19.9236 31.2038C19.9201 31.1953 19.915 31.1875 19.9084 31.181C19.9019 31.1745 19.8941 31.1693 19.8854 31.1657C19.8768 31.1622 19.8675 31.1603 19.8581 31.1603L16.5333 31.1588C16.475 31.1588 16.4458 31.1296 16.4458 31.0714L16.4474 27.7607C16.4474 27.7433 16.4404 27.7266 16.4281 27.7143C16.4158 27.7021 16.3991 27.6951 16.3817 27.6951L10.992 27.692C10.9326 27.692 10.9029 27.7217 10.9029 27.781L10.9045 31.0948C10.9045 31.1037 10.9027 31.1126 10.8992 31.1208C10.8957 31.1291 10.8906 31.1365 10.8842 31.1428C10.8778 31.149 10.8702 31.154 10.8619 31.1572C10.8536 31.1605 10.8446 31.1621 10.8357 31.1619L7.53434 31.1572C7.45826 31.1572 7.42023 31.1952 7.42023 31.2711Z" fill="white"/>
<path d="M12.8864 33.2542V29.9778C12.8864 29.96 12.8934 29.943 12.906 29.9304C12.9186 29.9178 12.9357 29.9107 12.9535 29.9107L14.3717 29.906C14.3895 29.906 14.4065 29.9131 14.4191 29.9257C14.4317 29.9383 14.4387 29.9553 14.4387 29.9731L14.4341 33.2542C14.4341 33.272 14.4411 33.2891 14.4537 33.3016C14.4663 33.3142 14.4834 33.3213 14.5012 33.3213H17.7744C17.7922 33.3213 17.8093 33.3284 17.8219 33.3409C17.8345 33.3535 17.8415 33.3706 17.8415 33.3884L17.8446 34.8128C17.8446 34.8306 17.8376 34.8477 17.825 34.8603C17.8124 34.8729 17.7953 34.8799 17.7776 34.8799L9.54756 34.8784C9.52976 34.8784 9.5127 34.8713 9.50012 34.8587C9.48754 34.8461 9.48047 34.8291 9.48047 34.8113L9.48203 33.3899C9.48203 33.3722 9.4891 33.3551 9.50168 33.3425C9.51426 33.3299 9.53132 33.3229 9.54912 33.3229L12.8193 33.3213C12.8371 33.3213 12.8541 33.3142 12.8667 33.3016C12.8793 33.2891 12.8864 33.272 12.8864 33.2542Z" fill="white"/>
<path d="M35 11.4462C35 11.1998 35.1998 11 35.4462 11H90.5538C90.8002 11 91 11.1998 91 11.4462V23.0478C91 23.2942 90.8002 23.494 90.5538 23.494H35.4462C35.1998 23.494 35 23.2942 35 23.0478V11.4462Z" fill="url(#paint1_linear_627_414)"/>
<path d="M85.4356 12.8307H87.6612C89.0564 12.8307 89.754 13.3416 89.754 14.3634V20.146C89.754 21.1771 89.0564 21.6926 87.6612 21.6926H85.4356C84.0293 21.6926 83.3262 21.1771 83.3262 20.146V14.3634C83.3262 13.3416 84.0293 12.8307 85.4356 12.8307ZM87.3788 19.8812V14.6421C87.3788 14.4099 87.2349 14.2938 86.947 14.2938H86.1498C85.8508 14.2938 85.7013 14.4099 85.7013 14.6421V19.8812C85.7013 20.1135 85.8508 20.2296 86.1498 20.2296H86.947C87.2349 20.2296 87.3788 20.1135 87.3788 19.8812Z" fill="white"/>
<path d="M76.2716 20.2296H79.3111V21.6926H73.9131V12.8307H76.2716V20.2296Z" fill="white"/>
<path d="M67.5371 12.8307H69.8956V21.6926H67.5371V12.8307Z" fill="white"/>
<path d="M63.5224 12.8307V14.2938H61.5792V21.6926H59.204V14.2938H57.2773V12.8307H63.5224Z" fill="white"/>
<path d="M48.9434 12.8307H51.169C52.5642 12.8307 53.2618 13.3416 53.2618 14.3634V20.146C53.2618 21.1771 52.5642 21.6926 51.169 21.6926H48.9434C47.5371 21.6926 46.834 21.1771 46.834 20.146V14.3634C46.834 13.3416 47.5371 12.8307 48.9434 12.8307ZM50.8867 19.8812V14.6421C50.8867 14.4099 50.7427 14.2938 50.4548 14.2938H49.6576C49.3586 14.2938 49.2091 14.4099 49.2091 14.6421V19.8812C49.2091 20.1135 49.3586 20.2296 49.6576 20.2296H50.4548C50.7427 20.2296 50.8867 20.1135 50.8867 19.8812Z" fill="white"/>
<path d="M42.8155 15.7011H40.4403V14.5446C40.4403 14.3123 40.2908 14.1962 39.9919 14.1962H39.3109C39.0119 14.1962 38.8624 14.3123 38.8624 14.5446V19.9788C38.8624 20.1088 38.8957 20.2017 38.9621 20.2574C39.0285 20.3039 39.1448 20.3271 39.3109 20.3271H39.9919C40.158 20.3271 40.2742 20.3039 40.3407 20.2574C40.4071 20.2017 40.4403 20.1088 40.4403 19.9788V18.251H39.6099V16.9273H42.8155V20.1599C42.8155 21.1817 42.1179 21.6926 40.7227 21.6926H38.5801C37.1849 21.6926 36.4873 21.1817 36.4873 20.1599V14.3634C36.4873 13.3416 37.1849 12.8307 38.5801 12.8307H40.7227C42.1179 12.8307 42.8155 13.3416 42.8155 14.3634V15.7011Z" fill="white"/>
<path d="M90.3498 29.4113H88.8118V28.4653C88.8118 28.2753 88.715 28.1803 88.5214 28.1803H88.0804C87.8868 28.1803 87.79 28.2753 87.79 28.4653V32.9104C87.79 33.0168 87.8115 33.0928 87.8545 33.1384C87.8975 33.1764 87.9728 33.1954 88.0804 33.1954H88.5214C88.6289 33.1954 88.7042 33.1764 88.7472 33.1384C88.7902 33.0928 88.8118 33.0168 88.8118 32.9104V31.4971H88.274V30.4143H90.3498V33.0586C90.3498 33.8944 89.8981 34.3124 88.9946 34.3124H87.6071C86.7037 34.3124 86.252 33.8944 86.252 33.0586V28.3171C86.252 27.4813 86.7037 27.0633 87.6071 27.0633H88.9946C89.8981 27.0633 90.3498 27.4813 90.3498 28.3171V29.4113Z" fill="white"/>
<path d="M81.4625 27.0633H82.8715V34.3124H81.4948L79.9998 29.9698V34.3124H78.6016V27.0633H79.989L81.4625 31.3945V27.0633Z" fill="white"/>
<path d="M73.5957 27.0633H75.123V34.3124H73.5957V27.0633Z" fill="white"/>
<path d="M70.5242 27.0633L69.1475 30.6423L70.5242 34.3124H68.8678L67.5449 30.6423L68.8678 27.0633H70.5242ZM65.9854 34.3124V27.0633H67.5126V34.3124H65.9854Z" fill="white"/>
<path d="M60.6503 33.1156H62.8445V34.3124H59.1123V27.0633H62.7584V28.2601H60.6503V30.0268H62.4465V31.2236H60.6503V33.1156Z" fill="white"/>
<path d="M55.9796 27.0633V28.2601L53.5381 33.1156H55.9151V34.3124H51.9463V33.1156L54.3878 28.2601H52.0754V27.0633H55.9796Z" fill="white"/>
<path d="M47.7046 34.3124L47.468 33.0016H45.9084L45.6718 34.3124H44.1553L45.7041 27.0633H47.6616L49.2534 34.3124H47.7046ZM46.1235 31.8162H47.2421L46.6828 28.7502L46.1235 31.8162Z" fill="white"/>
<path d="M36.8806 34.3124H35.5254V27.0633H37.2032L38.3326 31.1666L39.4619 27.0633H41.1398V34.3124H39.7846V29.4455L38.9026 32.7395H37.7625L36.8806 29.4569V34.3124Z" fill="white"/>
<defs>
<linearGradient id="paint0_linear_627_414" x1="25.6843" y1="4.7275" x2="0.0126952" y2="4.7275" gradientUnits="userSpaceOnUse">
<stop offset="0.87" stop-color="#FF8B00"/>
<stop offset="1" stop-color="#995300"/>
</linearGradient>
<linearGradient id="paint1_linear_627_414" x1="87.6534" y1="17.247" x2="35" y2="17.247" gradientUnits="userSpaceOnUse">
<stop stop-color="#FF8B00"/>
<stop offset="1" stop-color="#995300"/>
</linearGradient>
</defs>
</svg>
