<svg width="22" height="21" viewBox="0 0 22 21" fill="none" xmlns="http://www.w3.org/2000/svg">
<path d="M11 1L1.42969 4.97109V7.35375H20.5703V4.97109L11 1ZM1.42969 17.6786H20.5703V20.1406H1.42969V17.6786Z" stroke="#0D1442" stroke-width="1.1" stroke-miterlimit="10" stroke-linecap="round" stroke-linejoin="round"/>
<path d="M7.42603 4.97108H14.574" stroke="#EE4036" stroke-width="1.1" stroke-miterlimit="10" stroke-linecap="round" stroke-linejoin="round"/>
<path d="M3.05786 7.35374H5.44052V15.2959H3.05786V7.35374Z" stroke="#0D1442" stroke-width="1.1" stroke-miterlimit="10" stroke-linecap="round" stroke-linejoin="round"/>
<path d="M18.9421 15.2959H16.5595V7.35368H18.9421V15.2959Z" stroke="#0D1442" stroke-width="1.1" stroke-miterlimit="10" stroke-linecap="round" stroke-linejoin="round"/>
<path d="M2.26355 15.2959H6.23464V17.6786H2.26355V15.2959ZM15.7653 15.2959H19.7364V17.6786H15.7653V15.2959Z" stroke="#0D1442" stroke-width="1.1" stroke-miterlimit="10" stroke-linecap="round" stroke-linejoin="round"/>
<path d="M11 10.1335C10.3421 10.1335 9.80872 10.6668 9.80872 11.3248C9.80872 11.9828 10.3421 12.5161 11 12.5161C11.658 12.5161 12.1914 13.0495 12.1914 13.7075C12.1914 14.3654 11.658 14.8988 11 14.8988M11 10.1335C11.658 10.1335 12.1914 10.6668 12.1914 11.3248M11 10.1335V9.33929M11 14.8988C10.3421 14.8988 9.80872 14.3654 9.80872 13.7075M11 14.8988V15.693" stroke="#EE4036" stroke-width="1.1" stroke-miterlimit="10" stroke-linecap="round" stroke-linejoin="round"/>
</svg>
