<svg width="21" height="26" viewBox="0 0 21 26" fill="none" xmlns="http://www.w3.org/2000/svg">
<path d="M14.0492 5.19531H2.89645C1.84996 5.19531 1 6.04528 1 7.09177V23.0937C1 24.1402 1.84996 24.9902 2.89645 24.9902H14.0492C15.0957 24.9902 15.9456 24.1402 15.9456 23.0937V7.09177C15.9407 6.04528 15.0907 5.19531 14.0492 5.19531ZM14.6142 23.0888C14.6142 23.4032 14.3587 23.6587 14.0443 23.6587H2.89154C2.5771 23.6587 2.32162 23.4032 2.32162 23.0888V7.09177C2.32162 6.77733 2.5771 6.52185 2.89154 6.52185H14.0443C14.3587 6.52185 14.6142 6.77733 14.6142 7.09177V23.0888Z" fill="#0D1442" stroke="#242424" stroke-width="0.5"/>
<path d="M18.3138 1H7.16104C6.11455 1 5.26459 1.84997 5.26459 2.89645C5.26459 3.26494 5.55937 3.55972 5.92785 3.55972C6.29634 3.55972 6.59112 3.26494 6.59112 2.89645C6.59112 2.58202 6.8466 2.32654 7.16104 2.32654H18.3138C18.6282 2.32654 18.8837 2.58202 18.8837 2.89645V18.8984C18.8837 19.2128 18.6282 19.4683 18.3138 19.4683C17.9453 19.4683 17.6505 19.7631 17.6505 20.1316C17.6505 20.5001 17.9453 20.7949 18.3138 20.7949C19.3602 20.7949 20.2102 19.9449 20.2102 18.8984V2.89645C20.2102 1.84997 19.3602 1 18.3138 1Z" fill="#0D1442" stroke="#242424" stroke-width="0.5"/>
</svg>
