<svg width="24" height="24" viewBox="0 0 24 24" fill="none" xmlns="http://www.w3.org/2000/svg">
<g clip-path="url(#clip0_602_414)">
<path d="M8.625 0.773047C8.5875 0.782422 8.39531 0.815235 8.20313 0.84336C7.21406 1.00742 6.19688 1.5418 5.44219 2.29648C4.45781 3.27617 3.9375 4.54648 3.9375 5.95273C3.9375 7.09648 4.23281 8.03867 4.88438 8.98555C5.17031 9.40273 5.81719 10.0309 6.26719 10.3262C7.99688 11.4746 10.2844 11.4746 12.0141 10.3262C12.4641 10.0262 13.1109 9.40273 13.4063 8.97148C13.7297 8.50742 14.0297 7.85586 14.1891 7.28398C14.3109 6.85273 14.3203 6.76367 14.3156 5.95273C14.3156 5.22148 14.2969 5.0293 14.2125 4.72461C13.6594 2.71367 12.1875 1.29805 10.1953 0.86211C9.89531 0.796485 8.78906 0.73086 8.625 0.773047ZM10.1813 1.86992C11.0719 2.09961 11.8969 2.63867 12.4547 3.34648C12.75 3.72617 13.1297 4.48086 13.2422 4.92148C13.35 5.34336 13.3875 6.19648 13.3172 6.63711C13.0125 8.52148 11.5125 9.95117 9.59531 10.1762C8.20313 10.3402 6.72656 9.72617 5.84531 8.61992C5.54531 8.24961 5.15625 7.49492 5.03906 7.0543C4.91719 6.61836 4.89375 5.6293 4.9875 5.16055C5.34375 3.39805 6.74063 2.0668 8.52188 1.78086C8.92031 1.71992 9.76406 1.76211 10.1813 1.86992Z" fill="#0D1442"/>
<path d="M16.65 11.1141C16.4015 11.175 16.1484 11.4141 16.0828 11.6578C16.0546 11.7563 16.0312 12.0844 16.0312 12.3844V12.9375H15.2906C14.339 12.9375 14.1562 12.9891 13.7906 13.3406L13.5234 13.5984L13.3124 13.4766C10.9453 12.1078 7.88901 12.0141 5.46089 13.2281C3.07026 14.4234 1.43433 16.6359 0.932764 19.3359C0.834327 19.8797 0.94375 20.7891 1 21C1.01875 21.0703 1.25133 21.4571 1.5 21.5C1.77183 21.5469 1.27027 21.5625 7.62183 21.5625H14.0953L14.1515 21.8953C14.2453 22.4719 14.5031 22.8328 14.9906 23.0719L15.3046 23.2266H18.2812H21.2578L21.525 23.1C21.8343 22.9547 22.125 22.6734 22.275 22.3688L22.3828 22.1484L22.3968 18.8859L22.4062 15.6234L22.5281 15.5578C22.7296 15.4547 23.0484 15.0609 23.1281 14.8266C23.3109 14.2922 23.1843 13.7578 22.7812 13.35C22.4156 12.9891 22.2328 12.9375 21.2765 12.9375H20.5406L20.5218 12.2906C20.5078 11.6813 20.4984 11.6297 20.3812 11.4516C20.1468 11.0953 20.0999 11.0859 18.3749 11.0766C17.5031 11.0719 16.7671 11.0906 16.65 11.1141ZM19.5468 12.5156V12.9375H18.2812H17.0156V12.5156V12.0938H18.2812H19.5468V12.5156ZM10.0546 13.4109C11.0156 13.5281 12.1265 13.9125 12.9328 14.4047C13.2843 14.6203 13.3453 14.6813 13.4625 14.9063C13.5328 15.0516 13.7062 15.2672 13.8515 15.4031L14.1093 15.6422V18.0797V20.5172L12.2015 20.5453C11.1562 20.5641 8.3812 20.5781 6.03276 20.5781L2 20.5L1.80464 20.2359C1.98276 18.375 2.73276 16.7578 4.00308 15.4922C4.84214 14.6578 5.66245 14.1375 6.74526 13.7625C7.17183 13.6125 7.94995 13.4391 8.39058 13.3922C8.76089 13.3547 9.66089 13.3641 10.0546 13.4109ZM22.0828 14.0578C22.1812 14.1563 22.2187 14.2406 22.2187 14.3531C22.214 14.5594 22.139 14.6484 21.914 14.7C21.675 14.7516 14.8968 14.7563 14.6484 14.7C14.4187 14.6531 14.3437 14.5641 14.3437 14.3484C14.3484 14.1656 14.4046 14.0625 14.5546 13.9781C14.6249 13.9406 15.6421 13.9266 18.2953 13.9219H21.9468L22.0828 14.0578ZM21.4218 18.8203C21.4218 22.2375 21.4359 22.0641 21.1078 22.2C20.8734 22.2984 15.614 22.2938 15.4265 22.2C15.1265 22.0406 15.1406 22.2047 15.1406 18.8203V15.75H18.2812H21.4218V18.8203Z" fill="#0D1442"/>
<path d="M16.2984 18.4219C16.2281 18.4781 16.1531 18.6 16.1249 18.6937C16.064 18.9187 16.064 20.925 16.1249 21.15C16.2609 21.6375 16.9265 21.6375 17.0624 21.15C17.1234 20.925 17.1234 18.9187 17.0624 18.6937C16.9968 18.4687 16.8187 18.3281 16.5937 18.3281C16.4906 18.3281 16.3687 18.3656 16.2984 18.4219Z" fill="#EE4036"/>
<path d="M17.9437 18.4642L17.789 18.6002L17.775 19.8189C17.7562 21.1502 17.7796 21.2908 18.0187 21.4502C18.1921 21.5627 18.5062 21.5158 18.6421 21.3517C18.75 21.2298 18.75 21.2111 18.75 19.9173V18.6002L18.614 18.4642C18.4218 18.272 18.1546 18.272 17.9437 18.4642Z" fill="#EE4036"/>
<path d="M19.6922 18.4035C19.4766 18.5535 19.4531 18.7128 19.4531 19.8847C19.4531 20.4894 19.4766 21.0566 19.5 21.1503C19.575 21.4081 19.7531 21.53 20.0156 21.5019C20.1656 21.4831 20.2547 21.441 20.3297 21.3519C20.4375 21.23 20.4375 21.216 20.4375 19.9175V18.6003L20.3016 18.4644C20.1422 18.305 19.8703 18.2769 19.6922 18.4035Z" fill="#EE4036"/>
</g>
<defs>
<clipPath id="clip0_602_414">
<rect width="24" height="24" fill="white"/>
</clipPath>
</defs>
</svg>
