<svg width="12" height="13" viewBox="0 0 12 13" fill="none" xmlns="http://www.w3.org/2000/svg">
<circle cx="6.2426" cy="6.24138" r="4.68206" fill="#109E38"/>
<path d="M11.4027 6.40452C11.3779 6.35421 11.365 6.29888 11.365 6.24281C11.365 6.18673 11.3779 6.1314 11.4027 6.08109L11.8684 5.12847C12.1276 4.59806 11.9222 3.96586 11.4007 3.68915L10.464 3.19217C10.4144 3.16605 10.3715 3.12887 10.3385 3.0835C10.3056 3.03814 10.2835 2.9858 10.2739 2.93054L10.0908 1.88613C9.98875 1.30463 9.45085 0.913873 8.8664 0.996565L7.81652 1.14507C7.76102 1.1531 7.70442 1.14826 7.65109 1.13092C7.59776 1.11359 7.54913 1.08423 7.50895 1.04512L6.74687 0.30789C6.32254 -0.102618 5.65778 -0.102642 5.23347 0.30789L4.47137 1.04519C4.43119 1.0843 4.38255 1.11365 4.32923 1.13098C4.2759 1.14831 4.2193 1.15316 4.1638 1.14515L3.11392 0.996638C2.52928 0.913898 1.99158 1.3047 1.88957 1.8862L1.70639 2.93057C1.69686 2.98583 1.67477 3.03816 1.64181 3.08353C1.60885 3.1289 1.56591 3.16609 1.5163 3.19222L0.579647 3.6892C0.0581356 3.96588 -0.147289 4.59813 0.111979 5.12854L0.577623 6.08114C0.602409 6.13145 0.6153 6.18677 0.6153 6.24285C0.6153 6.29893 0.602409 6.35426 0.577623 6.40457L0.111955 7.35717C-0.147314 7.88758 0.0581111 8.51978 0.579622 8.79648L1.51627 9.29346C1.56589 9.31959 1.60884 9.35677 1.6418 9.40213C1.67477 9.4475 1.69686 9.49983 1.70639 9.55509L1.88957 10.5995C1.98243 11.1289 2.43634 11.5001 2.95803 11.5001C3.00941 11.5001 3.06154 11.4965 3.11395 11.489L4.16382 11.3405C4.21932 11.3325 4.27593 11.3373 4.32926 11.3547C4.38259 11.372 4.43122 11.4014 4.4714 11.4405L5.23347 12.1777C5.44568 12.383 5.71787 12.4856 5.99016 12.4856C6.26238 12.4856 6.53474 12.383 6.74685 12.1777L7.50895 11.4405C7.59118 11.361 7.70325 11.3246 7.81652 11.3405L8.8664 11.489C9.45112 11.5718 9.98875 11.181 10.0908 10.5995L10.274 9.55512C10.2835 9.49986 10.3056 9.44752 10.3385 9.40215C10.3715 9.35679 10.4144 9.3196 10.464 9.29346L11.4007 8.79648C11.9222 8.5198 12.1276 7.88756 11.8684 7.35714L11.4027 6.40452ZM4.54992 3.00231C5.27788 3.00231 5.87013 3.59456 5.87013 4.32252C5.87013 5.05048 5.27788 5.64274 4.54992 5.64274C3.82196 5.64274 3.22971 5.05048 3.22971 4.32252C3.22971 3.59456 3.82196 3.00231 4.54992 3.00231ZM3.86849 8.87364C3.79818 8.94394 3.70603 8.97911 3.6139 8.97911C3.52177 8.97911 3.4296 8.94397 3.35932 8.87364C3.21871 8.73303 3.21871 8.50505 3.35932 8.36444L8.11181 3.61195C8.25239 3.47134 8.4804 3.47134 8.62101 3.61195C8.76161 3.75256 8.76161 3.98054 8.62101 4.12115L3.86849 8.87364ZM7.43035 9.48333C6.70239 9.48333 6.11014 8.89107 6.11014 8.16311C6.11014 7.43515 6.70239 6.8429 7.43035 6.8429C8.15831 6.8429 8.75057 7.43515 8.75057 8.16311C8.75057 8.89107 8.15831 9.48333 7.43035 9.48333Z" fill="#A6E8C0"/>
</svg>
