<svg width="16" height="17" viewBox="0 0 16 17" fill="none" xmlns="http://www.w3.org/2000/svg">
<path d="M14.8789 8.35696C14.8465 8.29132 14.8297 8.21912 14.8297 8.14595C14.8297 8.07277 14.8465 8.00058 14.8789 7.93494L15.4865 6.6919C15.8248 5.99979 15.5567 5.17486 14.8762 4.81381L13.6541 4.16532C13.5893 4.13123 13.5333 4.08271 13.4903 4.02352C13.4472 3.96432 13.4184 3.89604 13.406 3.82393L13.167 2.46112C13.0339 1.70235 12.332 1.19247 11.5694 1.30037L10.1994 1.49415C10.127 1.50462 10.0531 1.49831 9.98355 1.47569C9.91397 1.45307 9.85051 1.41477 9.79808 1.36372L8.80368 0.401751C8.24999 -0.133901 7.38258 -0.133933 6.82892 0.401751L5.83449 1.36382C5.78205 1.41485 5.71859 1.45315 5.64901 1.47576C5.57942 1.49838 5.50557 1.5047 5.43315 1.49425L4.06322 1.30047C3.30034 1.1925 2.59871 1.70244 2.46561 2.46122L2.22658 3.82396C2.21416 3.89607 2.18533 3.96436 2.14233 4.02356C2.09932 4.08276 2.04329 4.13128 1.97855 4.16538L0.756354 4.81387C0.0758584 5.1749 -0.192191 5.99989 0.146116 6.692L0.753713 7.935C0.786056 8.00064 0.802876 8.07284 0.802876 8.14601C0.802876 8.21919 0.786056 8.29138 0.753713 8.35702L0.146084 9.60003C-0.192223 10.2921 0.0758265 11.1171 0.756322 11.4781L1.97852 12.1266C2.04326 12.1607 2.0993 12.2092 2.14231 12.2684C2.18533 12.3276 2.21416 12.3959 2.22658 12.468L2.46561 13.8308C2.58678 14.5215 3.17907 15.006 3.85979 15.0059C3.92684 15.0059 3.99487 15.0012 4.06325 14.9915L5.43318 14.7977C5.5056 14.7873 5.57946 14.7936 5.64905 14.8162C5.71864 14.8388 5.7821 14.8771 5.83452 14.9282L6.82892 15.8901C7.10581 16.158 7.46099 16.2919 7.81628 16.2919C8.17149 16.2918 8.52688 16.1579 8.80365 15.8901L9.79808 14.9282C9.90537 14.8244 10.0516 14.777 10.1994 14.7977L11.5694 14.9915C12.3323 15.0995 13.0339 14.5895 13.167 13.8308L13.406 12.468C13.4184 12.3959 13.4473 12.3276 13.4903 12.2684C13.5333 12.2092 13.5893 12.1607 13.6541 12.1266L14.8762 11.4781C15.5567 11.1171 15.8248 10.2921 15.4865 9.6L14.8789 8.35696ZM5.93698 3.91757C6.88686 3.91757 7.65967 4.69038 7.65967 5.64026C7.65967 6.59014 6.88686 7.36295 5.93698 7.36295C4.9871 7.36295 4.2143 6.59014 4.2143 5.64026C4.2143 4.69038 4.9871 3.91757 5.93698 3.91757ZM5.04781 11.5788C4.95608 11.6705 4.83583 11.7164 4.71561 11.7164C4.5954 11.7164 4.47512 11.6706 4.38342 11.5788C4.19994 11.3953 4.19994 11.0978 4.38342 10.9144L10.5847 4.71306C10.7682 4.52959 11.0657 4.52959 11.2492 4.71306C11.4326 4.89654 11.4326 5.19402 11.2492 5.37749L5.04781 11.5788ZM9.69552 12.3744C8.74564 12.3744 7.97284 11.6016 7.97284 10.6517C7.97284 9.70179 8.74564 8.92898 9.69552 8.92898C10.6454 8.92898 11.4182 9.70179 11.4182 10.6517C11.4182 11.6016 10.6454 12.3744 9.69552 12.3744Z" fill="#EE4036"/>
<path d="M9.69586 9.86886C9.2641 9.86886 8.91281 10.2201 8.91281 10.6519C8.91281 11.0836 9.26407 11.4349 9.69586 11.4349C10.1276 11.4349 10.4789 11.0836 10.4789 10.6519C10.4789 10.2201 10.1276 9.86886 9.69586 9.86886ZM5.93732 4.85742C5.50555 4.85742 5.1543 5.20868 5.1543 5.64044C5.1543 6.0722 5.50555 6.42349 5.93732 6.42349C6.36908 6.42349 6.72037 6.07223 6.72037 5.64044C6.72034 5.20871 6.36908 4.85742 5.93732 4.85742Z" fill="#EE4036"/>
</svg>
