<svg width="10" height="7" viewBox="0 0 10 7" fill="none" xmlns="http://www.w3.org/2000/svg">
<path d="M9.28104 0.219965C9.35077 0.28962 9.40609 0.372337 9.44384 0.463385C9.48158 0.554434 9.50101 0.652029 9.50101 0.75059C9.50101 0.849152 9.48158 0.946747 9.44384 1.0378C9.40609 1.12884 9.35077 1.21156 9.28104 1.28122L4.03104 6.53122C3.96139 6.60095 3.87867 6.65627 3.78762 6.69401C3.69657 6.73175 3.59898 6.75118 3.50042 6.75118C3.40186 6.75118 3.30426 6.73175 3.21321 6.69401C3.12216 6.65627 3.03945 6.60095 2.96979 6.53122L0.719792 4.28122C0.579061 4.14049 0.5 3.94961 0.5 3.75059C0.5 3.55157 0.579061 3.3607 0.719792 3.21996C0.860522 3.07923 1.05139 3.00017 1.25042 3.00017C1.44944 3.00017 1.64031 3.07923 1.78104 3.21996L3.50042 4.94028L8.21979 0.219965C8.28945 0.150233 8.37216 0.0949141 8.46321 0.0571709C8.55426 0.0194276 8.65186 0 8.75042 0C8.84898 0 8.94657 0.0194276 9.03762 0.0571709C9.12867 0.0949141 9.21139 0.150233 9.28104 0.219965Z" fill="white"/>
</svg>
