<svg width="14" height="9" viewBox="0 0 14 9" fill="none" xmlns="http://www.w3.org/2000/svg">
<path d="M7.25061 7.99995C7.174 8.00003 7.09813 7.98497 7.02735 7.95564C6.95658 7.92631 6.8923 7.88329 6.8382 7.82904L1.00494 1.99577C0.777001 1.76784 0.777001 1.39874 1.00494 1.17095C1.23287 0.943162 1.60197 0.943016 1.82976 1.17095L7.25061 6.5918L12.6715 1.17095C12.8994 0.943016 13.2685 0.943016 13.4963 1.17095C13.7241 1.39889 13.7242 1.76799 13.4963 1.99577L7.66302 7.82904C7.60893 7.88329 7.54464 7.92631 7.47387 7.95564C7.40309 7.98497 7.32722 8.00003 7.25061 7.99995Z" fill="#646779" stroke="#646779" stroke-width="0.5"/>
</svg>
