<svg width="39" height="39" viewBox="0 0 39 39" fill="none" xmlns="http://www.w3.org/2000/svg">
<path d="M38.1461 19.332L38.1463 19.3235L38.1461 19.315C37.7132 -5.80805 0.902461 -5.73549 0.500064 19.3156L0.499938 19.3235L0.50006 19.3314C0.888018 44.38 37.7291 44.4554 38.1461 19.332Z" fill="url(#paint0_linear_39_309)" stroke="white"/>
<path opacity="0.45" d="M37.6458 19.1798C37.8369 40.6406 7.18434 44.6826 1.7334 24.4683C14.4649 28.7781 29.5474 22.3089 35.5787 10.5287C36.9364 13.1828 37.6472 16.1573 37.6458 19.1798V19.1798Z" fill="url(#paint1_linear_39_309)"/>
<g opacity="0.2">
<path opacity="0.6" d="M9.85779 29.6901C6.59989 29.2918 3.7029 25.5674 4.50523 22.2582C6.66514 24.214 8.8986 26.9417 9.85779 29.6901Z" fill="white"/>
<path opacity="0.2" d="M28.6589 5.4075C25.8222 3.62918 22.4383 2.93604 19.1309 3.45581C26.4976 5.26036 32.8204 10.4602 34.2613 18.1018C36.1297 13.6307 32.4332 7.81865 28.6589 5.4075Z" fill="white"/>
</g>
<path fill-rule="evenodd" clip-rule="evenodd" d="M17.0205 22.2139H19.3773C19.6781 22.2139 19.9599 22.0975 20.1729 21.8845L26.1175 15.9399C26.3614 15.6961 26.4959 15.3715 26.4959 15.0263C26.4959 14.6804 26.3614 14.355 26.1175 14.1112L25.1541 13.1477C24.9109 12.9062 24.582 12.7707 24.2393 12.7707C23.8966 12.7707 23.5677 12.9062 23.3245 13.1477L17.4084 19.0646C17.2042 19.2682 17.0865 19.5427 17.0799 19.831L17.0205 22.2139ZM19.3773 23.4014H16.4117C16.3324 23.4014 16.254 23.3856 16.1809 23.3548C16.1079 23.324 16.0418 23.2789 15.9864 23.2222C15.9311 23.1654 15.8877 23.0982 15.8587 23.0244C15.8298 22.9506 15.8159 22.8718 15.8179 22.7926L15.8924 19.8009C15.9064 19.2078 16.1486 18.643 16.5684 18.2239L22.4854 12.3077C22.9512 11.8441 23.5817 11.5839 24.2389 11.5839C24.8961 11.5839 25.5266 11.8441 25.9924 12.3077L26.9567 13.2712C27.4261 13.7399 27.6842 14.3637 27.6834 15.0263C27.6834 15.6897 27.4254 16.312 26.9567 16.7799L21.0113 22.7253C20.7971 22.9403 20.5424 23.1108 20.2619 23.2268C19.9815 23.3429 19.6808 23.4022 19.3773 23.4014Z" fill="white"/>
<path fill-rule="evenodd" clip-rule="evenodd" d="M25.6197 17.851C25.5417 17.8511 25.4644 17.8359 25.3924 17.806C25.3204 17.7761 25.255 17.7322 25.2001 17.6768L21.5869 14.0612C21.4787 13.9493 21.4188 13.7994 21.4201 13.6437C21.4213 13.488 21.4837 13.3391 21.5938 13.2289C21.7038 13.1188 21.8527 13.0563 22.0084 13.0548C22.164 13.0534 22.314 13.1132 22.4261 13.2213L26.0408 16.8368C26.1241 16.9197 26.181 17.0255 26.204 17.1407C26.2271 17.256 26.2155 17.3755 26.1705 17.4841C26.1255 17.5926 26.0493 17.6854 25.9515 17.7506C25.8537 17.8158 25.7388 17.8504 25.6212 17.8502L25.6197 17.851Z" fill="white"/>
<path fill-rule="evenodd" clip-rule="evenodd" d="M23.1235 27.7088H16.1378C13.4137 27.7088 11.5834 25.797 11.5834 22.9509V16.3706C11.5834 13.5253 13.4137 11.6127 16.1378 11.6127H19.0979C19.2553 11.6127 19.4064 11.6752 19.5177 11.7866C19.6291 11.8979 19.6916 12.0489 19.6916 12.2064C19.6916 12.3639 19.6291 12.5149 19.5177 12.6263C19.4064 12.7376 19.2553 12.8002 19.0979 12.8002H16.1378C14.0922 12.8002 12.7709 14.2014 12.7709 16.3706V22.9525C12.7709 25.1209 14.0922 26.5221 16.1378 26.5221H23.1235C25.1692 26.5221 26.4912 25.1209 26.4912 22.9517V19.7637C26.4912 19.6062 26.5538 19.4552 26.6652 19.3438C26.7765 19.2325 26.9275 19.1699 27.085 19.1699C27.2425 19.1699 27.3935 19.2325 27.5048 19.3438C27.6162 19.4552 27.6787 19.6062 27.6787 19.7637V22.9525C27.6787 25.7978 25.8476 27.7096 23.1235 27.7096V27.7088Z" fill="white"/>
<defs>
<linearGradient id="paint0_linear_39_309" x1="19.3231" y1="1" x2="19.3231" y2="37.6462" gradientUnits="userSpaceOnUse">
<stop stop-color="#FF8B00"/>
<stop offset="0.9998" stop-color="#EF463C"/>
<stop offset="0.9999" stop-color="#EF453B"/>
<stop offset="1" stop-color="#EE4036"/>
</linearGradient>
<linearGradient id="paint1_linear_39_309" x1="59836.1" y1="4556.35" x2="59344.4" y2="9518.22" gradientUnits="userSpaceOnUse">
<stop stop-color="#FFEF00"/>
<stop offset="0.16" stop-color="#FFC500"/>
<stop offset="0.34" stop-color="#FF9D00"/>
<stop offset="0.52" stop-color="#FF7E00"/>
<stop offset="0.69" stop-color="#FF6700"/>
<stop offset="0.85" stop-color="#FF5A00"/>
<stop offset="1" stop-color="#FF5500"/>
</linearGradient>
</defs>
</svg>
