<svg width="18" height="18" viewBox="0 0 18 18" fill="none" xmlns="http://www.w3.org/2000/svg">
<path d="M16.4583 1.54117C16.2879 1.34187 16.0741 1.1842 15.8334 1.08021C15.5926 0.976213 15.3313 0.928654 15.0693 0.941168C14.6392 1.00312 14.2451 1.21575 13.9571 1.54117L11.2338 4.26442C11.0329 4.47862 10.8989 4.74686 10.8483 5.03617L10.6983 6.07792C10.6704 6.24513 10.6822 6.41655 10.7328 6.57836C10.7833 6.74016 10.8712 6.88782 10.9893 7.00942C11.0896 7.10682 11.2082 7.18347 11.3382 7.23495C11.4682 7.28643 11.607 7.31174 11.7468 7.30942C11.8051 7.30922 11.8632 7.30496 11.9208 7.29667L12.9618 7.14667C13.2516 7.09644 13.5203 6.96212 13.7343 6.76042L16.4568 4.03792C16.6434 3.88774 16.7939 3.69769 16.8973 3.48173C17.0008 3.26576 17.0546 3.02937 17.0547 2.7899C17.0549 2.55043 17.0014 2.31398 16.8982 2.09789C16.795 1.8818 16.6447 1.69157 16.4583 1.54117ZM15.1796 2.06617H15.2021C15.3828 2.10207 15.5456 2.19899 15.6633 2.34067C16.0518 2.72992 16.0046 2.90917 15.6633 3.25042L15.5381 3.37567C15.1382 3.18712 14.8166 2.86517 14.6283 2.46517L14.7528 2.34067C14.8626 2.20601 15.0119 2.1092 15.1796 2.06392V2.06617ZM12.9431 5.96617C12.9011 5.99771 12.8539 6.02157 12.8036 6.03667L11.8218 6.17542L11.9606 5.20042C11.9759 5.14965 11.9994 5.10175 12.0303 5.05867L13.7996 3.29317C14.0352 3.65774 14.3455 3.96809 14.7101 4.20367L12.9431 5.96617Z" fill="#EE4036"/>
<path d="M4.6875 6C4.6875 6.40792 4.80846 6.80669 5.03509 7.14586C5.26172 7.48504 5.58384 7.7494 5.96072 7.9055C6.33759 8.06161 6.75229 8.10245 7.15237 8.02287C7.55246 7.94329 7.91996 7.74685 8.20841 7.45841C8.49685 7.16996 8.69329 6.80246 8.77287 6.40237C8.85245 6.00229 8.81161 5.58759 8.6555 5.21072C8.4994 4.83384 8.23504 4.51172 7.89586 4.28509C7.55669 4.05846 7.15792 3.9375 6.75 3.9375C6.20311 3.9379 5.67874 4.15532 5.29203 4.54203C4.90532 4.92874 4.6879 5.45311 4.6875 6ZM7.6875 6C7.6875 6.18542 7.63252 6.36668 7.5295 6.52085C7.42649 6.67502 7.28007 6.79518 7.10877 6.86614C6.93746 6.93709 6.74896 6.95566 6.5671 6.91949C6.38525 6.88331 6.2182 6.79402 6.08709 6.66291C5.95598 6.5318 5.86669 6.36476 5.83051 6.1829C5.79434 6.00104 5.81291 5.81254 5.88386 5.64123C5.95482 5.46993 6.07498 5.32351 6.22915 5.2205C6.38332 5.11748 6.56458 5.0625 6.75 5.0625C6.99852 5.0629 7.23675 5.1618 7.41247 5.33753C7.5882 5.51326 7.6871 5.75148 7.6875 6ZM16.5 6.9375C16.3508 6.9375 16.2077 6.99676 16.1023 7.10225C15.9968 7.20774 15.9375 7.35082 15.9375 7.5V9.20025L15.6443 8.949C15.2437 8.61675 14.7397 8.43491 14.2193 8.43491C13.6988 8.43491 13.1948 8.61675 12.7943 8.949L9.675 11.625C9.47832 11.7811 9.23461 11.8661 8.9835 11.8661C8.73239 11.8661 8.48868 11.7811 8.292 11.625L8.04225 11.4105C7.67305 11.1043 7.21512 10.9251 6.73618 10.8993C6.25723 10.8735 5.7827 11.0025 5.38275 11.2673L2.286 13.35C2.12295 12.6623 2.04735 11.9567 2.061 11.25V6.75C2.0625 3.2895 3.2895 2.0625 6.75 2.0625H9.75C9.89919 2.0625 10.0423 2.00324 10.1477 1.89775C10.2532 1.79226 10.3125 1.64918 10.3125 1.5C10.3125 1.35082 10.2532 1.20774 10.1477 1.10225C10.0423 0.996763 9.89919 0.9375 9.75 0.9375H6.75C2.67525 0.9375 0.9375 2.676 0.9375 6.75V11.25C0.9375 15.324 2.67525 17.0625 6.75 17.0625H11.25C15.3248 17.0625 17.0625 15.324 17.0625 11.25V7.5C17.0625 7.35082 17.0032 7.20774 16.8977 7.10225C16.7923 6.99676 16.6492 6.9375 16.5 6.9375ZM11.25 15.9375H6.75C4.68225 15.9375 3.417 15.4943 2.72925 14.4038L6.009 12.2033C6.20517 12.0769 6.43593 12.0151 6.66897 12.0264C6.90202 12.0377 7.12571 12.1216 7.30875 12.2663L7.5585 12.4808C7.95904 12.813 8.46309 12.9948 8.9835 12.9948C9.50391 12.9948 10.008 12.813 10.4085 12.4808L13.5293 9.80325C13.726 9.64663 13.97 9.56136 14.2215 9.56136C14.473 9.56136 14.717 9.64663 14.9138 9.80325L15.939 10.683V11.25C15.9375 14.7105 14.7105 15.9375 11.25 15.9375Z" fill="#0D1442"/>
</svg>
