<svg width="22" height="20" viewBox="0 0 22 20" fill="none" xmlns="http://www.w3.org/2000/svg">
<path fill-rule="evenodd" clip-rule="evenodd" d="M17.6 0C18.767 0 19.8861 0.46357 20.7113 1.28873C21.5364 2.11389 22 3.23305 22 4.4V12.1C22 12.3917 21.8841 12.6715 21.6778 12.8778C21.4715 13.0841 21.1917 13.2 20.9 13.2H17.6C16.433 13.2 15.3139 13.6636 14.4887 14.4887C13.6636 15.3139 13.2 16.433 13.2 17.6V18.7C13.2 18.9917 13.0841 19.2715 12.8778 19.4778C12.6715 19.6841 12.3917 19.8 12.1 19.8H4.4C3.23305 19.8 2.11389 19.3364 1.28873 18.5113C0.46357 17.6861 0 16.567 0 15.4V13.75H4.4C4.90559 13.75 5.40623 13.6504 5.87333 13.4569C6.34044 13.2635 6.76486 12.9799 7.12236 12.6224C7.47987 12.2649 7.76346 11.8404 7.95694 11.3733C8.15042 10.9062 8.25 10.4056 8.25 9.9C8.25 9.39441 8.15042 8.89377 7.95694 8.42667C7.76346 7.95957 7.47987 7.53514 7.12236 7.17764C6.76486 6.82013 6.34044 6.53654 5.87333 6.34306C5.40623 6.14958 4.90559 6.05 4.4 6.05H0V4.4C0 3.23305 0.46357 2.11389 1.28873 1.28873C2.11389 0.46357 3.23305 0 4.4 0H17.6ZM6.6 9.9C6.6 9.31652 6.36822 8.75695 5.95564 8.34437C5.54306 7.93179 4.98348 7.7 4.4 7.7H0V12.1H4.4C4.98348 12.1 5.54306 11.8682 5.95564 11.4556C6.36822 11.0431 6.6 10.4835 6.6 9.9ZM20.8384 16.6276C20.9195 16.5521 20.9845 16.461 21.0296 16.3598C21.0746 16.2586 21.0989 16.1493 21.1009 16.0386C21.1028 15.9278 21.0824 15.8178 21.0409 15.715C20.9994 15.6123 20.9377 15.519 20.8593 15.4407C20.781 15.3623 20.6877 15.3006 20.585 15.2591C20.4822 15.2176 20.3722 15.1972 20.2614 15.1991C20.1507 15.2011 20.0414 15.2254 19.9402 15.2704C19.839 15.3155 19.7479 15.3805 19.6724 15.4616L18.7 16.4329L17.7276 15.4605C17.6515 15.3817 17.5604 15.3189 17.4597 15.2757C17.359 15.2326 17.2508 15.2098 17.1412 15.2089C17.0317 15.208 16.9231 15.229 16.8217 15.2705C16.7203 15.312 16.6282 15.3733 16.5508 15.4508C16.4734 15.5283 16.4122 15.6205 16.3708 15.7219C16.3293 15.8233 16.3085 15.9319 16.3095 16.0415C16.3105 16.151 16.3333 16.2593 16.3766 16.3599C16.4199 16.4605 16.4828 16.5515 16.5616 16.6276L17.5329 17.6L16.5605 18.5724C16.4103 18.7281 16.3272 18.9365 16.3292 19.1528C16.3312 19.3691 16.4181 19.576 16.5711 19.7289C16.7241 19.8818 16.9311 19.9685 17.1474 19.9702C17.3637 19.972 17.5721 19.8888 17.7276 19.7384L18.7 18.7671L19.6724 19.7395C19.7485 19.8183 19.8396 19.8811 19.9403 19.9243C20.041 19.9674 20.1492 19.9902 20.2588 19.9911C20.3683 19.992 20.4769 19.971 20.5783 19.9295C20.6797 19.888 20.7718 19.8267 20.8492 19.7492C20.9266 19.6717 20.9878 19.5795 21.0293 19.4781C21.0707 19.3767 21.0915 19.2681 21.0905 19.1585C21.0895 19.049 21.0667 18.9407 21.0234 18.8401C20.9801 18.7395 20.9172 18.6485 20.8384 18.5724L19.8671 17.6L20.8384 16.6276Z" fill="url(#paint0_linear_1615_6068)"/>
<defs>
<linearGradient id="paint0_linear_1615_6068" x1="11" y1="0" x2="11" y2="19.9804" gradientUnits="userSpaceOnUse">
<stop stop-color="#FD6700"/>
<stop offset="1" stop-color="#FFCE00"/>
</linearGradient>
</defs>
</svg>
