<svg width="22" height="16" viewBox="0 0 22 16" fill="none" xmlns="http://www.w3.org/2000/svg">
<path d="M10.2435 10.7468C8.08075 10.7555 8.04389 10.8137 7.09912 12.3034C6.03889 13.9753 5.28191 15 3.16977 15C2.53271 15 1.95763 14.75 1.55036 14.2959C1.12353 13.82 0.931 13.1595 1.02219 12.4838L1.89029 6.04955C2.38951 2.34934 4.23871 1.57233 6.27195 1.46817C6.26062 1.41124 6.26231 1.35257 6.27691 1.29636C6.2915 1.24016 6.31864 1.1878 6.35638 1.14305C6.39411 1.09831 6.44151 1.06227 6.49517 1.03754C6.54883 1.01281 6.60742 0.999989 6.66675 1H7.83765C7.8958 0.999991 7.95326 1.01231 8.00606 1.03611C8.05887 1.0599 8.10577 1.09461 8.14353 1.13784C8.18129 1.18107 8.20901 1.23179 8.22477 1.2865C8.24054 1.34122 8.24398 1.39862 8.23486 1.45476H13.7653C13.7561 1.39862 13.7596 1.34122 13.7753 1.2865C13.7911 1.23179 13.8188 1.18107 13.8566 1.13784C13.8943 1.09461 13.9412 1.0599 13.994 1.03611C14.0469 1.01231 14.1043 0.999991 14.1625 1H15.3333C15.3926 0.999989 15.4512 1.01281 15.5049 1.03754C15.5586 1.06227 15.606 1.09831 15.6437 1.14305C15.6814 1.1878 15.7086 1.24016 15.7232 1.29636C15.7378 1.35257 15.7394 1.41124 15.7281 1.46817C17.7614 1.57233 19.6106 2.34934 20.1097 6.0495L20.9778 12.4837C21.069 13.1595 20.8764 13.82 20.4496 14.2959C20.0424 14.75 19.4673 15 18.8302 15C16.7181 15 15.9611 13.9753 14.9009 12.3034C13.9568 10.8147 13.92 10.7566 11.7857 10.7469L10.2435 10.7468ZM11.7894 9.96076C14.2253 9.97181 14.5062 10.189 15.5844 11.8892C16.6066 13.5011 17.1302 14.2138 18.8302 14.2138C19.2322 14.2138 19.5926 14.0589 19.8449 13.7777C20.1231 13.4675 20.2423 13.0445 20.1805 12.5866L19.3124 6.15236C19.0932 4.52734 18.5943 3.45282 17.7871 2.86742C17.0261 2.31544 16.0357 2.24102 15.1673 2.24102H6.83269C5.96432 2.24102 4.97397 2.31544 4.21293 2.86742C3.40586 3.45282 2.90696 4.52734 2.68771 6.15236L1.81956 12.5865C1.75777 13.0444 1.87693 13.4675 2.15512 13.7776C2.40738 14.0589 2.76773 14.2138 3.16977 14.2138C4.86978 14.2138 5.39335 13.5012 6.41555 11.8892C7.4945 10.1878 7.7771 9.97054 10.2402 9.96067L11.7894 9.96076Z" fill="#0D1442" stroke="#0D1442" stroke-width="0.4"/>
<path d="M7.91546 5.65293C7.91546 5.75269 7.87464 5.84836 7.80198 5.91889C7.72933 5.98943 7.63079 6.02906 7.52804 6.02906H6.60032V6.92974C6.60032 7.13749 6.42688 7.30587 6.2129 7.30587C5.99892 7.30587 5.82549 7.13749 5.82549 6.92974V6.02906H4.89777C4.68379 6.02906 4.51035 5.86068 4.51035 5.65293C4.51035 5.44519 4.68379 5.27681 4.89777 5.27681H5.82549V4.37612C5.82549 4.16838 5.99892 4 6.2129 4C6.42688 4 6.60032 4.16838 6.60032 4.37612V5.27681H7.52804C7.63079 5.27681 7.72933 5.31644 7.80198 5.38697C7.87464 5.45751 7.91546 5.55318 7.91546 5.65293ZM10.2671 5.27689H10.116C9.90207 5.27689 9.72863 5.44527 9.72863 5.65302C9.72863 5.86076 9.90207 6.02914 10.116 6.02914H10.2671C10.4811 6.02914 10.6546 5.86076 10.6546 5.65302C10.6546 5.44527 10.4811 5.27689 10.2671 5.27689ZM16.8601 9.49273C16.802 9.29284 16.5881 9.17641 16.382 9.23299C16.2831 9.26011 16.1994 9.32424 16.1492 9.41129C16.0991 9.49834 16.0866 9.60117 16.1145 9.69717C16.2957 10.3202 16.8432 11.2123 17.2952 11.8394C17.3309 11.8891 17.3785 11.9296 17.4338 11.9576C17.4891 11.9855 17.5506 12.0001 17.613 12C17.6923 12 17.7698 11.9763 17.8347 11.932C17.9189 11.8748 17.9762 11.7875 17.9941 11.6893C18.012 11.5911 17.9889 11.49 17.93 11.4082C17.4158 10.6947 16.9858 9.92493 16.8601 9.49273ZM5.61788 9.23299C5.41186 9.17632 5.19788 9.29288 5.13977 9.49277C5.01421 9.92468 4.58426 10.6945 4.06995 11.4083C4.01106 11.49 3.98803 11.5911 4.00592 11.6893C4.02381 11.7876 4.08115 11.8749 4.16534 11.932C4.23028 11.9763 4.30772 12 4.38707 12C4.44945 12.0001 4.51093 11.9855 4.56627 11.9576C4.62161 11.9296 4.66916 11.8891 4.70488 11.8394C5.15686 11.2121 5.70436 10.3199 5.88545 9.69713C5.94361 9.49728 5.82381 9.28945 5.61788 9.23299ZM11.884 5.27689H11.7328C11.5188 5.27689 11.3454 5.44527 11.3454 5.65302C11.3454 5.86076 11.5188 6.02914 11.7328 6.02914H11.884C12.098 6.02914 12.2714 5.86076 12.2714 5.65302C12.2714 5.44527 12.098 5.27689 11.884 5.27689ZM15.8098 7.2838C14.8836 7.2838 14.13 6.5522 14.13 5.65298C14.13 4.75375 14.8836 4.02219 15.8098 4.02219C16.736 4.02219 17.4895 4.75379 17.4895 5.65298C17.4895 6.5522 16.736 7.2838 15.8098 7.2838ZM16.7147 5.65293C16.7147 5.16849 16.3088 4.77439 15.8098 4.77439C15.3108 4.77439 14.9049 5.16853 14.9049 5.65293C14.9049 6.13742 15.3108 6.53151 15.8098 6.53151C16.3088 6.53156 16.7147 6.13742 16.7147 5.65293Z" fill="#EE4036" stroke="#EE4036" stroke-width="0.4"/>
</svg>
