<svg width="24" height="24" viewBox="0 0 24 24" fill="none" xmlns="http://www.w3.org/2000/svg">
<path d="M19.4796 24.0003H4.52009C3.66292 24.0003 2.94433 23.3525 2.85581 22.4999L1.03516 4.96655H22.9645L21.1439 22.4999C21.0554 23.3525 20.3368 24.0003 19.4796 24.0003Z" fill="url(#paint0_linear_40_554)"/>
<path d="M22.9647 4.96582L22.4118 10.2919L21.144 22.4994C21.0555 23.3517 20.3369 23.9997 19.4795 23.9997H12V4.96582H22.9647Z" fill="url(#paint1_linear_40_554)"/>
<path d="M22.9645 4.96582L21.1438 22.4994C21.0554 23.3517 20.3368 23.9997 19.4794 23.9997H15.2949L1.5881 10.2929L1.03516 4.96582H22.9645Z" fill="url(#paint2_linear_40_554)"/>
<path d="M2.36426 17.762L2.85621 22.4997C2.94477 23.3523 3.66332 24.0001 4.52049 24.0001H19.48C20.3371 24.0001 21.0557 23.3523 21.1442 22.4997L21.6362 17.762H2.36426Z" fill="url(#paint3_linear_40_554)"/>
<path d="M11.9998 4.21548C11.9998 6.15378 3.29395 6.15378 3.29395 4.21548C3.29395 2.27717 4.79112 0 6.63799 0C8.48486 0 11.9998 2.27717 11.9998 4.21548Z" fill="url(#paint4_linear_40_554)"/>
<path d="M9.30006 4.5652C9.30006 3.09349 6.63121 1.3645 5.22896 1.3645C4.76637 1.3645 4.3331 1.5534 3.95959 1.85838C3.54157 2.58276 3.29395 3.42704 3.29395 4.21528C3.29395 5.05254 4.91841 5.52807 6.76387 5.642C8.12392 5.54492 9.30006 5.186 9.30006 4.5652Z" fill="url(#paint5_linear_40_554)"/>
<path d="M12 4.21548C12 6.15378 20.7059 6.15378 20.7059 4.21548C20.7059 2.27717 19.2087 0 17.3618 0C15.515 0 12 2.27717 12 4.21548Z" fill="url(#paint6_linear_40_554)"/>
<path d="M14.6992 4.5652C14.6992 3.09349 17.3681 1.3645 18.7703 1.3645C19.2329 1.3645 19.6662 1.5534 20.0397 1.85838C20.4577 2.58276 20.7053 3.42704 20.7053 4.21528C20.7053 5.05254 19.0809 5.52807 17.2354 5.642C15.8754 5.54492 14.6992 5.186 14.6992 4.5652Z" fill="url(#paint7_linear_40_554)"/>
<path d="M22.3569 10.2935H1.6431C0.73567 10.2935 0 9.55791 0 8.65043V5.69857C0 4.79109 0.73567 4.05542 1.6431 4.05542H22.3568C23.2643 4.05542 23.9999 4.79109 23.9999 5.69852V8.65038C24 9.55791 23.2643 10.2935 22.3569 10.2935Z" fill="url(#paint8_linear_40_554)"/>
<path d="M24 5.69824V8.65024C24 9.53918 23.2941 10.2634 22.4118 10.2926C22.3934 10.2931 22.375 10.2935 22.3567 10.2935H12V4.05542H22.3567C23.2645 4.05542 24 4.79095 24 5.69824Z" fill="url(#paint9_linear_40_554)"/>
<path d="M0 7.17407V8.65002C0 9.5575 0.73567 10.2931 1.6431 10.2931H22.3568C23.2643 10.2931 23.9999 9.55746 23.9999 8.65002V7.17407H0Z" fill="url(#paint10_linear_40_554)"/>
<path d="M13.5733 10.4838H10.4258C10.1226 10.4838 9.87695 10.2381 9.87695 9.93503V4.41306C9.87695 4.10995 10.1226 3.86426 10.4258 3.86426H13.5733C13.8764 3.86426 14.1221 4.10995 14.1221 4.41306V9.93503C14.1221 10.2381 13.8764 10.4838 13.5733 10.4838Z" fill="url(#paint11_linear_40_554)"/>
<path d="M16.3533 8.7334L7.64746 15.1407L16.5066 23.9999H19.4802C20.3373 23.9999 21.0559 23.3521 21.1444 22.4995L21.9887 14.3688L16.3533 8.7334Z" fill="url(#paint12_linear_40_554)"/>
<path d="M13.5733 23.9999H10.4258C10.1226 23.9999 9.87695 23.7542 9.87695 23.4511V9.43381C9.87695 9.1307 10.1226 8.88501 10.4258 8.88501H13.5733C13.8764 8.88501 14.1221 9.1307 14.1221 9.43381V23.4511C14.1221 23.7542 13.8764 23.9999 13.5733 23.9999Z" fill="url(#paint13_linear_40_554)"/>
<path d="M13.5733 8.88501H10.4258C10.1226 8.88501 9.87695 9.1307 9.87695 9.43381V18.5823L14.1221 22.8274V9.43381C14.1221 9.13075 13.8764 8.88501 13.5733 8.88501Z" fill="url(#paint14_linear_40_554)"/>
<path d="M14.1226 9.43372V21.6158L9.87793 17.3711V9.43372C9.87793 9.13066 10.1236 8.88501 10.4266 8.88501H13.5739C13.877 8.88501 14.1226 9.13066 14.1226 9.43372Z" fill="url(#paint15_linear_40_554)"/>
<path d="M17.1871 12.5002L16.6959 13.0001C16.6007 13.097 16.5293 13.2146 16.4874 13.3438C16.4454 13.4729 16.434 13.61 16.4541 13.7443L16.5577 14.4372C16.6284 14.9105 16.3066 15.3531 15.8346 15.4318L15.1439 15.547C15.0097 15.5693 14.8826 15.6226 14.7726 15.7026C14.6625 15.7826 14.5726 15.8871 14.5099 16.0078L14.1878 16.6281C13.9671 17.0533 13.4459 17.2226 13.0174 17.0083L12.3922 16.6957C12.2704 16.6348 12.1361 16.6031 12 16.6031C11.8638 16.6031 11.7295 16.6348 11.6078 16.6957L10.9826 17.0083C10.554 17.2226 10.0329 17.0533 9.81216 16.6281L9.49009 16.0078C9.42739 15.8871 9.33747 15.7826 9.22743 15.7026C9.11739 15.6226 8.99025 15.5693 8.85606 15.547L8.16543 15.4318C7.69338 15.3531 7.37164 14.9105 7.44237 14.4372L7.54595 13.7444C7.56602 13.6101 7.55463 13.473 7.51267 13.3438C7.47071 13.2147 7.39933 13.097 7.30416 13.0001L6.81296 12.5002C6.47771 12.1591 6.47771 11.6122 6.81296 11.271L7.30416 10.7711C7.39933 10.6743 7.47071 10.5566 7.51267 10.4275C7.55463 10.2983 7.56602 10.1612 7.54595 10.0269L7.44237 9.33399C7.37164 8.86072 7.69338 8.41808 8.16543 8.3394L8.85611 8.22425C8.99029 8.20187 9.11743 8.14858 9.22747 8.0686C9.33751 7.98861 9.42743 7.88413 9.49013 7.7634L9.8122 7.14317C10.033 6.71799 10.5541 6.54867 10.9826 6.76293L11.6079 7.07554C11.7296 7.13642 11.8639 7.16812 12.0001 7.16812C12.1362 7.16812 12.2705 7.13642 12.3922 7.07554L13.0175 6.76293C13.446 6.54867 13.9671 6.71794 14.1879 7.14317L14.51 7.76345C14.5727 7.88418 14.6626 7.98867 14.7726 8.06865C14.8827 8.14864 15.0098 8.20192 15.144 8.2243L15.8347 8.33945C16.3067 8.41813 16.6285 8.86077 16.5577 9.33404L16.4542 10.0269C16.4341 10.1612 16.4455 10.2983 16.4875 10.4275C16.5294 10.5566 16.6008 10.6743 16.696 10.7711L17.1872 11.271C17.5223 11.6122 17.5223 12.159 17.1871 12.5002Z" fill="url(#paint16_linear_40_554)"/>
<path d="M12.0001 15.7742C14.1478 15.7742 15.8889 14.0331 15.8889 11.8854C15.8889 9.73765 14.1478 7.99658 12.0001 7.99658C9.8524 7.99658 8.11133 9.73765 8.11133 11.8854C8.11133 14.0331 9.8524 15.7742 12.0001 15.7742Z" fill="url(#paint17_linear_40_554)"/>
<path d="M11.9997 15.2028C13.8317 15.2028 15.3168 13.7177 15.3168 11.8857C15.3168 10.0537 13.8317 8.5686 11.9997 8.5686C10.1677 8.5686 8.68262 10.0537 8.68262 11.8857C8.68262 13.7177 10.1677 15.2028 11.9997 15.2028Z" fill="url(#paint18_linear_40_554)"/>
<path d="M7.30416 12.9995C7.39933 13.0964 7.47071 13.2141 7.51267 13.3432C7.55463 13.4724 7.56602 13.6095 7.54595 13.7438L7.44237 14.4366C7.37164 14.9099 7.69338 15.3525 8.16543 15.4312L8.85606 15.5464C8.99025 15.5687 9.11738 15.622 9.22742 15.702C9.33746 15.782 9.42739 15.8865 9.49008 16.0072L9.81215 16.6275C10.0329 17.0527 10.5541 17.222 10.9826 17.0077L11.6078 16.6951C11.7295 16.6342 11.8638 16.6025 12 16.6025C12.1361 16.6025 12.2704 16.6342 12.3922 16.6951L13.0174 17.0077C13.4459 17.2219 13.967 17.0527 14.1878 16.6275L14.5099 16.0072C14.5726 15.8865 14.6625 15.782 14.7725 15.702C14.8826 15.622 15.0097 15.5687 15.1439 15.5464L15.8346 15.4312C16.3066 15.3525 16.6284 14.9099 16.5577 14.4366L16.4541 13.7437C16.434 13.6094 16.4454 13.4723 16.4874 13.3432C16.5293 13.214 16.6007 13.0964 16.6959 12.9995L17.1871 12.4996C17.3484 12.3358 17.4388 12.115 17.4385 11.885H6.56152C6.56152 12.107 6.64533 12.329 6.81296 12.4996L7.30416 12.9995Z" fill="url(#paint19_linear_40_554)"/>
<path d="M15.144 15.547L15.8347 15.4318C16.3068 15.3532 16.6285 14.9105 16.5578 14.4373L16.4542 13.7444C16.4341 13.6101 16.4455 13.4729 16.4875 13.3438C16.5294 13.2146 16.6008 13.097 16.696 13.0001L16.8132 12.8808C16.8253 12.8082 16.85 12.7382 16.8861 12.674L13.5635 9.35142C13.4957 9.22714 13.349 9.15161 13.2127 9.15161C13.094 9.15161 12.9884 9.20441 12.9357 9.31655L10.6199 14.0734C10.6001 14.113 10.5869 14.1592 10.5869 14.1988C10.5869 14.3128 10.6565 14.4363 10.7735 14.5017L13.3719 17.1001C13.7021 17.1141 14.0259 16.9402 14.1879 16.6281L14.51 16.0079C14.5727 15.8871 14.6626 15.7827 14.7727 15.7027C14.8827 15.6227 15.0098 15.5694 15.144 15.547Z" fill="url(#paint20_linear_40_554)"/>
<path d="M16.513 14.8698L11.396 9.75284C11.2207 9.51726 10.9176 9.42188 10.5668 9.42188C10.006 9.42188 9.57715 9.65938 9.57715 10.3125V11.2494C9.57715 11.5863 9.6915 11.8125 9.87908 11.9526L14.313 16.3865L14.5097 16.0076C14.5724 15.8868 14.6623 15.7823 14.7724 15.7024C14.8824 15.6224 15.0095 15.5691 15.1437 15.5467L15.8344 15.4316C16.1558 15.378 16.4074 15.1556 16.513 14.8698Z" fill="url(#paint21_linear_40_554)"/>
<path d="M13.5902 11.54C13.0295 11.54 12.6006 11.7775 12.6006 12.4307V13.3676C12.6006 13.7046 12.7149 13.9307 12.9025 14.0708L14.6468 15.8151C14.7785 15.6733 14.9536 15.5791 15.1445 15.5471L15.8352 15.432C16.3072 15.3533 16.629 14.9107 16.5582 14.4374L16.4831 13.9346L14.4195 11.871C14.2442 11.6354 13.9411 11.54 13.5902 11.54Z" fill="url(#paint22_linear_40_554)"/>
<path d="M9.55078 11.2226V10.2857C9.55078 9.63256 9.97963 9.39505 10.5404 9.39505C11.0946 9.39505 11.5301 9.63256 11.5301 10.2857V11.2226C11.5301 11.8758 11.0946 12.1133 10.5404 12.1133C9.97963 12.1133 9.55078 11.8758 9.55078 11.2226ZM10.8703 10.2857C10.8703 10.068 10.7449 9.96903 10.5404 9.96903C10.3359 9.96903 10.2172 10.068 10.2172 10.2857V11.2226C10.2172 11.4403 10.3359 11.5393 10.5404 11.5393C10.745 11.5393 10.8703 11.4403 10.8703 11.2226V10.2857ZM13.5753 9.47421C13.5753 9.51378 13.5687 9.55999 13.5489 9.59957L11.2265 14.3564C11.1803 14.4554 11.055 14.5214 10.9297 14.5214C10.7053 14.5214 10.5602 14.3366 10.5602 14.1717C10.5602 14.1321 10.5734 14.0859 10.5932 14.0463L12.9089 9.28945C12.9617 9.17731 13.0672 9.12451 13.186 9.12451C13.3707 9.12456 13.5753 9.2631 13.5753 9.47421ZM12.5791 13.347V12.4102C12.5791 11.757 13.0079 11.5195 13.5687 11.5195C14.1229 11.5195 14.5584 11.757 14.5584 12.4102V13.347C14.5584 14.0002 14.1229 14.2377 13.5687 14.2377C13.0079 14.2376 12.5791 14.0001 12.5791 13.347ZM13.8985 12.4102C13.8985 12.1925 13.7732 12.0935 13.5687 12.0935C13.3641 12.0935 13.2454 12.1924 13.2454 12.4102V13.347C13.2454 13.5647 13.3641 13.6637 13.5687 13.6637C13.7732 13.6637 13.8985 13.5647 13.8985 13.347V12.4102Z" fill="url(#paint23_linear_40_554)"/>
<defs>
<linearGradient id="paint0_linear_40_554" x1="7.12682" y1="8.2145" x2="21.3047" y2="22.3924" gradientUnits="userSpaceOnUse">
<stop stop-color="#FEE45A"/>
<stop offset="1" stop-color="#FEA613"/>
</linearGradient>
<linearGradient id="paint1_linear_40_554" x1="17.8823" y1="14.4828" x2="13.4096" y2="14.4828" gradientUnits="userSpaceOnUse">
<stop stop-color="#FEA613" stop-opacity="0"/>
<stop offset="1" stop-color="#E94444"/>
</linearGradient>
<linearGradient id="paint2_linear_40_554" x1="11.9999" y1="17.6467" x2="11.9999" y2="6.83707" gradientUnits="userSpaceOnUse">
<stop stop-color="#FEA613" stop-opacity="0"/>
<stop offset="1" stop-color="#E94444"/>
</linearGradient>
<linearGradient id="paint3_linear_40_554" x1="12.0002" y1="20.3129" x2="12.0002" y2="24.4075" gradientUnits="userSpaceOnUse">
<stop stop-color="#FEA613" stop-opacity="0"/>
<stop offset="1" stop-color="#E94444"/>
</linearGradient>
<linearGradient id="paint4_linear_40_554" x1="5.73046" y1="0.509223" x2="8.77497" y2="6.13693" gradientUnits="userSpaceOnUse">
<stop stop-color="#FEDBBD"/>
<stop offset="1" stop-color="#FD3581"/>
</linearGradient>
<linearGradient id="paint5_linear_40_554" x1="5.46844" y1="4.39824" x2="8.63963" y2="1.46864" gradientUnits="userSpaceOnUse">
<stop stop-color="#FE646F" stop-opacity="0"/>
<stop offset="0.297" stop-color="#FC616A" stop-opacity="0.297"/>
<stop offset="0.621" stop-color="#F5575D" stop-opacity="0.621"/>
<stop offset="0.959" stop-color="#EB4747" stop-opacity="0.959"/>
<stop offset="1" stop-color="#E94444"/>
</linearGradient>
<linearGradient id="paint6_linear_40_554" x1="18.2694" y1="0.509223" x2="15.2248" y2="6.13693" gradientUnits="userSpaceOnUse">
<stop stop-color="#FEDBBD"/>
<stop offset="1" stop-color="#FD3581"/>
</linearGradient>
<linearGradient id="paint7_linear_40_554" x1="18.5308" y1="4.39824" x2="15.3596" y2="1.46864" gradientUnits="userSpaceOnUse">
<stop stop-color="#FE646F" stop-opacity="0"/>
<stop offset="0.297" stop-color="#FC616A" stop-opacity="0.297"/>
<stop offset="0.621" stop-color="#F5575D" stop-opacity="0.621"/>
<stop offset="0.959" stop-color="#EB4747" stop-opacity="0.959"/>
<stop offset="1" stop-color="#E94444"/>
</linearGradient>
<linearGradient id="paint8_linear_40_554" x1="9.72573" y1="1.67829" x2="14.2433" y2="12.5959" gradientUnits="userSpaceOnUse">
<stop stop-color="#FEE45A"/>
<stop offset="1" stop-color="#FEA613"/>
</linearGradient>
<linearGradient id="paint9_linear_40_554" x1="17.3647" y1="7.17448" x2="12.7998" y2="7.17448" gradientUnits="userSpaceOnUse">
<stop stop-color="#FEA613" stop-opacity="0"/>
<stop offset="1" stop-color="#E94444"/>
</linearGradient>
<linearGradient id="paint10_linear_40_554" x1="12" y1="8.00009" x2="12" y2="11.6312" gradientUnits="userSpaceOnUse">
<stop stop-color="#FEA613" stop-opacity="0"/>
<stop offset="1" stop-color="#E94444"/>
</linearGradient>
<linearGradient id="paint11_linear_40_554" x1="10.6946" y1="5.8691" x2="14.4913" y2="9.6658" gradientUnits="userSpaceOnUse">
<stop stop-color="#FEDBBD"/>
<stop offset="1" stop-color="#FD3581"/>
</linearGradient>
<linearGradient id="paint12_linear_40_554" x1="18.9181" y1="18.8548" x2="11.6659" y2="11.6026" gradientUnits="userSpaceOnUse">
<stop stop-color="#FEA613" stop-opacity="0"/>
<stop offset="1" stop-color="#E94444"/>
</linearGradient>
<linearGradient id="paint13_linear_40_554" x1="3.70454" y1="11.3005" x2="15.7745" y2="18.7825" gradientUnits="userSpaceOnUse">
<stop stop-color="#FEDBBD"/>
<stop offset="1" stop-color="#FD3581"/>
</linearGradient>
<linearGradient id="paint14_linear_40_554" x1="11.9995" y1="19.5764" x2="11.9995" y2="7.66393" gradientUnits="userSpaceOnUse">
<stop stop-color="#FE646F" stop-opacity="0"/>
<stop offset="0.297" stop-color="#FC616A" stop-opacity="0.297"/>
<stop offset="0.621" stop-color="#F5575D" stop-opacity="0.621"/>
<stop offset="0.959" stop-color="#EB4747" stop-opacity="0.959"/>
<stop offset="1" stop-color="#E94444"/>
</linearGradient>
<linearGradient id="paint15_linear_40_554" x1="14.6131" y1="21.2643" x2="12.8013" y2="15.7819" gradientUnits="userSpaceOnUse">
<stop stop-color="#FE646F" stop-opacity="0"/>
<stop offset="0.297" stop-color="#FC616A" stop-opacity="0.297"/>
<stop offset="0.621" stop-color="#F5575D" stop-opacity="0.621"/>
<stop offset="0.959" stop-color="#EB4747" stop-opacity="0.959"/>
<stop offset="1" stop-color="#E94444"/>
</linearGradient>
<linearGradient id="paint16_linear_40_554" x1="8.70623" y1="8.59178" x2="17.067" y2="16.9526" gradientUnits="userSpaceOnUse">
<stop stop-color="#8AC9FE"/>
<stop offset="1" stop-color="#814AA0"/>
</linearGradient>
<linearGradient id="paint17_linear_40_554" x1="15.6818" y1="15.5671" x2="6.84634" y2="6.7316" gradientUnits="userSpaceOnUse">
<stop stop-color="#8AC9FE"/>
<stop offset="1" stop-color="#814AA0"/>
</linearGradient>
<linearGradient id="paint18_linear_40_554" x1="9.6628" y1="9.54874" x2="14.2385" y2="14.1245" gradientUnits="userSpaceOnUse">
<stop stop-color="#8AC9FE"/>
<stop offset="1" stop-color="#814AA0"/>
</linearGradient>
<linearGradient id="paint19_linear_40_554" x1="12" y1="13.1958" x2="12" y2="18.2791" gradientUnits="userSpaceOnUse">
<stop stop-color="#5B3374" stop-opacity="0"/>
<stop offset="1" stop-color="#5B3374"/>
</linearGradient>
<linearGradient id="paint20_linear_40_554" x1="14.404" y1="13.7229" x2="10.9264" y2="11.7612" gradientUnits="userSpaceOnUse">
<stop stop-color="#5B3374" stop-opacity="0"/>
<stop offset="1" stop-color="#5B3374"/>
</linearGradient>
<linearGradient id="paint21_linear_40_554" x1="12.1455" y1="12.6819" x2="9.12553" y2="11.2201" gradientUnits="userSpaceOnUse">
<stop stop-color="#5B3374" stop-opacity="0"/>
<stop offset="1" stop-color="#5B3374"/>
</linearGradient>
<linearGradient id="paint22_linear_40_554" x1="15.9024" y1="14.6147" x2="12.2395" y2="12.4644" gradientUnits="userSpaceOnUse">
<stop stop-color="#5B3374" stop-opacity="0"/>
<stop offset="1" stop-color="#5B3374"/>
</linearGradient>
<linearGradient id="paint23_linear_40_554" x1="9.55078" y1="11.823" x2="11.5301" y2="11.823" gradientUnits="userSpaceOnUse">
<stop stop-color="#EAF6FF"/>
<stop offset="1" stop-color="#B3DAFE"/>
</linearGradient>
</defs>
</svg>
