<svg width="18" height="22" viewBox="0 0 18 22" fill="none" xmlns="http://www.w3.org/2000/svg">
<path d="M14 2.66663H15.75C16.4404 2.66663 17 3.22621 17 3.91663V6.33329M17 6.33329H1M17 6.33329V19.7916C17 20.482 16.4404 21.0416 15.75 21.0416H2.25C1.55963 21.0416 1 20.482 1 19.7916V6.33329M1 6.33329V3.91663C1 3.22621 1.55958 2.66663 2.25 2.66663H3.96208M11.6667 2.66663H6.44583" stroke="#0D1442" stroke-width="1.3" stroke-miterlimit="10" stroke-linecap="round" stroke-linejoin="round"/>
<path d="M4 0.958313H6.33333V3.66665H4V0.958313ZM11.6667 0.958313H14V3.66665H11.6667V0.958313Z" stroke="#0D1442" stroke-width="1.3" stroke-miterlimit="10" stroke-linecap="round" stroke-linejoin="round"/>
<path d="M5.00033 11.6667C5.73671 11.6667 6.33366 11.0698 6.33366 10.3334C6.33366 9.59701 5.73671 9.00006 5.00033 9.00006C4.26395 9.00006 3.66699 9.59701 3.66699 10.3334C3.66699 11.0698 4.26395 11.6667 5.00033 11.6667Z" stroke="#EE4036" stroke-width="1.3" stroke-miterlimit="10" stroke-linecap="round" stroke-linejoin="round"/>
<path d="M9 9H14.3333M9 11.6667H11.6667" stroke="#EE4036" stroke-width="1.3" stroke-miterlimit="10" stroke-linecap="round" stroke-linejoin="round"/>
<path d="M5.00033 18.3332C5.73671 18.3332 6.33366 17.7363 6.33366 16.9999C6.33366 16.2635 5.73671 15.6666 5.00033 15.6666C4.26395 15.6666 3.66699 16.2635 3.66699 16.9999C3.66699 17.7363 4.26395 18.3332 5.00033 18.3332Z" stroke="#EE4036" stroke-width="1.3" stroke-miterlimit="10" stroke-linecap="round" stroke-linejoin="round"/>
<path d="M9 15.6666H14.3333M9 18.3333H11.6667" stroke="#EE4036" stroke-width="1.3" stroke-miterlimit="10" stroke-linecap="round" stroke-linejoin="round"/>
</svg>
