<svg width="20" height="21" viewBox="0 0 20 21" fill="none" xmlns="http://www.w3.org/2000/svg">
<path d="M17.1028 8.854H17.0542V7.70176C17.0542 4.00049 13.9505 1 10.1219 1C6.29335 1 3.18973 4.00049 3.18973 7.70176V8.854H2.89787C1.82762 8.854 1.00063 9.77106 1.00063 10.8293V13.7686C0.973676 14.7942 1.81188 15.6468 2.87277 15.6729C2.88115 15.6731 2.88949 15.6732 2.89787 15.6733H4.6978C4.95275 15.6618 5.14973 15.4525 5.13772 15.206C5.1373 15.1972 5.1366 15.1883 5.13562 15.1795V9.41832C5.13562 9.13616 4.96536 8.85395 4.6978 8.85395H4.16268V7.70172C4.16268 4.51994 6.83075 1.94055 10.1219 1.94055C13.4131 1.94055 16.0812 4.51994 16.0812 7.70172V8.85395H15.5461C15.2785 8.85395 15.1083 9.13611 15.1083 9.41832V15.1795C15.0811 15.4248 15.2648 15.645 15.5186 15.6713C15.5277 15.6722 15.5369 15.6729 15.5461 15.6733H16.1055L16.0569 15.7438C15.6969 16.2063 15.2302 16.5811 14.6938 16.8383C14.1575 17.0955 13.5665 17.228 12.9678 17.2252C12.702 15.9655 11.4302 15.1525 10.1271 15.4094C9.01278 15.6291 8.20935 16.5726 8.20036 17.672C8.21368 18.9616 9.29882 20.0001 10.6327 20C11.293 19.9897 11.9224 19.7277 12.384 19.271C12.6954 18.9627 12.8995 18.5681 12.9678 18.1423C13.7175 18.145 14.4575 17.9785 15.1289 17.656C15.8004 17.3335 16.3846 16.8639 16.8352 16.2846L17.2974 15.6262C18.3433 15.5557 19 14.9208 19 14.0037V11.0643C19 10.0533 18.2217 8.854 17.1028 8.854ZM4.16268 14.7327H2.89787C2.3741 14.7204 1.95984 14.3 1.9726 13.7936C1.97283 13.7853 1.97316 13.777 1.97358 13.7686V10.8292C1.97358 10.2884 2.36274 9.79455 2.89787 9.79455H4.16268V14.7327ZM11.6787 18.6127C11.5453 18.7525 11.3837 18.8643 11.2037 18.9411C11.0238 19.018 10.8295 19.0583 10.6328 19.0595C9.84139 19.0473 9.19919 18.4368 9.17335 17.6721C9.17302 16.9059 9.81528 16.2845 10.6079 16.2841C11.4004 16.2838 12.0432 16.9047 12.0435 17.671V17.6721C12.0535 17.8448 12.0263 18.0176 11.9635 18.1795C11.9006 18.3414 11.8037 18.489 11.6787 18.6127ZM18.0271 14.0038C18.0271 14.6387 17.3947 14.7327 17.1028 14.7327H16.0812V9.79459H17.1028C17.6379 9.79459 18.0271 10.5236 18.0271 11.0644V14.0038Z" fill="#0D1442" stroke="#0D1442" stroke-width="0.2"/>
<path d="M4.13568 15.2448H4.73559L4.73568 14.6449L4.73641 9.87589L4.7365 9.27579H4.13641H4.13352H4.13063H4.12775H4.12487H4.122H4.11914H4.11627H4.11342H4.11056H4.10772H4.10487H4.10203H4.0992H4.09637H4.09355H4.09073H4.08791H4.0851H4.0823H4.0795H4.0767H4.07391H4.07112H4.06834H4.06556H4.06279H4.06002H4.05725H4.05449H4.05173H4.04898H4.04624H4.04349H4.04075H4.03802H4.03529H4.03256H4.02984H4.02712H4.02441H4.0217H4.019H4.0163H4.0136H4.01091H4.00822H4.00554H4.00286H4.00018H3.99751H3.99484H3.99218H3.98952H3.98686H3.98421H3.98156H3.97891H3.97627H3.97364H3.971H3.96837H3.96575H3.96313H3.96051H3.9579H3.95528H3.95268H3.95007H3.94748H3.94488H3.94229H3.9397H3.93711H3.93453H3.93195H3.92938H3.92681H3.92424H3.92168H3.91912H3.91656H3.91401H3.91146H3.90891H3.90636H3.90382H3.90129H3.89875H3.89622H3.8937H3.89117H3.88865H3.88613H3.88362H3.88111H3.8786H3.87609H3.87359H3.87109H3.8686H3.8661H3.86361H3.86113H3.85864H3.85616H3.85368H3.85121H3.84873H3.84627H3.8438H3.84134H3.83887H3.83642H3.83396H3.83151H3.82906H3.82661H3.82417H3.82172H3.81929H3.81685H3.81441H3.81198H3.80955H3.80713H3.80471H3.80228H3.79987H3.79745H3.79504H3.79262H3.79022H3.78781H3.78541H3.783H3.7806H3.77821H3.77581H3.77342H3.77103H3.76864H3.76626H3.76387H3.76149H3.75911H3.75674H3.75436H3.75199H3.74962H3.74725H3.74488H3.74252H3.74016H3.7378H3.73544H3.73308H3.73073H3.72838H3.72602H3.72368H3.72133H3.71898H3.71664H3.7143H3.71196H3.70962H3.70729H3.70495H3.70262H3.70029H3.69796H3.69563H3.6933H3.69098H3.68866H3.68634H3.68402H3.6817H3.67938H3.67707H3.67475H3.67244H3.67013H3.66782H3.66551H3.66321H3.6609H3.6586H3.65629H3.65399H3.65169H3.64939H3.6471H3.6448H3.6425H3.64021H3.63792H3.63563H3.63334H3.63105H3.62876H3.62647H3.62418H3.6219H3.61962H3.61733H3.61505H3.61277H3.61049H3.60821H3.60593H3.60365H3.60138H3.5991H3.59683H3.59455H3.59228H3.59H3.58773H3.58546H3.58319H3.58092H3.57865H3.57638H3.57411H3.57185H3.56958H3.56731H3.56505H3.56278H3.56052H3.55825H3.55599H3.55373H3.55146H3.5492H3.54694H3.54468H3.54242H3.54016H3.53789H3.53563H3.53337H3.53111H3.52885H3.52659H3.52434H3.52208H3.51982H3.51756H3.5153H3.51304H3.51078H3.50852H3.50627H3.50401H3.50175H3.49949H3.49723H3.49497H3.49272H3.49046H3.4882H3.48594H3.48368H3.48142H3.47916H3.4769H3.47464H3.47238H3.47012H3.46786H3.4656H3.46334H3.46108H3.45881H3.45655H3.45429H3.45202H3.44976H3.4475H3.44523H3.44297H3.4407H3.43843H3.43617H3.4339H3.43163H3.42936H3.42709H3.42482H3.42255H3.42028H3.41801H3.41574H3.41346H3.41119H3.40891H3.40664H3.40436H3.40208H3.39981H3.39753H3.39525H3.39297H3.39068H3.3884H3.38612H3.38383H3.38154H3.37926H3.37697H3.37468H3.37239H3.3701H3.3678H3.36551H3.36322H3.36092H3.35862H3.35632H3.35402H3.35172H3.34942H3.34712H3.34481H3.3425H3.3402H3.33789H3.33558H3.33326H3.33095H3.32863H3.32632H3.324H3.32168H3.31936H3.31704H3.31471H3.31238H3.31006H3.30773H3.3054H3.30306H3.30073H3.29839H3.29606H3.29372H3.29137H3.28903H3.28669H3.28434H3.28199H3.27964H3.27729H3.27493H3.27258H3.27022H3.26786H3.2655H3.26313H3.26077H3.2584H3.25603H3.25365H3.25128H3.2489H3.24652H3.24414H3.24176H3.23937H3.23698H3.23459H3.2322H3.22981H3.22741H3.22501H3.22261H3.22021H3.2178H3.21539H3.21298H3.21057H3.20815H3.20573H3.20331H3.20089H3.19846H3.19603H3.1936H3.19117H3.18873H3.18629H3.18385H3.1814H3.17896H3.17651H3.17405H3.1716H3.16914H3.16668H3.16422H3.16175H3.15928H3.15681H3.15433H3.15185H3.14937H3.14689H3.1444H3.14191H3.13942H3.13692H3.13442H3.13192H3.12942H3.12691H3.1244H3.12188H3.11937H3.11684H3.11432H3.11179H3.10926H3.10673H3.10419H3.10165H3.09911H3.09656H3.09401H3.09146H3.0889H3.08634H3.08377H3.08121H3.07864H3.07606H3.07348H3.0709H3.06832H3.06573H3.06314H3.06054H3.05794H3.05534H3.05273H3.05012H3.04751H3.04489H3.04227H3.03964H3.03701H3.03438H3.03174H3.0291H3.02646H3.02381H3.02116H3.0185H3.01584H3.01318H3.01051H3.00784H3.00516H3.00248H2.9998H2.99711H2.99441H2.99172H2.98902H2.98631H2.9836H2.98089H2.97817H2.97545H2.97273H2.97H2.96726H2.96452H2.96178H2.95903H2.95628H2.95352H2.95076H2.948H2.94523H2.94246H2.93968H2.9369H2.93411H2.93132H2.92852H2.92572H2.92291H2.9201H2.91729H2.91447H2.91164H2.90882H2.90598H2.90314H2.9003H2.89745H2.8946H2.89174H2.88888H2.88601H2.88314H2.88026H2.87738H2.8745H2.8716C1.92303 9.27579 1.34739 10.1267 1.34731 10.9103C1.34731 10.9104 1.34731 10.9104 1.34731 10.9105L1.34658 13.6672C1.34629 13.6744 1.34604 13.6817 1.34583 13.689H1.34583L1.34579 13.6906C1.3242 14.5476 2.02067 15.225 2.85675 15.2447L2.85674 15.2448H2.87087H4.13568ZM15.4542 14.6447L15.4541 15.2448H16.0542H17.0758C17.2656 15.2448 17.6092 15.2173 17.9278 15.0489C18.0949 14.9606 18.2687 14.8261 18.3996 14.6249C18.5329 14.4202 18.6001 14.1793 18.6001 13.916C18.6001 13.916 18.6001 13.9159 18.6001 13.9159L18.6008 11.1458V11.1456C18.6008 10.7495 18.4644 10.3187 18.2408 9.97842C18.0245 9.6493 17.6339 9.27584 17.0765 9.27584H16.0549H15.455L15.4549 9.87575L15.4542 14.6447Z" fill="#EE4036" stroke="#EE4036" stroke-width="1.2"/>
</svg>
