<svg width="22" height="22" viewBox="0 0 22 22" fill="none" xmlns="http://www.w3.org/2000/svg">
<path d="M21.4114 9.57097L21.4099 9.56946L12.4337 0.593654C12.0511 0.210807 11.5424 0 11.0014 0C10.4603 0 9.95159 0.210678 9.56883 0.593482L0.597319 9.56473C0.594311 9.56774 0.591303 9.57092 0.588294 9.57397C-0.197428 10.3642 -0.196053 11.6463 0.592162 12.4345C0.952231 12.7948 1.42787 13.0034 1.93638 13.0253C1.95701 13.0273 1.97786 13.0283 1.99883 13.0283H2.35658V19.634C2.35658 20.9412 3.42011 22.0047 4.72758 22.0047H8.23931C8.59525 22.0047 8.88398 21.7161 8.88398 21.36V16.1812C8.88398 15.5847 9.3692 15.0995 9.96569 15.0995H12.037C12.6335 15.0995 13.1187 15.5847 13.1187 16.1812V21.36C13.1187 21.7161 13.4073 22.0047 13.7633 22.0047H17.2751C18.5826 22.0047 19.6461 20.9412 19.6461 19.634V13.0283H19.9779C20.5188 13.0283 21.0275 12.8176 21.4104 12.4349C22.1995 11.6453 22.1998 10.361 21.4114 9.57097Z" fill="#242424"/>
</svg>
