<svg width="41" height="41" viewBox="0 0 41 41" fill="none" xmlns="http://www.w3.org/2000/svg">
<path d="M39.6201 20.3106C39.1922 46.0863 1.3983 46.0269 1 20.3106C1.4131 -5.40714 39.1759 -5.46661 39.6201 20.3106Z" fill="url(#paint0_linear_440_399)" stroke="white" stroke-width="1.5"/>
<path opacity="0.1" d="M39.6195 20.1585C39.8209 42.7753 7.51725 47.035 1.77271 25.7318C15.19 30.2738 31.0849 23.4561 37.441 11.0414C38.8719 13.8385 39.6209 16.9732 39.6195 20.1585V20.1585Z" fill="white"/>
<g opacity="0.2">
<path opacity="0.6" d="M10.336 31.2347C6.90261 30.8149 3.84958 26.89 4.69513 23.4025C6.97137 25.4637 9.32514 28.3382 10.336 31.2347Z" fill="white"/>
<path opacity="0.2" d="M30.1494 5.64474C27.1599 3.77063 23.5937 3.04015 20.1082 3.58792C27.8717 5.48967 34.5351 10.9696 36.0536 19.0228C38.0226 14.3109 34.127 8.18576 30.1494 5.64474Z" fill="white"/>
</g>
<path d="M28.0503 21.507C27.5423 21.5965 26.964 21.6726 26.3345 21.7383L27.44 28.3787C27.5135 28.8608 27.0678 29.2891 26.4911 29.2891C21.1649 29.3832 21.9703 29.5444 21.8297 25.0189C21.8185 22.4667 18.0998 22.5473 18.1318 25.0189C17.9976 29.5608 18.7701 29.3787 13.4663 29.2861C12.888 29.2861 12.4407 28.8548 12.5189 28.3697L13.0333 25.2801L13.6053 21.8473C12.5141 21.7338 10.4773 21.698 11.1243 20.4248C13.0717 17.6144 18.5257 10.9382 20.8134 12.1442C22.3822 12.9666 25.4223 16.0621 27.3138 18.3159C28.2276 19.6204 30.0728 20.9875 28.0503 21.507Z" fill="white"/>
<defs>
<linearGradient id="paint0_linear_440_399" x1="20.3101" y1="1" x2="20.3101" y2="39.6201" gradientUnits="userSpaceOnUse">
<stop stop-color="#0D1443"/>
<stop offset="1" stop-color="#273179"/>
</linearGradient>
</defs>
</svg>
