<svg width="43" height="43" viewBox="0 0 43 43" fill="none" xmlns="http://www.w3.org/2000/svg">
<path d="M40.6201 21.3106C40.1922 47.0863 2.3983 47.0269 2 21.3106C2.4131 -4.40714 40.1759 -4.46661 40.6201 21.3106Z" fill="url(#paint0_linear_440_399)" stroke="#78C444" stroke-width="3" stroke-linejoin="round"/>
<path opacity="0.1" d="M40.6195 21.1585C40.8209 43.7753 8.51725 48.035 2.77271 26.7318C16.19 31.2738 32.0849 24.4561 38.441 12.0414C39.8719 14.8385 40.6209 17.9732 40.6195 21.1585V21.1585Z" fill="#78C444"/>
<g opacity="0.2">
<path opacity="0.6" d="M11.336 32.2347C7.90261 31.8149 4.84958 27.89 5.69513 24.4025C7.97137 26.4637 10.3251 29.3382 11.336 32.2347Z" fill="#78C444"/>
<path opacity="0.2" d="M31.1494 6.64474C28.1599 4.77063 24.5937 4.04015 21.1082 4.58792C28.8717 6.48967 35.5351 11.9696 37.0536 20.0228C39.0226 15.3109 35.127 9.18576 31.1494 6.64474Z" fill="#78C444"/>
</g>
<path d="M29.0503 22.507C28.5423 22.5965 27.964 22.6726 27.3345 22.7383L28.44 29.3787C28.5135 29.8608 28.0678 30.2891 27.4911 30.2891C22.1649 30.3832 22.9703 30.5444 22.8297 26.0189C22.8185 23.4667 19.0998 23.5473 19.1318 26.0189C18.9976 30.5608 19.7701 30.3787 14.4663 30.2861C13.888 30.2861 13.4407 29.8548 13.5189 29.3697L14.0333 26.2801L14.6053 22.8473C13.5141 22.7338 11.4773 22.698 12.1243 21.4248C14.0717 18.6144 19.5257 11.9382 21.8134 13.1442C23.3822 13.9666 26.4223 17.0621 28.3138 19.3159C29.2276 20.6204 31.0728 21.9875 29.0503 22.507Z" fill="#78C444"/>
<defs>
<linearGradient id="paint0_linear_440_399" x1="21.3101" y1="2" x2="21.3101" y2="40.6201" gradientUnits="userSpaceOnUse">
<stop stop-color="#0D1443"/>
<stop offset="1" stop-color="#273179"/>
</linearGradient>
</defs>
</svg>
