<svg width="22" height="22" viewBox="0 0 22 22" fill="none" xmlns="http://www.w3.org/2000/svg">
<path d="M21.407 9.56893C21.4064 9.56845 21.4058 9.56777 21.4053 9.56725L12.4311 0.593398C12.0485 0.210633 11.54 0 10.999 0C10.458 0 9.94947 0.210633 9.56679 0.593355L0.597192 9.5627C0.594184 9.5657 0.591005 9.56888 0.588169 9.57193C-0.197386 10.362 -0.196011 11.6438 0.592036 12.4318C0.952028 12.7921 1.42735 13.0005 1.9358 13.0225C1.95659 13.0245 1.97743 13.0255 1.9984 13.0255H2.3559V19.6296C2.3559 20.9367 3.41938 22 4.7264 22H8.23742C8.59342 22 8.88195 21.7113 8.88195 21.3554V16.1777C8.88195 15.5814 9.3672 15.0963 9.96356 15.0963H12.0344C12.6308 15.0963 13.1159 15.5814 13.1159 16.1777V21.3555C13.1159 21.7113 13.4044 22 13.7604 22H17.2714C18.5786 22 19.6419 20.9367 19.6419 19.6297V13.0255H19.9736C20.5144 13.0255 21.023 12.8149 21.4058 12.432C22.1947 11.6428 22.195 10.3586 21.407 9.56888L21.407 9.56893ZM20.4943 11.5207C20.4261 11.5893 20.3449 11.6437 20.2556 11.6807C20.1662 11.7178 20.0704 11.7367 19.9736 11.7365H18.9974C18.6414 11.7365 18.3528 12.025 18.3528 12.3811V19.6297C18.3528 20.2259 17.8678 20.7109 17.2714 20.7109H14.4049V16.1777C14.4049 14.8707 13.3416 13.8072 12.0344 13.8072H9.96361C8.65641 13.8072 7.59293 14.8707 7.59293 16.1777V20.7109H4.72649C4.13026 20.7109 3.64501 20.2258 3.64501 19.6297V12.381C3.64501 12.025 3.35647 11.7365 3.00048 11.7365H2.04103C2.03097 11.7358 2.0209 11.7353 2.01082 11.7351C1.81879 11.7318 1.63871 11.6556 1.50379 11.5204C1.21676 11.2334 1.21676 10.7663 1.50379 10.4791C1.50392 10.4791 1.50392 10.479 1.50409 10.4788L1.50461 10.4783L10.4785 1.50477C10.5467 1.43615 10.6278 1.38174 10.7171 1.34472C10.8065 1.30769 10.9023 1.28877 10.999 1.28906C11.1956 1.28906 11.3804 1.36559 11.5195 1.50477L20.4914 10.4765L20.4956 10.4805C20.7811 10.7681 20.7806 11.2342 20.4943 11.5207Z" fill="#242424"/>
</svg>
