<svg width="14" height="14" viewBox="0 0 14 14" fill="none" xmlns="http://www.w3.org/2000/svg">
<path d="M7 1C5.81331 1 4.65328 1.35189 3.66658 2.01118C2.67989 2.67047 1.91085 3.60754 1.45673 4.7039C1.0026 5.80025 0.88378 7.00665 1.11529 8.17054C1.3468 9.33443 1.91825 10.4035 2.75736 11.2426C3.59648 12.0818 4.66557 12.6532 5.82946 12.8847C6.99335 13.1162 8.19974 12.9974 9.2961 12.5433C10.3925 12.0891 11.3295 11.3201 11.9888 10.3334C12.6481 9.34672 13 8.18669 13 7C12.9982 5.40925 12.3655 3.88417 11.2407 2.75935C10.1158 1.63452 8.59075 1.0018 7 1ZM7 12.2C5.97154 12.2 4.96617 11.895 4.11104 11.3236C3.2559 10.7523 2.5894 9.94013 2.19583 8.98995C1.80225 8.03978 1.69928 6.99423 1.89992 5.98553C2.10056 4.97683 2.59581 4.05028 3.32305 3.32304C4.05028 2.59581 4.97683 2.10056 5.98553 1.89992C6.99423 1.69927 8.03978 1.80225 8.98995 2.19583C9.94013 2.5894 10.7523 3.2559 11.3236 4.11103C11.895 4.96617 12.2 5.97154 12.2 7C12.1984 8.37864 11.65 9.70035 10.6752 10.6752C9.70036 11.65 8.37864 12.1984 7 12.2Z" fill="#242424" stroke="#242424" stroke-width="0.2"/>
<path d="M7.7998 9.3999H7.3998V5.7999C7.3998 5.69382 7.35766 5.59207 7.28265 5.51706C7.20763 5.44205 7.10589 5.3999 6.9998 5.3999H6.1998C6.09372 5.3999 5.99198 5.44205 5.91696 5.51706C5.84195 5.59207 5.7998 5.69382 5.7998 5.7999C5.7998 5.90599 5.84195 6.00773 5.91696 6.08274C5.99198 6.15776 6.09372 6.1999 6.1998 6.1999H6.5998V9.3999H6.1998C6.09372 9.3999 5.99198 9.44204 5.91696 9.51706C5.84195 9.59207 5.7998 9.69382 5.7998 9.7999C5.7998 9.90599 5.84195 10.0077 5.91696 10.0827C5.99198 10.1578 6.09372 10.1999 6.1998 10.1999H7.7998C7.90589 10.1999 8.00763 10.1578 8.08265 10.0827C8.15766 10.0077 8.1998 9.90599 8.1998 9.7999C8.1998 9.69382 8.15766 9.59207 8.08265 9.51706C8.00763 9.44204 7.90589 9.3999 7.7998 9.3999Z" fill="#242424" stroke="#242424" stroke-width="0.2"/>
<path d="M7.00059 4.5998C7.2215 4.5998 7.40059 4.42072 7.40059 4.1998C7.40059 3.97889 7.2215 3.7998 7.00059 3.7998C6.77967 3.7998 6.60059 3.97889 6.60059 4.1998C6.60059 4.42072 6.77967 4.5998 7.00059 4.5998Z" fill="#242424" stroke="#242424" stroke-width="0.2"/>
</svg>
