<svg width="100" height="100" viewBox="0 0 100 100" fill="none" xmlns="http://www.w3.org/2000/svg">
<path d="M50 96.0938C24.5313 96.0938 3.90625 75.4687 3.90625 50C3.90625 24.5313 24.5313 3.90625 50 3.90625C75.4687 3.90625 96.0938 24.5313 96.0938 50C96.0938 75.4687 75.4687 96.0938 50 96.0938ZM49.6094 12.8906C29.0625 12.8906 12.3828 29.5703 12.3828 50.1172C12.3828 70.6641 29.0625 87.3438 49.6094 87.3438C70.1562 87.3438 86.8359 70.6641 86.8359 50.1172C86.875 29.5313 70.1953 12.8906 49.6094 12.8906ZM60.3906 59.2578H46.3281C44.375 59.2578 42.8125 57.6953 42.8125 55.7422V34.375C42.8125 32.4219 44.375 30.8594 46.3281 30.8594C48.2812 30.8594 49.8437 32.4219 49.8437 34.375V52.2266H60.3906C62.3438 52.2266 63.9063 53.7891 63.9063 55.7422C63.9063 57.6953 62.3047 59.2578 60.3906 59.2578Z" fill="#F7C900"/>
</svg>
