<svg width="23" height="23" viewBox="0 0 23 23" fill="none" xmlns="http://www.w3.org/2000/svg">
<g clip-path="url(#clip0_1226_4780)">
<path d="M11.9258 23C18.0042 23 22.9316 17.8513 22.9316 11.5C22.9316 5.14873 18.0042 0 11.9258 0C5.84741 0 0.919922 5.14873 0.919922 11.5C0.919922 17.8513 5.84741 23 11.9258 23Z" fill="#E88102"/>
<path d="M11.9258 21.7871C17.9421 21.7871 22.8193 16.9099 22.8193 10.8936C22.8193 4.87721 17.9421 0 11.9258 0C5.90944 0 1.03223 4.87721 1.03223 10.8936C1.03223 16.9099 5.90944 21.7871 11.9258 21.7871Z" fill="#FDD835"/>
<path d="M16.2743 0.902832L1.93521 15.2374C1.45454 14.1368 1.15356 12.9419 1.06372 11.6886L12.721 0.0268555C13.9743 0.121191 15.1692 0.422168 16.2743 0.902832ZM21.4178 5.54775L6.58013 20.3854C5.65474 19.8643 4.81919 19.213 4.08696 18.4538L19.4907 3.05459C20.2454 3.78232 20.8967 4.62236 21.4178 5.54775ZM19.046 2.6458L3.68267 18.0091C3.44458 17.7306 3.21548 17.4386 3.00435 17.1376L18.1745 1.96748C18.4754 2.17861 18.7674 2.40771 19.046 2.6458ZM22.478 8.17568L9.20806 21.4456C8.80826 21.3423 8.41744 21.2165 8.0356 21.0727L22.1051 7.00322C22.2489 7.38506 22.3747 7.77588 22.478 8.17568Z" fill="white" fill-opacity="0.313726"/>
<path d="M22.8193 10.8936C22.8193 10.9699 22.8193 11.0418 22.8148 11.1182C22.698 5.20645 17.8689 0.449219 11.9258 0.449219C5.98262 0.449219 1.15352 5.20645 1.03672 11.1182C1.03672 11.0418 1.03223 10.9699 1.03223 10.8936C1.03223 4.87852 5.91074 0 11.9258 0C17.9408 0 22.8193 4.87852 22.8193 10.8936Z" fill="white" fill-opacity="0.313726"/>
<path d="M20.7754 11.3652C20.7754 16.0775 16.9525 19.9004 12.2402 19.9004C9.59434 19.9004 7.22695 18.692 5.65918 16.8008C7.21797 18.4854 9.44609 19.541 11.9258 19.541C16.6381 19.541 20.4609 15.7182 20.4609 11.0059C20.4609 8.93945 19.7287 7.04824 18.5068 5.57031C19.9129 7.09316 20.7754 9.12812 20.7754 11.3652Z" fill="white" fill-opacity="0.313726"/>
<path d="M11.9258 19.541C16.6396 19.541 20.4609 15.7197 20.4609 11.0059C20.4609 6.29202 16.6396 2.4707 11.9258 2.4707C7.21194 2.4707 3.39062 6.29202 3.39062 11.0059C3.39062 15.7197 7.21194 19.541 11.9258 19.541Z" fill="#F39E09"/>
<path d="M18.3945 5.43555C16.8986 4.14629 14.9535 3.36914 12.8242 3.36914C8.11191 3.36914 4.28906 7.19199 4.28906 11.9043C4.28906 14.0336 5.06621 15.9787 6.35547 17.4746C4.54062 15.9068 3.39062 13.5934 3.39062 11.0059C3.39062 6.29355 7.21348 2.4707 11.9258 2.4707C14.5088 2.4707 16.8268 3.6207 18.3945 5.43555Z" fill="#E88102"/>
<path d="M16.117 5.92969V5.25586L15.3354 5.92969H8.27817L7.7436 7.51094V8.18477H9.9852C10.695 8.20723 11.1711 8.48125 11.4182 9.01133H8.19282L7.73462 10.0939V10.7678H11.4811C11.2475 11.4955 10.7354 11.8684 9.94028 11.8818H7.97271L7.98169 13.49L11.809 18.0586H14.9401V17.3848L14.3831 17.25L11.5575 13.7865C12.411 13.526 13.0713 13.1531 13.534 12.6635C13.9967 12.1738 14.2932 11.5449 14.4235 10.7723H15.6499L16.1081 9.01582V8.34199L15.4612 9.01582H14.4415C14.3696 8.52617 14.2124 8.08145 13.9653 7.69062H15.6543L16.117 5.92969Z" fill="#DB6704"/>
<path d="M15.6589 7.01231H13.9698C14.2124 7.40313 14.3741 7.84785 14.446 8.3375H16.1126L15.6544 10.0939H14.428C14.2978 10.8666 14.0058 11.4955 13.5386 11.9852C13.0759 12.4748 12.4155 12.8477 11.562 13.1082L14.9446 17.259V17.3848H11.8136L7.99072 12.8207L7.98174 11.2125H9.94932C10.7444 11.1945 11.2565 10.8262 11.4901 10.0939H7.74365L8.20186 8.3375H11.4272C11.1847 7.81191 10.704 7.5334 9.99424 7.51094H7.75264L8.28721 5.25586H16.1261L15.6589 7.01231Z" fill="#FDD835"/>
<path d="M8.19287 8.3375H8.83525L7.96826 9.20449L8.19287 8.3375ZM11.9169 5.25586L9.66182 7.51094H7.74365L8.27822 5.25586H11.9169ZM15.6589 7.01231H15.5286L15.7038 6.8416L15.6589 7.01231ZM16.1081 8.3375L15.6499 10.0939H14.4235C14.2978 10.8666 14.0013 11.4955 13.5341 11.9852C13.0714 12.4748 12.411 12.8477 11.5575 13.1082L12.5907 14.3705L10.7938 16.1674L8.77686 13.7596L14.4056 8.13086C14.419 8.19824 14.4325 8.26562 14.4415 8.33301L16.1081 8.3375ZM9.94483 11.2125C10.1874 11.208 10.4075 11.1676 10.5962 11.0957L8.39053 13.3014L7.98623 12.8207L7.98174 12.1604L8.92959 11.2125H9.94483ZM16.1171 5.25586L16.0048 5.68711L14.6796 7.01231H13.9698C14.0642 7.16055 14.145 7.31777 14.2124 7.48398L11.4228 10.2736C11.4452 10.2197 11.4677 10.1568 11.4856 10.0984H10.0481L14.8862 5.25586H16.1171ZM14.2439 16.4055L13.269 17.3848H11.8091L11.7687 17.3354L13.5521 15.552L14.2439 16.4055Z" fill="white" fill-opacity="0.313726"/>
<path d="M19.0459 6.29355C13.5205 8.23418 9.08223 12.4973 6.90801 17.9103C6.71934 17.7711 6.53516 17.6273 6.35547 17.4701C5.06621 15.9742 4.28906 14.0291 4.28906 11.9043C4.28906 7.19199 8.11191 3.36914 12.8242 3.36914C14.9535 3.36914 16.8986 4.14629 18.39 5.43555C18.6281 5.70957 18.8438 5.99707 19.0459 6.29355Z" fill="white" fill-opacity="0.145098"/>
</g>
<defs>
<clipPath id="clip0_1226_4780">
<rect width="23" height="23" fill="white"/>
</clipPath>
</defs>
</svg>
