<svg width="24" height="24" viewBox="0 0 24 24" fill="none" xmlns="http://www.w3.org/2000/svg">
<path d="M6.06077 8.49141C5.89319 8.32383 5.62076 8.32383 5.45322 8.49141C5.28521 8.65942 5.28521 8.93142 5.45322 9.099C5.62081 9.26701 5.89323 9.26701 6.06077 9.099C6.22874 8.93142 6.22874 8.65942 6.06077 8.49141ZM11.8798 20.2381C12.0693 19.9815 12.1717 19.6723 12.1717 19.3473C12.1717 18.518 11.497 17.8434 10.6678 17.8434H3.36323C2.96134 17.8434 2.58368 17.9998 2.29978 18.2838C2.01575 18.5677 1.85935 18.9454 1.85935 19.3473C1.85906 19.6677 1.96171 19.9798 2.15218 20.2376C1.46798 20.5973 1 21.3149 1 22.1401V22.5698C1 22.8072 1.19242 22.9995 1.42969 22.9995H12.6013C12.8386 22.9995 13.031 22.8072 13.031 22.5698V22.1401C13.031 21.3153 12.5635 20.598 11.8798 20.2381ZM2.90741 18.8913C2.96714 18.8313 3.03818 18.7837 3.11642 18.7513C3.19466 18.719 3.27855 18.7024 3.36323 18.7027H10.6678C11.0232 18.7027 11.3123 18.9918 11.3123 19.3472C11.3123 19.5195 11.2452 19.6813 11.1236 19.803C11.0638 19.8631 10.9928 19.9106 10.9146 19.943C10.8363 19.9754 10.7524 19.992 10.6677 19.9917H3.36323C3.00783 19.9917 2.71873 19.7026 2.71873 19.3472C2.71873 19.1749 2.78572 19.013 2.90741 18.8913ZM1.85935 22.1401C1.85935 21.4294 2.43763 20.8511 3.14839 20.8511H10.8826C11.5934 20.8511 12.1717 21.4294 12.1717 22.1401H1.85935Z" fill="#0D1442" stroke="#0D1442" stroke-width="0.2"/>
<path d="M22.6005 19.0522C22.4546 18.8261 22.2805 18.6261 22.0829 18.4578L20.0752 16.7067C20.0593 16.6827 20.041 16.6604 20.0207 16.64C19.9867 16.6062 19.9474 16.5784 19.9042 16.5576L18.69 15.4986L13.0701 10.5962C13.3001 10.3557 13.4268 10.0412 13.4268 9.70678C13.4268 9.36226 13.2927 9.03848 13.0489 8.79476C12.9454 8.69134 12.8249 8.6065 12.6927 8.54395L13.2126 8.02401C13.3575 8.06265 13.5067 8.08228 13.6567 8.08241C14.0967 8.08237 14.5368 7.91487 14.8718 7.57988C15.1966 7.25516 15.3754 6.82353 15.3754 6.36449C15.3754 5.90545 15.1966 5.47382 14.8719 5.1491L11.226 1.50331C10.9013 1.17859 10.4696 0.999756 10.0104 0.999756C9.55147 0.999756 9.11992 1.17859 8.79525 1.50331C8.34647 1.95209 8.19875 2.58928 8.35112 3.16258L3.16363 8.35002C3.0185 8.31138 2.86895 8.29181 2.71877 8.2918C2.25951 8.2918 1.82805 8.47051 1.50359 8.79493C0.833439 9.46508 0.833439 10.5555 1.50359 11.2257L5.14942 14.8716C5.48454 15.2067 5.92467 15.3742 6.36481 15.3742C6.80499 15.3742 7.24512 15.2067 7.58024 14.8716C8.02902 14.4228 8.17675 13.7856 8.02438 13.2123L8.54323 12.6934C8.60649 12.8253 8.69172 12.9455 8.79529 13.0488C9.03876 13.2923 9.36244 13.4264 9.70689 13.4264C10.041 13.4264 10.3553 13.2999 10.5962 13.0701L16.5821 19.9476C16.5986 19.9733 16.6178 19.9979 16.6404 20.0204C16.648 20.0281 16.6562 20.0351 16.6643 20.0421L18.448 22.0914C18.4929 22.1444 18.5399 22.1954 18.589 22.2445C19.0789 22.7342 19.7259 22.9999 20.4053 22.9999C20.525 22.9999 20.6459 22.9917 20.767 22.9749C21.576 22.863 22.2753 22.3789 22.6853 21.6468C23.1345 20.8445 23.101 19.8258 22.6005 19.0522ZM9.40296 2.11099C9.48255 2.03093 9.57722 1.96745 9.68149 1.92422C9.78577 1.88099 9.89758 1.85888 10.0105 1.85914C10.1234 1.85884 10.2353 1.88094 10.3396 1.92417C10.444 1.9674 10.5387 2.0309 10.6184 2.11099L14.2642 5.75682C14.3443 5.83643 14.4078 5.93114 14.451 6.03546C14.4942 6.13977 14.5163 6.25162 14.516 6.36453C14.5163 6.47745 14.4942 6.58931 14.451 6.69362C14.4078 6.79794 14.3443 6.89264 14.2642 6.97225C13.9292 7.30728 13.3841 7.30728 13.0492 6.97225L9.40318 3.32625L9.40296 3.32604C9.06793 2.99105 9.06793 2.44598 9.40296 2.11099ZM6.97257 14.2639C6.63749 14.599 6.09217 14.599 5.75709 14.2639L2.11126 10.6181C1.77615 10.283 1.77615 9.73776 2.11126 9.4026C2.27334 9.24048 2.48914 9.15119 2.71877 9.15119C2.94835 9.15119 3.16402 9.24044 3.32605 9.40243L6.97253 13.0489C7.3076 13.3839 7.3076 13.929 6.97257 14.2639ZM8.78167 11.2397L7.5802 12.4412L3.93398 8.79502L8.79525 3.93367L12.4414 7.57988L11.2378 8.78359C11.2338 8.78728 11.23 8.79089 11.2259 8.79497L8.79649 11.2244C8.79147 11.2294 8.78661 11.2345 8.78167 11.2397ZM10.3159 12.1361L10.3134 12.1386L10.0108 12.4412C9.97098 12.4813 9.9236 12.513 9.87143 12.5346C9.81925 12.5562 9.76331 12.5672 9.70684 12.567C9.65038 12.5672 9.59444 12.5562 9.54227 12.5346C9.4901 12.513 9.44274 12.4812 9.40292 12.4412C9.36285 12.4013 9.33107 12.3539 9.30945 12.3017C9.28782 12.2495 9.27677 12.1935 9.27693 12.137C9.27693 12.0245 9.31986 11.9187 9.39777 11.8388L11.8385 9.39813C12.0058 9.23545 12.2762 9.23747 12.4415 9.4026C12.4816 9.44246 12.5133 9.48987 12.5349 9.54208C12.5566 9.59429 12.5676 9.65027 12.5674 9.70678C12.5676 9.76324 12.5566 9.81917 12.535 9.87131C12.5133 9.92346 12.4816 9.97079 12.4415 10.0105L12.1406 10.3114C12.1386 10.3134 12.1365 10.3154 12.1345 10.3175L10.3159 12.1361ZM11.2057 12.4616L12.4616 11.2058L17.7787 15.8437L15.8385 17.784L11.2057 12.4616ZM16.404 18.4338L18.4278 16.4099L19.0769 16.9761L16.9695 19.0836L16.404 18.4338ZM21.9355 21.227C21.6582 21.7222 21.1894 22.0489 20.6492 22.1237C20.1103 22.1983 19.5808 22.0208 19.1965 21.6367C19.1637 21.604 19.1323 21.5698 19.1024 21.5344L19.0982 21.5296L17.535 19.7334L19.726 17.5423L21.52 19.1071L21.5241 19.1106C21.6584 19.2248 21.7776 19.3619 21.8787 19.5186C22.2036 20.0207 22.2264 20.7074 21.9355 21.227Z" fill="#EE4036" stroke="#EE4036" stroke-width="0.2"/>
<path d="M9.09862 5.453C8.93078 5.2852 8.65879 5.2852 8.49095 5.453L6.66784 7.2761C6.50004 7.4439 6.50004 7.71598 6.66784 7.88373C6.70769 7.9237 6.75505 7.95539 6.8072 7.97699C6.85934 7.99859 6.91524 8.00967 6.97168 8.00959C7.02811 8.00966 7.08401 7.99857 7.13615 7.97697C7.18829 7.95537 7.23565 7.92369 7.27551 7.88373L9.09862 6.06063C9.26642 5.89287 9.26642 5.62083 9.09862 5.453Z" fill="#EE4036" stroke="#EE4036" stroke-width="0.2"/>
</svg>
