<svg width="18" height="18" viewBox="0 0 18 18" fill="none" xmlns="http://www.w3.org/2000/svg">
<path d="M10.8289 5.11277C11.0108 5.11277 11.1852 5.04053 11.3138 4.91193C11.4424 4.78333 11.5146 4.60891 11.5146 4.42704V3.51272C11.5141 2.84602 11.2491 2.20676 10.7777 1.73533C10.3062 1.2639 9.66697 0.998836 9.00026 0.998352H3.51437C2.84767 0.998836 2.20841 1.2639 1.73698 1.73533C1.26555 2.20676 1.00048 2.84602 1 3.51272V14.4845C1.00048 15.1512 1.26555 15.7905 1.73698 16.2619C2.20841 16.7333 2.84767 16.9984 3.51437 16.9989H9.00026C9.66697 16.9984 10.3062 16.7333 10.7777 16.2619C11.2491 15.7905 11.5141 15.1512 11.5146 14.4845V13.5702C11.5146 13.3883 11.4424 13.2139 11.3138 13.0853C11.1852 12.9567 11.0108 12.8845 10.8289 12.8845C10.647 12.8845 10.4726 12.9567 10.344 13.0853C10.2154 13.2139 10.1432 13.3883 10.1432 13.5702V14.4845C10.1432 15.1145 9.63023 15.6274 9.00026 15.6274H3.51437C2.88441 15.6274 2.37147 15.1145 2.37147 14.4845V3.51272C2.37147 2.88276 2.88441 2.36983 3.51437 2.36983H9.00026C9.63023 2.36983 10.1432 2.88276 10.1432 3.51272V4.42704C10.1432 4.80556 10.4504 5.11277 10.8289 5.11277Z" fill="#0D1442" stroke="white" stroke-width="0.3"/>
<path d="M16.7998 8.5138L14.0569 5.77085C13.9282 5.64221 13.7538 5.56994 13.5718 5.56994C13.3899 5.56994 13.2154 5.64221 13.0868 5.77085C12.9582 5.89949 12.8859 6.07397 12.8859 6.2559C12.8859 6.43782 12.9582 6.6123 13.0868 6.74094L14.6594 8.31356H5.34345C5.16158 8.31356 4.98716 8.38581 4.85856 8.51441C4.72996 8.64301 4.65771 8.81743 4.65771 8.9993C4.65771 9.18117 4.72996 9.35559 4.85856 9.48419C4.98716 9.61279 5.16158 9.68504 5.34345 9.68504H14.6594L13.0868 11.2577C12.9618 11.3869 12.8926 11.5601 12.8941 11.7399C12.8956 11.9197 12.9676 12.0917 13.0947 12.2189C13.2218 12.3461 13.3937 12.4183 13.5735 12.42C13.7533 12.4216 13.9266 12.3526 14.056 12.2277L16.7989 9.4848C16.8626 9.42112 16.9132 9.34551 16.9477 9.26228C16.9822 9.17905 16.9999 9.08985 16.9999 8.99976C16.9999 8.90967 16.9822 8.82046 16.9477 8.73724C16.9132 8.65401 16.8626 8.57839 16.7989 8.51471L16.7998 8.5138Z" fill="#EE4036" stroke="white" stroke-width="0.3"/>
</svg>
