<svg width="252" height="435" viewBox="0 0 252 435" fill="none" xmlns="http://www.w3.org/2000/svg">
<path d="M17.3093 86.6435L1.40528 86.6721C1.28769 86.6721 1.17491 86.6254 1.09176 86.5423C1.00862 86.4591 0.961914 86.3463 0.961914 86.2287L0.97623 0.501395C0.975776 0.413373 1.00153 0.327207 1.05021 0.253874C1.0989 0.180541 1.16829 0.123355 1.24959 0.0896088C1.33089 0.0558627 1.42041 0.0470829 1.50671 0.064381C1.59302 0.081679 1.67223 0.124276 1.73424 0.186745L66.1084 65.4333C66.1498 65.4744 66.1989 65.507 66.2529 65.5291C66.3069 65.5511 66.3647 65.5624 66.423 65.5621L82.2413 65.5907C82.3113 65.5901 82.3802 65.573 82.4424 65.5407C82.5045 65.5084 82.5581 65.4618 82.5988 65.4048L125.72 7.40936C125.761 7.35319 125.815 7.30752 125.877 7.27604C125.939 7.24456 126.008 7.22816 126.078 7.22816C126.147 7.22816 126.216 7.24456 126.278 7.27604C126.34 7.30752 126.394 7.35319 126.435 7.40936L169.513 65.4048C169.555 65.4592 169.61 65.503 169.672 65.5328C169.734 65.5626 169.802 65.5775 169.871 65.5764L185.689 65.5907C185.747 65.591 185.805 65.5798 185.859 65.5577C185.913 65.5356 185.962 65.5031 186.004 65.462L250.449 0.129546C250.511 0.0670764 250.591 0.0244798 250.677 0.00718179C250.763 -0.0101162 250.853 -0.00133646 250.934 0.0324097C251.015 0.0661558 251.085 0.123342 251.133 0.196674C251.182 0.270007 251.208 0.356174 251.207 0.444196L251.25 86.2287C251.25 86.3463 251.204 86.4591 251.12 86.5423C251.037 86.6254 250.925 86.6721 250.807 86.6721H234.874C234.757 86.6721 234.644 86.6254 234.561 86.5423C234.478 86.4591 234.431 86.3463 234.431 86.2287L234.445 43.5224C234.446 43.4344 234.42 43.3482 234.371 43.2749C234.322 43.2015 234.253 43.1444 234.172 43.1106C234.091 43.0769 234.001 43.0681 233.915 43.0854C233.828 43.1027 233.749 43.1453 233.687 43.2077L190.681 84.87C190.639 84.9111 190.59 84.9437 190.536 84.9658C190.482 84.9878 190.424 84.9991 190.366 84.9987H160.031C159.961 84.9982 159.892 84.9811 159.83 84.9488C159.768 84.9164 159.714 84.8699 159.673 84.8128L126.406 38.5595C126.365 38.5034 126.311 38.4577 126.249 38.4262C126.187 38.3947 126.119 38.3783 126.049 38.3783C125.979 38.3783 125.911 38.3947 125.848 38.4262C125.786 38.4577 125.733 38.5034 125.691 38.5595L92.4387 84.8271C92.3981 84.8842 92.3444 84.9308 92.2823 84.9631C92.2201 84.9954 92.1512 85.0125 92.0812 85.013L61.7748 84.9987C61.7165 84.9991 61.6587 84.9878 61.6047 84.9658C61.5507 84.9437 61.5016 84.9111 61.4602 84.87L18.4678 43.2506C18.4058 43.1882 18.3266 43.1456 18.2403 43.1283C18.1539 43.111 18.0645 43.1198 17.9832 43.1535C17.9019 43.1873 17.8324 43.2444 17.7838 43.3178C17.7351 43.3911 17.7093 43.4773 17.7098 43.5653L17.7527 86.2001C17.7527 86.3177 17.706 86.4305 17.6228 86.5136C17.5397 86.5968 17.4269 86.6435 17.3093 86.6435Z" fill="url(#paint0_linear_626_591)"/>
<path d="M68.8715 286.66L68.9145 318.368C68.9145 318.503 68.8878 318.637 68.836 318.762C68.7841 318.887 68.7081 319 68.6123 319.096C68.5165 319.191 68.4028 319.267 68.2776 319.319C68.1525 319.371 68.0183 319.397 67.8828 319.397L1.69601 319.383C1.13239 319.383 0.850586 319.102 0.850586 318.539L0.864929 97.7991C0.864929 97.708 0.901144 97.6207 0.965638 97.5564C1.03013 97.492 1.11761 97.4558 1.20882 97.4558H116.23C116.956 97.4558 117.319 97.8182 117.319 98.5428L117.29 145.096C117.29 145.659 117.013 145.94 116.459 145.94L50.3581 146.412C49.6799 146.412 49.3407 146.751 49.3407 147.428L49.3981 206.439C49.3981 206.547 49.4196 206.655 49.4614 206.756C49.5031 206.857 49.5643 206.948 49.6415 207.025C49.7186 207.102 49.8103 207.163 49.9111 207.205C50.0119 207.247 50.12 207.268 50.2292 207.268L65.7334 207.211C66.2397 207.201 66.4929 207.454 66.4929 207.969L66.5072 251.862C66.5072 252.377 66.2493 252.635 65.7334 252.635L51.92 252.62C51.6844 252.62 51.4584 252.528 51.2918 252.365C51.1252 252.201 51.0316 251.979 51.0316 251.748L51.0889 221.542C51.0889 221.036 50.831 220.784 50.3151 220.784L34.7822 220.812C34.2282 220.822 33.9511 220.545 33.9511 219.983L33.9798 130.809C33.9798 130.227 34.2712 129.936 34.8539 129.936L101.872 129.979C102.34 129.979 102.574 129.741 102.574 129.264V114.218C102.574 113.732 102.33 113.489 101.843 113.489L15.2085 113.503C14.7213 113.503 14.4777 113.741 14.4777 114.218V301.977C14.4777 302.171 14.5532 302.356 14.6875 302.493C14.8219 302.63 15.0042 302.707 15.1942 302.707L53.4962 302.692C53.8497 302.692 54.0264 302.516 54.0264 302.163L54.0551 271.499C54.0551 271.089 54.2557 270.884 54.6569 270.884H86.7831C87.4995 270.884 87.8578 270.531 87.8578 269.826L87.8434 239.276C87.8434 238.685 88.1395 238.394 88.7318 238.404L116.301 238.49C116.564 238.49 116.815 238.386 117 238.201C117.186 238.016 117.29 237.765 117.29 237.503L117.261 227.692C117.261 227.015 117.027 226.433 116.559 225.947L102.431 211.387C101.732 210.671 101.341 209.712 101.342 208.713L101.356 176.275C101.356 175.655 101.045 175.35 100.424 175.36C93.0784 175.398 85.6224 175.403 78.0566 175.374C77.9801 175.374 77.9133 175.35 77.8559 175.303C76.7765 174.13 73.6241 169.668 68.3987 161.916C68.3903 161.908 68.3851 161.898 68.3837 161.887C68.3823 161.876 68.3847 161.865 68.3908 161.854C68.3968 161.844 68.4061 161.835 68.4177 161.828C68.4292 161.821 68.4425 161.817 68.456 161.816C84.8104 161.806 100.84 161.797 116.545 161.787C116.746 161.787 116.94 161.868 117.082 162.013C117.224 162.158 117.304 162.355 117.304 162.559V205.423C117.304 205.881 117.534 206.11 117.992 206.11L134.098 206.124C134.372 206.124 134.634 206.014 134.828 205.818C135.021 205.622 135.13 205.357 135.13 205.08L135.159 162.531C135.159 162.045 135.402 161.801 135.889 161.801H183.735C183.772 161.8 183.809 161.809 183.841 161.827C183.874 161.846 183.9 161.873 183.918 161.906C183.936 161.938 183.945 161.975 183.942 162.012C183.94 162.05 183.928 162.086 183.907 162.116L174.994 175.117C174.931 175.201 174.85 175.269 174.755 175.316C174.661 175.363 174.556 175.388 174.449 175.388H152.01C151.408 175.388 151.102 175.689 151.093 176.29C151.045 186.959 151.064 197.5 151.15 207.912C151.16 209.533 150.553 210.948 149.33 212.159C144.649 216.784 140.179 221.356 135.918 225.875C135.374 226.457 135.101 227.143 135.101 227.935L135.159 237.474C135.168 238.123 135.493 238.447 136.133 238.447L163.889 238.404C164.347 238.404 164.577 238.628 164.577 239.076L164.591 270.527C164.591 270.621 164.629 270.712 164.696 270.78C164.763 270.847 164.854 270.884 164.949 270.884H197.448C198.021 270.884 198.308 271.175 198.308 271.757L198.336 301.477C198.336 302.287 198.737 302.692 199.54 302.692L237.369 302.707C237.502 302.707 237.63 302.654 237.724 302.56C237.818 302.466 237.871 302.339 237.871 302.206L237.828 114.318C237.828 113.765 237.551 113.489 236.997 113.489H150.606C150.109 113.489 149.86 113.736 149.86 114.232L149.875 129.264C149.875 129.741 150.114 129.979 150.591 129.979L217.623 129.936C217.729 129.936 217.833 129.957 217.931 129.997C218.028 130.037 218.116 130.096 218.191 130.171C218.265 130.245 218.324 130.333 218.365 130.431C218.405 130.528 218.426 130.632 218.426 130.737L218.44 220.397C218.44 220.703 218.287 220.85 217.982 220.841L202.105 220.784C201.56 220.784 201.288 221.051 201.288 221.585L201.317 251.805C201.317 252.358 201.04 252.635 200.486 252.635L186.844 252.62C186.185 252.62 185.855 252.287 185.855 251.619L185.827 208.126C185.827 207.506 186.132 207.197 186.744 207.197L202.549 207.239C202.655 207.239 202.758 207.197 202.833 207.122C202.908 207.047 202.95 206.945 202.95 206.839V146.841C202.95 146.745 202.913 146.653 202.846 146.583C202.779 146.514 202.688 146.473 202.592 146.469L136.176 145.926C135.488 145.926 135.144 145.587 135.144 144.911V98.3712C135.144 98.1284 135.239 97.8956 135.409 97.7239C135.578 97.5523 135.808 97.4558 136.047 97.4558L250.91 97.4415C251.104 97.4415 251.29 97.5184 251.427 97.6552C251.564 97.7919 251.641 97.9775 251.641 98.1709L251.569 318.882C251.569 318.95 251.556 319.017 251.529 319.079C251.502 319.142 251.463 319.199 251.414 319.246C251.365 319.294 251.306 319.332 251.242 319.358C251.178 319.384 251.109 319.397 251.039 319.397L184.193 319.383C184.007 319.383 183.828 319.311 183.697 319.182C183.565 319.053 183.491 318.879 183.491 318.696L183.534 286.288C183.536 286.204 183.521 286.121 183.489 286.043C183.458 285.965 183.411 285.894 183.35 285.834C183.29 285.774 183.219 285.726 183.139 285.693C183.06 285.661 182.975 285.644 182.889 285.644L152.411 285.63C151.876 285.63 151.609 285.363 151.609 284.829L151.623 254.48C151.623 254.32 151.559 254.168 151.447 254.055C151.334 253.942 151.181 253.879 151.021 253.879L101.614 253.85C101.069 253.85 100.797 254.122 100.797 254.666L100.811 285.043C100.811 285.125 100.795 285.207 100.763 285.282C100.731 285.358 100.685 285.426 100.626 285.483C100.567 285.541 100.498 285.586 100.421 285.616C100.345 285.646 100.263 285.66 100.181 285.658L69.9176 285.616C69.2202 285.616 68.8715 285.964 68.8715 286.66Z" fill="white"/>
<path d="M118.98 304.839V274.804C118.98 274.641 119.045 274.484 119.161 274.369C119.276 274.254 119.432 274.189 119.595 274.189L132.596 274.146C132.759 274.146 132.916 274.211 133.031 274.326C133.146 274.442 133.211 274.598 133.211 274.761L133.168 304.839C133.168 305.002 133.233 305.158 133.348 305.274C133.464 305.389 133.62 305.454 133.783 305.454H163.789C163.952 305.454 164.109 305.518 164.224 305.634C164.339 305.749 164.404 305.906 164.404 306.069L164.433 319.127C164.433 319.29 164.368 319.446 164.253 319.561C164.137 319.677 163.981 319.742 163.818 319.742L88.3738 319.727C88.2107 319.727 88.0543 319.662 87.9389 319.547C87.8236 319.432 87.7588 319.275 87.7588 319.112L87.7731 306.083C87.7731 305.92 87.8379 305.763 87.9532 305.648C88.0686 305.533 88.225 305.468 88.3881 305.468L118.365 305.454C118.529 305.454 118.685 305.389 118.8 305.274C118.916 305.158 118.98 305.002 118.98 304.839Z" fill="white"/>
<path d="M1 333C1 331.895 1.89543 331 3 331H250C251.105 331 252 331.895 252 333V385C252 386.105 251.105 387 250 387H3C1.89543 387 1 386.105 1 385V333Z" fill="url(#paint1_linear_626_591)"/>
<path d="M227.055 339.206H237.031C243.284 339.206 246.411 341.496 246.411 346.075V371.994C246.411 376.615 243.284 378.926 237.031 378.926H227.055C220.752 378.926 217.601 376.615 217.601 371.994V346.075C217.601 341.496 220.752 339.206 227.055 339.206ZM235.765 370.807V347.325C235.765 346.284 235.12 345.763 233.83 345.763H230.256C228.916 345.763 228.246 346.284 228.246 347.325V370.807C228.246 371.848 228.916 372.368 230.256 372.368H233.83C235.12 372.368 235.765 371.848 235.765 370.807Z" fill="white"/>
<path d="M185.977 372.368H199.6V378.926H175.405V339.206H185.977V372.368Z" fill="white"/>
<path d="M146.835 339.206H157.406V378.926H146.835V339.206Z" fill="white"/>
<path d="M128.834 339.206V345.763H120.124V378.926H109.478V345.763H100.843V339.206H128.834Z" fill="white"/>
<path d="M63.4848 339.206H73.4605C79.7139 339.206 82.8406 341.496 82.8406 346.075V371.994C82.8406 376.615 79.7139 378.926 73.4605 378.926H63.4848C57.1818 378.926 54.0303 376.615 54.0303 371.994V346.075C54.0303 341.496 57.1818 339.206 63.4848 339.206ZM72.1949 370.807V347.325C72.1949 346.284 71.5497 345.763 70.2594 345.763H66.686C65.346 345.763 64.676 346.284 64.676 347.325V370.807C64.676 371.848 65.346 372.368 66.686 372.368H70.2594C71.5497 372.368 72.1949 371.848 72.1949 370.807Z" fill="white"/>
<path d="M36.0267 352.071H25.3811V346.887C25.3811 345.846 24.7111 345.326 23.371 345.326H20.3188C18.9788 345.326 18.3088 345.846 18.3088 346.887V371.244C18.3088 371.827 18.4577 372.243 18.7554 372.493C19.0532 372.701 19.5743 372.806 20.3188 372.806H23.371C24.1155 372.806 24.6366 372.701 24.9344 372.493C25.2322 372.243 25.3811 371.827 25.3811 371.244V363.5H21.6588V357.567H36.0267V372.056C36.0267 376.636 32.9 378.926 26.6466 378.926H17.0432C10.7898 378.926 7.66309 376.636 7.66309 372.056V346.075C7.66309 341.496 10.7898 339.206 17.0432 339.206H26.6466C32.9 339.206 36.0267 341.496 36.0267 346.075V352.071Z" fill="white"/>
<path d="M251.998 411.767H244.957V407.436C244.957 406.567 244.513 406.132 243.627 406.132H241.608C240.722 406.132 240.279 406.567 240.279 407.436V427.787C240.279 428.274 240.377 428.622 240.574 428.831C240.771 429.005 241.116 429.092 241.608 429.092H243.627C244.12 429.092 244.464 429.005 244.661 428.831C244.858 428.622 244.957 428.274 244.957 427.787V421.317H242.495V416.359H251.998V428.466C251.998 432.292 249.93 434.206 245.794 434.206H239.442C235.305 434.206 233.237 432.292 233.237 428.466V406.758C233.237 402.931 235.305 401.018 239.442 401.018H245.794C249.93 401.018 251.998 402.931 251.998 406.758V411.767Z" fill="white"/>
<path d="M211.309 401.018H217.76V434.206H211.457L204.612 414.324V434.206H198.211V401.018H204.563L211.309 420.847V401.018Z" fill="white"/>
<path d="M175.292 401.018H182.284V434.206H175.292V401.018Z" fill="white"/>
<path d="M161.234 401.018L154.931 417.403L161.234 434.206H153.651L147.594 417.403L153.651 401.018H161.234ZM140.454 434.206V401.018H147.446V434.206H140.454Z" fill="white"/>
<path d="M116.027 428.726H126.072V434.206H108.985V401.018H125.678V406.497H116.027V414.585H124.25V420.064H116.027V428.726Z" fill="white"/>
<path d="M94.644 401.018V406.497L83.4663 428.726H94.3486V434.206H76.1787V428.726L87.3564 406.497H76.7696V401.018H94.644Z" fill="white"/>
<path d="M56.7553 434.206L55.672 428.205H48.5321L47.4488 434.206H40.5059L47.5965 401.018H56.5583L63.846 434.206H56.7553ZM49.5169 422.778H54.638L52.0774 408.741L49.5169 422.778Z" fill="white"/>
<path d="M7.20336 434.206H0.999023V401.018H8.68058L13.8509 419.803L19.0211 401.018H26.7027V434.206H20.4984V411.924L16.4606 427.005H11.2411L7.20336 411.976V434.206Z" fill="white"/>
<defs>
<linearGradient id="paint0_linear_626_591" x1="236.293" y1="43.3353" x2="0.961913" y2="43.3353" gradientUnits="userSpaceOnUse">
<stop offset="0.87" stop-color="#FF8B00"/>
<stop offset="1" stop-color="#995300"/>
</linearGradient>
<linearGradient id="paint1_linear_626_591" x1="237" y1="359" x2="0.999999" y2="359" gradientUnits="userSpaceOnUse">
<stop stop-color="#FF8B00"/>
<stop offset="1" stop-color="#995300"/>
</linearGradient>
</defs>
</svg>
