<svg width="18" height="18" viewBox="0 0 18 18" fill="none" xmlns="http://www.w3.org/2000/svg">
<g clip-path="url(#clip0_34_284)">
<path d="M9 0C4.02943 0 0 4.02943 0 9C0 13.9706 4.02943 18 9 18C13.9706 18 18 13.9706 18 9C18 4.02943 13.9706 0 9 0ZM9 16.875C4.65075 16.875 1.125 13.3492 1.125 9C1.125 4.65075 4.65075 1.125 9 1.125C13.3492 1.125 16.875 4.65075 16.875 9C16.875 13.3492 13.3492 16.875 9 16.875Z" fill="#0D1442"/>
<path d="M9 10.125C9.62132 10.125 10.125 9.62132 10.125 9C10.125 8.37868 9.62132 7.875 9 7.875C8.37868 7.875 7.875 8.37868 7.875 9C7.875 9.62132 8.37868 10.125 9 10.125Z" fill="#EE4036"/>
<path d="M12.9375 10.125C13.5588 10.125 14.0625 9.62132 14.0625 9C14.0625 8.37868 13.5588 7.875 12.9375 7.875C12.3162 7.875 11.8125 8.37868 11.8125 9C11.8125 9.62132 12.3162 10.125 12.9375 10.125Z" fill="#EE4036"/>
<path d="M5.0625 10.125C5.68382 10.125 6.1875 9.62132 6.1875 9C6.1875 8.37868 5.68382 7.875 5.0625 7.875C4.44118 7.875 3.9375 8.37868 3.9375 9C3.9375 9.62132 4.44118 10.125 5.0625 10.125Z" fill="#EE4036"/>
</g>
<defs>
<clipPath id="clip0_34_284">
<rect width="18" height="18" fill="white"/>
</clipPath>
</defs>
</svg>
