<svg width="29" height="20" viewBox="0 0 29 20" fill="none" xmlns="http://www.w3.org/2000/svg">
<path d="M12.5 13.3508C13.3472 13.3508 14.0179 12.7154 14.0179 11.8682C14.0179 11.0563 13.3825 10.3856 12.5706 10.3503L10.2394 10.1738C10.1335 10.1738 10.0276 10.1385 9.92174 10.0679C9.32164 9.64433 7.02714 8.12643 6.78004 7.94993C6.46234 7.73813 6.10934 7.52633 5.86224 7.45573C4.87384 7.13803 2.33224 6.89093 1.62624 8.55003C0.884943 10.315 0.990843 14.9393 1.02614 18.1869C1.02614 18.434 1.23794 18.6458 1.48504 18.6458H6.88594C7.20364 18.6458 7.34484 18.4693 7.38014 18.1869C7.41544 18.0104 7.69784 14.3039 7.69784 12.6801C7.69784 12.5036 7.69784 12.3271 7.69784 12.3271L8.08614 12.6095C8.75684 13.1037 9.60404 13.3508 10.4512 13.3508H12.5Z" stroke="#242424" stroke-width="1.1"/>
<path d="M4.61303 5.81738C5.94332 5.81738 7.02172 4.73897 7.02172 3.40869C7.02172 2.07841 5.94332 1 4.61303 1C3.28275 1 2.20435 2.07841 2.20435 3.40869C2.20435 4.73897 3.28275 5.81738 4.61303 5.81738Z" stroke="#242424" stroke-width="1.1"/>
<path d="M27.767 8.34936C27.061 6.69026 24.4841 6.90206 23.4957 7.21976C23.2839 7.29036 22.8956 7.50216 22.5779 7.71396C22.2955 7.89046 20.0363 9.44366 19.4362 9.83196C19.3303 9.90256 19.2244 9.93786 19.1185 9.93786L16.9293 10.1144C16.1174 10.1497 15.482 10.8204 15.482 11.6323C15.482 12.4795 16.1527 13.1502 16.9999 13.1502H18.9067C19.7539 13.1502 20.5658 12.9031 21.2718 12.4089L21.6601 12.1265C21.6601 12.1265 21.6601 12.303 21.6601 12.4795C21.6601 14.1033 21.9425 17.8098 21.9778 17.9863C22.0131 18.2334 22.119 18.4452 22.472 18.4452H27.8729C28.12 18.4452 28.3318 18.2334 28.3318 17.9863C28.4024 14.7387 28.5436 10.1497 27.767 8.34936Z" stroke="#242424" stroke-width="1.1"/>
<path d="M24.8391 5.81738C26.1694 5.81738 27.2478 4.73897 27.2478 3.40869C27.2478 2.07841 26.1694 1 24.8391 1C23.5088 1 22.4304 2.07841 22.4304 3.40869C22.4304 4.73897 23.5088 5.81738 24.8391 5.81738Z" stroke="#242424" stroke-width="1.1"/>
<path d="M19.6317 16L9.70955 16C9.51312 16 9.34125 16.2442 9.34125 16.5233V18.4767C9.34125 18.7558 9.51312 19 9.70955 19L19.6317 19C19.8281 19 20 18.7558 20 18.4767V16.5233C20 16.2442 19.8281 16 19.6317 16Z" stroke="#242424" stroke-width="1.1"/>
</svg>
