<svg width="43" height="43" viewBox="0 0 43 43" fill="none" xmlns="http://www.w3.org/2000/svg">
<path d="M40.6201 21.3106C40.1922 47.0863 2.3983 47.0269 2 21.3106C2.4131 -4.40714 40.1759 -4.46661 40.6201 21.3106Z" fill="url(#paint0_linear_422_2234)" stroke="#78C444" stroke-width="3" stroke-linejoin="round"/>
<path opacity="0.1" d="M40.6195 21.1585C40.8209 43.7753 8.51725 48.035 2.77271 26.7318C16.19 31.2738 32.0849 24.4561 38.441 12.0414C39.8719 14.8385 40.6209 17.9732 40.6195 21.1585V21.1585Z" fill="#78C444"/>
<g opacity="0.2">
<path opacity="0.6" d="M11.336 32.2347C7.90261 31.8149 4.84958 27.89 5.69513 24.4025C7.97137 26.4637 10.3251 29.3382 11.336 32.2347Z" fill="#78C444"/>
<path opacity="0.2" d="M31.1494 6.64474C28.1599 4.77063 24.5937 4.04015 21.1082 4.58792C28.8717 6.48967 35.5351 11.9696 37.0536 20.0228C39.0226 15.3109 35.127 9.18576 31.1494 6.64474Z" fill="#78C444"/>
</g>
<path d="M19.687 23.8068C20.2749 23.8068 20.7404 23.3658 20.7404 22.7779C20.7404 22.2144 20.2994 21.7489 19.736 21.7244L18.1181 21.6019C18.0446 21.6019 17.9711 21.5774 17.8976 21.5284C17.4811 21.2344 15.8887 20.181 15.7172 20.0585C15.4967 19.9115 15.2518 19.7645 15.0803 19.7155C14.3943 19.495 12.6304 19.3235 12.1404 20.475C11.626 21.6999 11.6995 24.9092 11.724 27.1631C11.724 27.3346 11.8709 27.4816 12.0424 27.4816H15.7907C16.0112 27.4816 16.1092 27.3591 16.1337 27.1631C16.1582 27.0406 16.3542 24.4683 16.3542 23.3413C16.3542 23.2188 16.3542 23.0963 16.3542 23.0963L16.6237 23.2923C17.0892 23.6353 17.6771 23.8068 18.2651 23.8068H19.687Z" fill="#78C444"/>
<path d="M14.2134 18.5781C15.1366 18.5781 15.8851 17.8296 15.8851 16.9064C15.8851 15.9832 15.1366 15.2347 14.2134 15.2347C13.2902 15.2347 12.5417 15.9832 12.5417 16.9064C12.5417 17.8296 13.2902 18.5781 14.2134 18.5781Z" fill="#78C444"/>
<path d="M30.2827 20.335C29.7928 19.1836 28.0044 19.3306 27.3184 19.5511C27.1714 19.6001 26.9019 19.7471 26.6814 19.8941C26.4855 20.0165 24.9175 21.0945 24.5011 21.364C24.4276 21.413 24.3541 21.4375 24.2806 21.4375L22.7612 21.56C22.1978 21.5845 21.7568 22.0499 21.7568 22.6134C21.7568 23.2014 22.2223 23.6669 22.8102 23.6669H24.1336C24.7215 23.6669 25.285 23.4954 25.775 23.1524L26.0445 22.9564C26.0445 22.9564 26.0445 23.0789 26.0445 23.2014C26.0445 24.3283 26.2405 26.9007 26.265 27.0232C26.2895 27.1947 26.363 27.3417 26.6079 27.3417H30.3562C30.5277 27.3417 30.6747 27.1947 30.6747 27.0232C30.7237 24.7693 30.8217 21.5845 30.2827 20.335Z" fill="#78C444"/>
<path d="M28.2508 18.5781C29.174 18.5781 29.9224 17.8296 29.9224 16.9064C29.9224 15.9832 29.174 15.2347 28.2508 15.2347C27.3275 15.2347 26.5791 15.9832 26.5791 16.9064C26.5791 17.8296 27.3275 18.5781 28.2508 18.5781Z" fill="#78C444"/>
<path d="M24.6358 25.6456L17.7497 25.6456C17.6134 25.6456 17.4941 25.8151 17.4941 26.0088V27.3645C17.4941 27.5582 17.6134 27.7277 17.7497 27.7277L24.6358 27.7277C24.7722 27.7277 24.8914 27.5582 24.8914 27.3645V26.0088C24.8914 25.8151 24.7722 25.6456 24.6358 25.6456Z" fill="#78C444"/>
<defs>
<linearGradient id="paint0_linear_422_2234" x1="21.3101" y1="2" x2="21.3101" y2="40.6201" gradientUnits="userSpaceOnUse">
<stop stop-color="#0D1443"/>
<stop offset="1" stop-color="#273179"/>
</linearGradient>
</defs>
</svg>
