<svg width="41" height="41" viewBox="0 0 41 41" fill="none" xmlns="http://www.w3.org/2000/svg">
<path d="M39.6201 20.3106C39.1922 46.0863 1.3983 46.0269 1 20.3106C1.4131 -5.40714 39.1759 -5.46661 39.6201 20.3106Z" fill="url(#paint0_linear_422_2234)" stroke="white" stroke-width="1.5"/>
<path opacity="0.1" d="M39.6195 20.1585C39.8209 42.7753 7.51725 47.035 1.77271 25.7318C15.19 30.2738 31.0849 23.4561 37.441 11.0414C38.8719 13.8385 39.6209 16.9732 39.6195 20.1585Z" fill="white"/>
<g opacity="0.2">
<path opacity="0.6" d="M10.336 31.2347C6.90261 30.8149 3.84958 26.89 4.69513 23.4025C6.97137 25.4637 9.32514 28.3382 10.336 31.2347Z" fill="white"/>
<path opacity="0.2" d="M30.1494 5.64474C27.1599 3.77063 23.5938 3.04015 20.1082 3.58792C27.8717 5.48967 34.5351 10.9696 36.0536 19.0228C38.0226 14.3109 34.127 8.18576 30.1494 5.64474Z" fill="white"/>
</g>
<path d="M18.687 22.8068C19.2749 22.8068 19.7404 22.3658 19.7404 21.7779C19.7404 21.2144 19.2994 20.7489 18.736 20.7244L17.1181 20.6019C17.0446 20.6019 16.9711 20.5774 16.8976 20.5284C16.4811 20.2344 14.8887 19.181 14.7172 19.0585C14.4967 18.9115 14.2518 18.7645 14.0803 18.7155C13.3943 18.495 11.6304 18.3235 11.1404 19.475C10.626 20.6999 10.6995 23.9092 10.724 26.1631C10.724 26.3346 10.8709 26.4816 11.0424 26.4816H14.7907C15.0112 26.4816 15.1092 26.3591 15.1337 26.1631C15.1582 26.0406 15.3542 23.4683 15.3542 22.3413C15.3542 22.2188 15.3542 22.0963 15.3542 22.0963L15.6237 22.2923C16.0892 22.6353 16.6771 22.8068 17.2651 22.8068H18.687Z" fill="white"/>
<path d="M13.2134 17.5781C14.1366 17.5781 14.8851 16.8296 14.8851 15.9064C14.8851 14.9832 14.1366 14.2347 13.2134 14.2347C12.2902 14.2347 11.5417 14.9832 11.5417 15.9064C11.5417 16.8296 12.2902 17.5781 13.2134 17.5781Z" fill="white"/>
<path d="M29.2827 19.335C28.7928 18.1836 27.0044 18.3306 26.3184 18.5511C26.1714 18.6001 25.9019 18.7471 25.6814 18.8941C25.4855 19.0165 23.9175 20.0945 23.5011 20.364C23.4276 20.413 23.3541 20.4375 23.2806 20.4375L21.7612 20.56C21.1978 20.5845 20.7568 21.0499 20.7568 21.6134C20.7568 22.2014 21.2223 22.6669 21.8102 22.6669H23.1336C23.7215 22.6669 24.285 22.4954 24.775 22.1524L25.0445 21.9564C25.0445 21.9564 25.0445 22.0789 25.0445 22.2014C25.0445 23.3283 25.2405 25.9007 25.265 26.0232C25.2895 26.1947 25.363 26.3417 25.6079 26.3417H29.3562C29.5277 26.3417 29.6747 26.1947 29.6747 26.0232C29.7237 23.7693 29.8217 20.5845 29.2827 19.335Z" fill="white"/>
<path d="M27.2508 17.5781C28.174 17.5781 28.9224 16.8296 28.9224 15.9064C28.9224 14.9832 28.174 14.2347 27.2508 14.2347C26.3275 14.2347 25.5791 14.9832 25.5791 15.9064C25.5791 16.8296 26.3275 17.5781 27.2508 17.5781Z" fill="white"/>
<path d="M23.6358 24.6456L16.7497 24.6456C16.6134 24.6456 16.4941 24.8151 16.4941 25.0088V26.3645C16.4941 26.5582 16.6134 26.7277 16.7497 26.7277L23.6358 26.7277C23.7722 26.7277 23.8914 26.5582 23.8914 26.3645V25.0088C23.8914 24.8151 23.7722 24.6456 23.6358 24.6456Z" fill="white"/>
<defs>
<linearGradient id="paint0_linear_422_2234" x1="20.3101" y1="1" x2="20.3101" y2="39.6201" gradientUnits="userSpaceOnUse">
<stop stop-color="#0D1443"/>
<stop offset="1" stop-color="#273179"/>
</linearGradient>
</defs>
</svg>
