<svg width="27" height="26" viewBox="0 0 27 26" fill="none" xmlns="http://www.w3.org/2000/svg">
<path d="M18.0767 22.2675C17.8029 23.0423 17.2956 23.7131 16.6247 24.1876C15.9538 24.662 15.1522 24.9168 14.3305 24.9168C13.5087 24.9168 12.7072 24.662 12.0363 24.1876C11.3654 23.7131 10.8581 23.0423 10.5842 22.2675H8.47511C7.92375 22.2673 7.38115 22.1294 6.89661 21.8663C6.41206 21.6033 6.00091 21.2233 5.7005 20.761C5.40008 20.2986 5.21991 19.7686 5.17636 19.2189C5.13281 18.6693 5.22724 18.1175 5.4511 17.6136L6.38716 15.5071V11.6755C6.38696 10.0323 6.89613 8.42949 7.84458 7.08768C8.79302 5.74587 10.1341 4.73106 11.6832 4.18298V3.73149C11.6832 3.0292 11.9621 2.35567 12.4587 1.85908C12.9553 1.36248 13.6289 1.0835 14.3312 1.0835C15.0334 1.0835 15.707 1.36248 16.2036 1.85908C16.7002 2.35567 16.9791 3.0292 16.9791 3.73149V4.18298C20.0641 5.27395 22.2751 8.2172 22.2751 11.6755V15.5071L23.2112 17.6123C23.4354 18.1163 23.5301 18.6684 23.4866 19.2183C23.4431 19.7683 23.2629 20.2986 22.9623 20.7612C22.6617 21.2237 22.2502 21.6038 21.7653 21.8669C21.2805 22.1299 20.7375 22.2676 20.1859 22.2675H18.0767ZM16.6243 22.2675H12.0367C12.2694 22.6699 12.604 23.0041 13.0067 23.2364C13.4095 23.4687 13.8662 23.591 14.3312 23.591C14.7961 23.591 15.2528 23.4687 15.6556 23.2364C16.0583 23.0041 16.3915 22.6699 16.6243 22.2675ZM15.6552 3.84138V3.73149C15.6552 3.38035 15.5157 3.04358 15.2674 2.79528C15.0191 2.54699 14.6823 2.40749 14.3312 2.40749C13.98 2.40749 13.6432 2.54699 13.3949 2.79528C13.1466 3.04358 13.0072 3.38035 13.0072 3.73149V3.84138C13.8837 3.69423 14.7786 3.69423 15.6552 3.84138ZM14.3312 5.05549C12.5754 5.05549 10.8916 5.75295 9.65011 6.99444C8.40862 8.23593 7.71116 9.91975 7.71116 11.6755V15.6475L7.65423 15.9162L6.66123 18.1512C6.52698 18.4533 6.47031 18.7843 6.49635 19.1139C6.52239 19.4435 6.63033 19.7614 6.81037 20.0388C6.9904 20.3161 7.23684 20.5442 7.52732 20.7021C7.8178 20.8601 8.14312 20.9431 8.47378 20.9435H20.1845C20.5156 20.9437 20.8415 20.8612 21.1325 20.7033C21.4235 20.5454 21.6704 20.3173 21.8507 20.0396C22.031 19.7619 22.1389 19.4436 22.1647 19.1135C22.1905 18.7834 22.1334 18.4522 21.9984 18.1498L21.0054 15.9162L20.9511 15.6475V11.6755C20.9511 9.91975 20.2537 8.23593 19.0122 6.99444C17.7707 5.75295 16.0869 5.05549 14.3312 5.05549Z" fill="white" stroke="white" stroke-width="0.216667"/>
</svg>
