<svg width="39" height="39" viewBox="0 0 39 39" fill="none" xmlns="http://www.w3.org/2000/svg">
<path d="M38.1461 19.332L38.1463 19.3235L38.1461 19.315C37.7132 -5.80805 0.902461 -5.73549 0.500064 19.3156L0.499938 19.3235L0.50006 19.3314C0.888018 44.38 37.7291 44.4554 38.1461 19.332Z" fill="url(#paint0_linear_422_3633)" stroke="white"/>
<path opacity="0.45" d="M37.6453 19.1798C37.8364 40.6406 7.18385 44.6826 1.73291 24.4683C14.4644 28.7781 29.5469 22.3089 35.5782 10.5287C36.936 13.1828 37.6467 16.1573 37.6453 19.1798V19.1798Z" fill="url(#paint1_linear_422_3633)"/>
<g opacity="0.2">
<path opacity="0.6" d="M9.85828 29.6901C6.60038 29.2918 3.70339 25.5674 4.50572 22.2582C6.66563 24.214 8.89909 26.9417 9.85828 29.6901Z" fill="white"/>
<path opacity="0.2" d="M28.6589 5.4075C25.8222 3.62918 22.4383 2.93604 19.1309 3.45581C26.4976 5.26036 32.8204 10.4602 34.2613 18.1018C36.1297 13.6307 32.4332 7.81865 28.6589 5.4075Z" fill="white"/>
</g>
<path fill-rule="evenodd" clip-rule="evenodd" d="M11 22.7372C11.0394 22.2071 11.4729 21.7906 12.0641 21.7906C13.601 19.784 13.798 16.1492 14.3103 14.4833C14.9409 12.4387 16.6355 11 19 11C21.3645 11 23.0591 12.4387 23.6897 14.4833C24.202 16.1492 24.399 19.784 25.9753 21.7906C26.5271 21.7906 26.9606 22.2071 27 22.7751C27 23.343 26.5271 23.7973 25.9753 23.7973H12.0247C11.4729 23.7973 11 23.343 11 22.7372V22.7372ZM19 24.2895C20.064 24.2895 20.931 25.1225 20.931 26.1448C20.931 27.167 20.064 28 19 28C17.936 28 17.069 27.167 17.069 26.1448C17.069 25.1225 17.936 24.2895 19 24.2895Z" fill="white"/>
<defs>
<linearGradient id="paint0_linear_422_3633" x1="19.3231" y1="1" x2="19.3231" y2="37.6462" gradientUnits="userSpaceOnUse">
<stop stop-color="#FF8B00"/>
<stop offset="0.9998" stop-color="#EF463C"/>
<stop offset="0.9999" stop-color="#EF453B"/>
<stop offset="1" stop-color="#EE4036"/>
</linearGradient>
<linearGradient id="paint1_linear_422_3633" x1="59836.1" y1="4556.35" x2="59344.4" y2="9518.22" gradientUnits="userSpaceOnUse">
<stop stop-color="#FFEF00"/>
<stop offset="0.16" stop-color="#FFC500"/>
<stop offset="0.34" stop-color="#FF9D00"/>
<stop offset="0.52" stop-color="#FF7E00"/>
<stop offset="0.69" stop-color="#FF6700"/>
<stop offset="0.85" stop-color="#FF5A00"/>
<stop offset="1" stop-color="#FF5500"/>
</linearGradient>
</defs>
</svg>
