<svg width="26" height="25" viewBox="0 0 26 25" fill="none" xmlns="http://www.w3.org/2000/svg">
<path d="M10.5653 21.1306C16.4004 21.1306 21.1306 16.4004 21.1306 10.5653C21.1306 4.73025 16.4004 0 10.5653 0C4.73025 0 0 4.73025 0 10.5653C0 16.4004 4.73025 21.1306 10.5653 21.1306Z" fill="#365E7D"/>
<path d="M21.1305 10.5653C21.1305 4.73026 16.4002 0 10.5652 0C10.3276 0 10.0921 0.00863194 9.8584 0.0240996C15.1178 0.371573 19.3251 4.5671 19.6906 9.82147C19.7154 10.1785 19.4228 10.4737 19.065 10.4661C19.01 10.4649 18.955 10.4643 18.9 10.4643C14.5426 10.4643 11.0101 13.9968 11.0101 18.3543C11.0101 18.7635 11.0414 19.1653 11.1015 19.5577C11.2205 20.3331 10.6572 21.0526 9.87442 21.1055L9.8584 21.1066C10.0921 21.122 10.3276 21.1307 10.5652 21.1307C16.4347 21.1306 21.1305 16.3614 21.1305 10.5653Z" fill="#2B4D66"/>
<path d="M10.5653 18.6756C15.0445 18.6756 18.6756 15.0445 18.6756 10.5653C18.6756 6.08616 15.0445 2.45508 10.5653 2.45508C6.08616 2.45508 2.45508 6.08616 2.45508 10.5653C2.45508 15.0445 6.08616 18.6756 10.5653 18.6756Z" fill="#F4FBFF"/>
<path d="M18.676 10.5653C18.676 6.08619 15.0449 2.45508 10.5657 2.45508C10.346 2.45508 10.1284 2.46411 9.91309 2.48127C14.1026 2.81493 17.3951 6.33192 17.3705 10.6129L17.3701 10.6134C13.9479 11.2862 11.3955 14.1394 11.0506 17.544C10.9912 18.1293 10.5329 18.5974 9.94667 18.6466L9.91309 18.6493C14.6357 19.0256 18.676 15.305 18.676 10.5653Z" fill="#DAF1F4"/>
<path d="M10.5655 4.96439C10.5149 4.96439 10.4647 4.95443 10.4179 4.93506C10.3712 4.91569 10.3287 4.88729 10.2929 4.85149C10.2571 4.81569 10.2287 4.7732 10.2093 4.72642C10.1899 4.67965 10.18 4.62952 10.18 4.57889V4.03393C10.18 3.98331 10.1899 3.93317 10.2093 3.8864C10.2287 3.83963 10.2571 3.79713 10.2929 3.76133C10.3287 3.72553 10.3712 3.69714 10.4179 3.67777C10.4647 3.6584 10.5149 3.64843 10.5655 3.64844C10.6161 3.64843 10.6662 3.6584 10.713 3.67777C10.7598 3.69714 10.8023 3.72553 10.8381 3.76133C10.8739 3.79713 10.9023 3.83963 10.9216 3.8864C10.941 3.93317 10.951 3.98331 10.951 4.03393V4.57889C10.951 4.62952 10.941 4.67965 10.9216 4.72642C10.9023 4.7732 10.8739 4.81569 10.8381 4.85149C10.8023 4.88729 10.7598 4.91569 10.713 4.93506C10.6662 4.95443 10.6161 4.96439 10.5655 4.96439ZM14.7986 6.71782C14.7224 6.71784 14.6478 6.69524 14.5844 6.65287C14.521 6.61051 14.4716 6.55029 14.4424 6.47983C14.4132 6.40937 14.4056 6.33184 14.4205 6.25704C14.4354 6.18225 14.4721 6.11355 14.526 6.05965L14.9114 5.67435C14.984 5.60334 15.0816 5.56381 15.1832 5.56437C15.2847 5.56492 15.3819 5.60551 15.4537 5.67731C15.5255 5.74911 15.5661 5.84634 15.5666 5.94787C15.5671 6.04941 15.5276 6.14706 15.4566 6.21961L15.0712 6.60491C15.0354 6.64075 14.993 6.66918 14.9462 6.68856C14.8994 6.70793 14.8493 6.71788 14.7986 6.71782ZM17.097 10.951H16.5521C16.4498 10.951 16.3518 10.9104 16.2795 10.8381C16.2072 10.7658 16.1666 10.6677 16.1666 10.5655C16.1666 10.4632 16.2072 10.3652 16.2795 10.2929C16.3518 10.2206 16.4498 10.18 16.5521 10.18H17.0971C17.1993 10.18 17.2974 10.2206 17.3697 10.2929C17.4419 10.3652 17.4825 10.4633 17.4825 10.5655C17.4825 10.6677 17.4419 10.7658 17.3696 10.8381C17.2973 10.9104 17.1993 10.951 17.097 10.951ZM10.724 17.6411C10.6734 17.6411 10.6233 17.6311 10.5765 17.6118C10.5297 17.5924 10.4872 17.564 10.4514 17.5282C10.4156 17.4924 10.3873 17.4499 10.3679 17.4031C10.3485 17.3563 10.3385 17.3062 10.3386 17.2556V16.7106C10.3385 16.66 10.3485 16.6098 10.3679 16.5631C10.3873 16.5163 10.4156 16.4738 10.4514 16.438C10.4872 16.4022 10.5297 16.3738 10.5765 16.3544C10.6233 16.335 10.6734 16.3251 10.724 16.3251C10.7747 16.3251 10.8248 16.335 10.8716 16.3544C10.9183 16.3738 10.9608 16.4022 10.9966 16.438C11.0324 16.4738 11.0608 16.5163 11.0802 16.5631C11.0996 16.6098 11.1095 16.66 11.1095 16.7106V17.2556C11.1095 17.3062 11.0996 17.3563 11.0802 17.4031C11.0608 17.4499 11.0324 17.4924 10.9966 17.5282C10.9608 17.564 10.9183 17.5924 10.8716 17.6118C10.8248 17.6311 10.7747 17.6411 10.724 17.6411ZM5.94698 15.5695C5.87075 15.5694 5.79624 15.5468 5.73286 15.5044C5.66949 15.462 5.62009 15.4018 5.59092 15.3314C5.56174 15.261 5.5541 15.1835 5.56895 15.1087C5.5838 15.0339 5.62048 14.9652 5.67435 14.9113L6.0597 14.5259C6.13202 14.4537 6.23008 14.4131 6.33233 14.4131C6.43457 14.4131 6.53263 14.4537 6.60496 14.5259C6.67724 14.5983 6.71785 14.6963 6.71785 14.7986C6.71785 14.9008 6.67724 14.9989 6.60496 15.0712L6.21961 15.4566C6.18384 15.4924 6.14134 15.5208 6.09456 15.5402C6.04777 15.5596 5.99762 15.5695 5.94698 15.5695ZM4.57889 10.951H4.03393C3.93169 10.951 3.83364 10.9104 3.76135 10.8381C3.68905 10.7658 3.64844 10.6677 3.64844 10.5655C3.64844 10.4632 3.68905 10.3652 3.76135 10.2929C3.83364 10.2206 3.93169 10.18 4.03393 10.18H4.57894C4.68118 10.18 4.77923 10.2206 4.85152 10.2929C4.92381 10.3652 4.96442 10.4633 4.96441 10.5655C4.9644 10.6677 4.92378 10.7658 4.85149 10.8381C4.77919 10.9104 4.68113 10.951 4.57889 10.951ZM6.33233 6.71782C6.28169 6.71788 6.23155 6.70793 6.18477 6.68856C6.13799 6.66918 6.09551 6.64075 6.05975 6.60491L5.6744 6.21961C5.6021 6.14732 5.56147 6.04926 5.56146 5.94702C5.56146 5.89639 5.57142 5.84626 5.59079 5.79948C5.61016 5.75271 5.63856 5.7102 5.67435 5.6744C5.71015 5.6386 5.75265 5.6102 5.79942 5.59082C5.84619 5.57144 5.89632 5.56147 5.94695 5.56146C6.04919 5.56145 6.14726 5.60206 6.21956 5.67435L6.60491 6.05965C6.65885 6.11355 6.69559 6.18225 6.71049 6.25704C6.72538 6.33184 6.71775 6.40937 6.68857 6.47983C6.65939 6.55029 6.60997 6.61051 6.54656 6.65287C6.48314 6.69524 6.40859 6.71784 6.33233 6.71782Z" fill="#365E7D"/>
<path d="M10.5656 11.1093C10.4651 11.1093 10.3685 11.0701 10.2965 11L8.94068 9.67969C8.86874 9.60807 8.82795 9.51096 8.82716 9.40945C8.82637 9.30794 8.86565 9.21021 8.93648 9.13748C9.0073 9.06476 9.10395 9.0229 9.20545 9.02099C9.30695 9.01908 9.4051 9.05728 9.47861 9.1273L10.18 9.81027V7.07544C10.18 7.02481 10.1899 6.97468 10.2093 6.92791C10.2287 6.88113 10.2571 6.83863 10.2929 6.80284C10.3287 6.76704 10.3712 6.73864 10.418 6.71927C10.4647 6.6999 10.5149 6.68993 10.5655 6.68994C10.6161 6.68993 10.6662 6.6999 10.713 6.71927C10.7598 6.73864 10.8023 6.76704 10.8381 6.80284C10.8739 6.83863 10.9023 6.88113 10.9216 6.92791C10.941 6.97468 10.951 7.02481 10.951 7.07544V10.7238C10.951 10.826 10.9104 10.924 10.8381 10.9963C10.7658 11.0686 10.6678 11.1093 10.5656 11.1093Z" fill="#2B4D66"/>
<path d="M18.9003 25.0006C22.571 25.0006 25.5467 22.0249 25.5467 18.3542C25.5467 14.6835 22.571 11.7078 18.9003 11.7078C15.2296 11.7078 12.2539 14.6835 12.2539 18.3542C12.2539 22.0249 15.2296 25.0006 18.9003 25.0006Z" fill="#EAB14D"/>
<path d="M18.8997 11.7078C18.641 11.7078 18.3858 11.7231 18.1348 11.7519C21.4451 12.1313 24.0162 14.9423 24.0162 18.3542C24.0162 21.7661 21.4451 24.5771 18.1348 24.9565C18.3858 24.9853 18.641 25.0006 18.8997 25.0006C22.5704 25.0006 25.5461 22.0249 25.5461 18.3542C25.5461 14.6835 22.5704 11.7078 18.8997 11.7078Z" fill="#E49542"/>
<path d="M18.7779 19.7852C18.3521 19.7852 18.0068 19.44 18.0068 19.0142V14.4109C18.0068 13.9851 18.3521 13.6399 18.7779 13.6399C19.2037 13.6399 19.5489 13.9851 19.5489 14.4109V19.0142C19.5489 19.44 19.2037 19.7852 18.7779 19.7852ZM18.7779 22.7664C18.3521 22.7664 18.0068 22.4212 18.0068 21.9954V21.5043C18.0068 21.0784 18.3521 20.7332 18.7779 20.7332C19.2037 20.7332 19.5489 21.0784 19.5489 21.5043V21.9954C19.5489 22.4212 19.2037 22.7664 18.7779 22.7664Z" fill="#F4FBFF"/>
<path d="M18.7781 13.6399C18.6375 13.6399 18.506 13.6782 18.3926 13.7439C18.6228 13.8772 18.7781 14.1257 18.7781 14.4109V19.0142C18.7781 19.2994 18.6228 19.5479 18.3926 19.6813C18.5096 19.7494 18.6426 19.7852 18.7781 19.7852C19.2039 19.7852 19.5491 19.44 19.5491 19.0142V14.4109C19.5491 13.9851 19.2039 13.6399 18.7781 13.6399ZM18.7781 20.7332C18.6375 20.7332 18.506 20.7715 18.3926 20.8372C18.6228 20.9706 18.7781 21.219 18.7781 21.5043V21.9954C18.7781 22.2806 18.6228 22.5291 18.3926 22.6624C18.5096 22.7305 18.6426 22.7664 18.7781 22.7664C19.2039 22.7664 19.5491 22.4212 19.5491 21.9954V21.5043C19.5491 21.0784 19.2039 20.7332 18.7781 20.7332Z" fill="#DAF1F4"/>
</svg>
