<svg width="43" height="43" viewBox="0 0 43 43" fill="none" xmlns="http://www.w3.org/2000/svg">
<path d="M40.6201 21.3106C40.1922 47.0863 2.3983 47.0269 2 21.3106C2.4131 -4.40714 40.1759 -4.46661 40.6201 21.3106Z" fill="url(#paint0_linear_442_420)" stroke="#78C444" stroke-width="3" stroke-linejoin="round"/>
<path opacity="0.1" d="M40.6188 21.1583C40.8202 43.7752 8.51652 48.0348 2.77197 26.7317C16.1892 31.2737 32.0841 24.456 38.4403 12.0413C39.8712 14.8384 40.6202 17.9731 40.6188 21.1583V21.1583Z" fill="#78C444"/>
<g opacity="0.2">
<path opacity="0.6" d="M11.3355 32.2346C7.90212 31.8148 4.84909 27.8899 5.69464 24.4023C7.97089 26.4635 10.3247 29.3381 11.3355 32.2346Z" fill="#78C444"/>
<path opacity="0.2" d="M31.1484 6.64461C28.1589 4.77051 24.5928 4.04003 21.1072 4.5878C28.8707 6.48955 35.5341 11.9695 37.0526 20.0227C39.0216 15.3107 35.126 9.18564 31.1484 6.64461Z" fill="#78C444"/>
</g>
<path d="M18.4767 23.2995C18.5381 23.3394 18.5993 23.3782 18.6627 23.4146C19.3921 23.8353 20.2166 24.0635 21.0585 24.0777C21.9005 24.0919 22.7322 23.8917 23.4754 23.4958L23.4433 25.9505L22.7475 29.37H22.1383L20.1554 29.3703L20.3558 29.6709L21.8809 29.6952L22.5673 29.37C21.5338 29.5919 20.9392 29.7115 20 29.5L20.4021 29.6767L20.1554 29.3703H19.2162L18.4862 25.9507L18.4767 23.2995ZM23.8584 14.9939C23.9891 15.4699 24.2372 15.8098 24.5286 16.1202C24.8482 16.461 25.1764 16.8244 25.3655 17.4966V19.1168C25.3658 19.8575 25.1708 20.5853 24.8003 21.2267C24.4298 21.8682 23.8969 22.4007 23.2551 22.7706C22.6135 23.1409 21.8858 23.3359 21.145 23.3359C20.4042 23.3359 19.6765 23.1409 19.0349 22.7706C18.3933 22.4005 17.8605 21.8679 17.4901 21.2265C17.1197 20.5851 16.9247 19.8575 16.9247 19.1168V17.0946C17.0376 16.7937 17.2021 16.4809 17.415 16.2238C17.7055 15.8748 18.0768 15.6302 18.5329 15.6302H22.1796C22.8414 15.6302 23.2434 15.4821 23.5009 15.3137C23.6067 15.2441 23.7035 15.1616 23.7889 15.0681C23.8234 15.0304 23.8363 15.0198 23.8584 14.9939ZM21.1456 12C20.9219 12 20.6998 12.016 20.4788 12.0456C19.0421 12.2113 17.6716 12.8661 16.8791 13.7515C16.4629 14.103 16.2349 14.6086 16.181 15.2385V16.9174C16.181 16.9339 16.1799 16.9492 16.1799 16.9659V16.9894C16.0739 16.9823 15.968 17.0051 15.8742 17.0551C15.5944 17.2034 15.5357 17.9403 15.7436 18.7021C15.8589 19.1253 16.0316 19.4617 16.2117 19.6567C16.2833 20.3082 16.4832 20.9391 16.8 21.513C17.1168 22.0868 17.5441 22.5922 18.0573 22.9999H16.9207C16.0234 22.9999 15.0748 23.4692 14.3295 24.2098C13.8205 24.7163 13.409 25.3629 13.1975 26.0895C13.0718 26.4245 13 26.777 13 27.1429V29.5082H13.0411V29.5093C13.0411 29.6917 13.1891 29.8398 13.3727 29.8409H28.9645C29.0524 29.8408 29.1367 29.8059 29.1989 29.7437C29.2611 29.6815 29.296 29.5972 29.2961 29.5093V27.1425C29.2961 25.9633 28.6436 24.9312 27.8055 24.1965C26.9681 23.4615 25.942 22.9995 25.0439 22.9995H24.2338C24.7468 22.5923 25.1741 22.0876 25.4909 21.5144C25.8077 20.9411 26.0078 20.3108 26.0797 19.6598C26.2607 19.4657 26.4358 19.1271 26.5523 18.7017C26.7602 17.9399 26.7017 17.2027 26.4205 17.0546C26.3292 17.0062 26.2264 16.9839 26.1232 16.9903C26.1512 13.6021 25.6657 13.3741 24.1695 13.0071C23.4108 12.3713 22.4655 12.0643 21.4884 12.0129C21.3743 12.0043 21.26 12 21.1456 12Z" fill="#78C444"/>
<defs>
<linearGradient id="paint0_linear_442_420" x1="21.3101" y1="2" x2="21.3101" y2="40.6201" gradientUnits="userSpaceOnUse">
<stop stop-color="#0D1443"/>
<stop offset="1" stop-color="#273179"/>
</linearGradient>
</defs>
</svg>
