<svg width="41" height="41" viewBox="0 0 41 41" fill="none" xmlns="http://www.w3.org/2000/svg">
<path d="M39.6201 20.3106C39.1922 46.0863 1.3983 46.0269 1 20.3106C1.4131 -5.40714 39.1759 -5.46661 39.6201 20.3106Z" fill="url(#paint0_linear_1394_74)" stroke="white" stroke-width="1.5"/>
<path opacity="0.1" d="M39.6188 20.1583C39.8202 42.7752 7.51652 47.0348 1.77197 25.7317C15.1892 30.2737 31.0841 23.456 37.4403 11.0413C38.8712 13.8384 39.6202 16.9731 39.6188 20.1583Z" fill="white"/>
<g opacity="0.2">
<path opacity="0.6" d="M10.3355 31.2346C6.90212 30.8148 3.84909 26.8899 4.69464 23.4023C6.97089 25.4635 9.32466 28.3381 10.3355 31.2346Z" fill="white"/>
<path opacity="0.2" d="M30.1484 5.64461C27.1589 3.77051 23.5928 3.04003 20.1072 3.5878C27.8707 5.48955 34.5341 10.9695 36.0526 19.0227C38.0216 14.3107 34.126 8.18564 30.1484 5.64461Z" fill="white"/>
</g>
<path d="M17.4767 22.2995C17.5381 22.3394 17.5993 22.3782 17.6627 22.4146C18.3921 22.8353 19.2166 23.0635 20.0585 23.0777C20.9005 23.0919 21.7322 22.8917 22.4754 22.4958L22.4433 24.9505L21.7475 28.37H21.1383L19.1554 28.3703L19.3558 28.6709L20.8809 28.6952L21.5673 28.37C20.5338 28.5919 19.9392 28.7115 19 28.5L19.4021 28.6767L19.1554 28.3703H18.2162L17.4862 24.9507L17.4767 22.2995ZM22.8584 13.9939C22.9891 14.4699 23.2372 14.8098 23.5286 15.1202C23.8482 15.461 24.1764 15.8244 24.3655 16.4966V18.1168C24.3658 18.8575 24.1708 19.5853 23.8003 20.2267C23.4298 20.8682 22.8969 21.4007 22.2551 21.7706C21.6135 22.1409 20.8858 22.3359 20.145 22.3359C19.4042 22.3359 18.6765 22.1409 18.0349 21.7706C17.3933 21.4005 16.8605 20.8679 16.4901 20.2265C16.1197 19.5851 15.9247 18.8575 15.9247 18.1168V16.0946C16.0376 15.7937 16.2021 15.4809 16.415 15.2238C16.7055 14.8748 17.0768 14.6302 17.5329 14.6302H21.1796C21.8414 14.6302 22.2434 14.4821 22.5009 14.3137C22.6067 14.2441 22.7035 14.1616 22.7889 14.0681C22.8234 14.0304 22.8363 14.0198 22.8584 13.9939ZM20.1456 11C19.9219 11 19.6998 11.016 19.4788 11.0456C18.0421 11.2113 16.6716 11.8661 15.8791 12.7515C15.4629 13.103 15.2349 13.6086 15.181 14.2385V15.9174C15.181 15.9339 15.1799 15.9492 15.1799 15.9659V15.9894C15.0739 15.9823 14.968 16.0051 14.8742 16.0551C14.5944 16.2034 14.5357 16.9403 14.7436 17.7021C14.8589 18.1253 15.0316 18.4617 15.2117 18.6567C15.2833 19.3082 15.4832 19.9391 15.8 20.513C16.1168 21.0868 16.5441 21.5922 17.0573 21.9999H15.9207C15.0234 21.9999 14.0748 22.4692 13.3295 23.2098C12.8205 23.7163 12.409 24.3629 12.1975 25.0895C12.0718 25.4245 12 25.777 12 26.1429V28.5082H12.0411V28.5093C12.0411 28.6917 12.1891 28.8398 12.3727 28.8409H27.9645C28.0524 28.8408 28.1367 28.8059 28.1989 28.7437C28.2611 28.6815 28.296 28.5972 28.2961 28.5093V26.1425C28.2961 24.9633 27.6436 23.9312 26.8055 23.1965C25.9681 22.4615 24.942 21.9995 24.0439 21.9995H23.2338C23.7468 21.5923 24.1741 21.0876 24.4909 20.5144C24.8077 19.9411 25.0078 19.3108 25.0797 18.6598C25.2607 18.4657 25.4358 18.1271 25.5523 17.7017C25.7602 16.9399 25.7017 16.2027 25.4205 16.0546C25.3292 16.0062 25.2264 15.9839 25.1232 15.9903C25.1512 12.6021 24.6657 12.3741 23.1695 12.0071C22.4108 11.3713 21.4655 11.0643 20.4884 11.0129C20.3743 11.0043 20.26 11 20.1456 11Z" fill="white"/>
<defs>
<linearGradient id="paint0_linear_1394_74" x1="20.3101" y1="1" x2="20.3101" y2="39.6201" gradientUnits="userSpaceOnUse">
<stop stop-color="#0D1443"/>
<stop offset="1" stop-color="#273179"/>
</linearGradient>
</defs>
</svg>
