<svg width="24" height="24" viewBox="0 0 24 24" fill="none" xmlns="http://www.w3.org/2000/svg">
<path d="M6.28027 11.3473C6.28027 9.62023 7.68025 8.22016 9.40717 8.22016C11.1341 8.22016 12.5341 9.62023 12.5341 11.3473C12.5341 13.0743 11.1341 14.4744 9.40717 14.4744C7.68025 14.4744 6.28027 13.0743 6.28027 11.3473Z" stroke="#0D1442" stroke-width="1.3" stroke-miterlimit="10" stroke-linecap="round" stroke-linejoin="round"/>
<path d="M11.1617 21H4.5266C3.4921 21 2.75762 19.9919 3.07439 19.007C3.91587 16.3905 6.49487 14.4971 9.39091 14.4971C10.7724 14.4971 12.0533 14.928 13.1065 15.6626" stroke="#0D1442" stroke-width="1.3" stroke-miterlimit="10" stroke-linecap="round" stroke-linejoin="round"/>
<path d="M14.1738 6.12705C14.1738 4.40001 15.5738 2.99995 17.3007 2.99995C19.0276 2.99995 20.4276 4.40001 20.4276 6.12705C20.4276 7.85409 19.0276 9.25415 17.3007 9.25415C15.5738 9.25415 14.1738 7.85409 14.1738 6.12705Z" stroke="#0D1442" stroke-width="1.3" stroke-miterlimit="10" stroke-linecap="round" stroke-linejoin="round"/>
<path d="M12.5585 11.3139C13.7438 10.06 15.4227 9.27758 17.2844 9.27758C18.6659 9.27758 19.9467 9.70843 20.9999 10.4431" stroke="#0D1442" stroke-width="1.3" stroke-miterlimit="10" stroke-linecap="round" stroke-linejoin="round"/>
<path d="M18.1396 21V15.2797" stroke="#EE4036" stroke-width="1.3" stroke-miterlimit="10" stroke-linecap="round" stroke-linejoin="round"/>
<path d="M21.0002 18.1396H15.2803" stroke="#EE4036" stroke-width="1.3" stroke-miterlimit="10" stroke-linecap="round" stroke-linejoin="round"/>
</svg>
