<svg width="20" height="19" viewBox="0 0 20 19" fill="none" xmlns="http://www.w3.org/2000/svg">
<path d="M19.9689 11.9241C19.7558 10.7913 18.5384 10.1522 17.4805 10.621L17.46 10.6301L13.5275 12.7443C13.4914 11.8055 12.7147 11.0528 11.7645 11.0528C11.0582 11.0528 10.3459 10.9827 9.64742 10.8443C8.38074 10.5935 7.50982 10.4663 7.05873 10.4663C6.49231 10.4663 5.51993 10.5555 4.70583 10.7432V9.29327H0V18.0909H4.70579V16.9581C5.61852 17.0819 6.18008 17.4409 6.3316 17.5045C7.10131 17.8881 7.96294 18.0909 8.82336 18.0909C11.6239 18.091 14.3534 17.2128 16.6256 15.5805L19.1046 13.7998C19.426 13.6152 19.6819 13.3355 19.8368 12.9994C19.9916 12.6633 20.0378 12.2875 19.9689 11.9241ZM1.17645 16.9179V10.4663H3.52934V16.9179H1.17645ZM18.504 12.7908L18.4725 12.8081L15.938 14.6287C13.8531 16.1263 11.3929 16.9179 8.82336 16.9179C8.14459 16.9179 7.46488 16.7579 6.85775 16.4553C6.7136 16.3965 5.93436 15.9075 4.70579 15.7763V11.9537C5.36962 11.7676 6.39658 11.6393 7.05869 11.6393C7.26935 11.6393 7.85601 11.6855 9.41821 11.9949C10.192 12.1481 10.9814 12.2258 11.7645 12.2258C12.0889 12.2258 12.3527 12.4889 12.3527 12.8123C12.3527 13.1358 12.0889 13.3988 11.7645 13.3988H8.23514V14.5719H11.7645C12.2331 14.5724 12.6967 14.4765 13.1264 14.2901L13.1495 14.2802L17.9755 11.6856C18.3347 11.5391 18.7405 11.7575 18.8125 12.1404C18.8366 12.2674 18.8198 12.3987 18.7643 12.5156C18.7089 12.6325 18.6178 12.7288 18.504 12.7908Z" fill="#0D1442"/>
<path d="M20 8V6.85714C20 5.71794 19.3035 4.73269 18.2989 4.27421C18.62 3.88438 18.8125 3.39211 18.8125 2.85714C18.8125 1.5968 17.7471 0.571428 16.4375 0.571428C15.1279 0.571428 14.0625 1.5968 14.0625 2.85714C14.0625 3.39211 14.255 3.88438 14.5761 4.27421C14.2421 4.42695 13.9406 4.63812 13.6869 4.89695C13.3857 4.37813 12.9217 3.95848 12.3614 3.70278C12.6825 3.31295 12.875 2.82069 12.875 2.28571C12.875 1.02537 11.8096 0 10.5 0C9.19043 0 8.125 1.02537 8.125 2.28571C8.125 2.82069 8.31746 3.31295 8.6386 3.70278C8.07837 3.95848 7.61426 4.37813 7.31311 4.89695C7.05939 4.63811 6.75786 4.42694 6.42391 4.27421C6.74501 3.88438 6.9375 3.39211 6.9375 2.85714C6.9375 1.5968 5.87208 0.571428 4.5625 0.571428C3.25293 0.571428 2.1875 1.5968 2.1875 2.85714C2.1875 3.39211 2.37995 3.88438 2.70109 4.27421C1.69655 4.73272 1 5.71794 1 6.85714V8H20ZM14.0625 6.85714C14.0625 5.91185 14.8615 5.14286 15.8438 5.14286H17.0313C18.0134 5.14286 18.8125 5.91185 18.8125 6.85714H14.0625ZM16.4375 1.71429C17.0923 1.71429 17.625 2.22697 17.625 2.85714C17.625 3.48731 17.0923 4 16.4375 4C15.7827 4 15.25 3.48731 15.25 2.85714C15.25 2.22697 15.7827 1.71429 16.4375 1.71429ZM10.5 1.14286C11.1548 1.14286 11.6875 1.65554 11.6875 2.28571C11.6875 2.91589 11.1548 3.42857 10.5 3.42857C9.84521 3.42857 9.3125 2.91589 9.3125 2.28571C9.3125 1.65554 9.84521 1.14286 10.5 1.14286ZM8.125 6.28571C8.125 5.34042 8.92403 4.57143 9.90625 4.57143H11.0938C12.0759 4.57143 12.875 5.34042 12.875 6.28571V6.85714H8.125V6.28571ZM4.5625 1.71429C5.21729 1.71429 5.75 2.22697 5.75 2.85714C5.75 3.48731 5.21729 4 4.5625 4C3.90771 4 3.375 3.48731 3.375 2.85714C3.375 2.22697 3.90771 1.71429 4.5625 1.71429ZM2.1875 6.85714C2.1875 5.91185 2.98657 5.14286 3.96875 5.14286H5.15625C6.13843 5.14286 6.9375 5.91185 6.9375 6.85714H2.1875Z" fill="#EE4036"/>
</svg>
