<svg width="7" height="14" viewBox="0 0 7 14" fill="none" xmlns="http://www.w3.org/2000/svg">
<path d="M0.58338 14C0.659992 14.0001 0.735863 13.9837 0.806637 13.9517C0.877411 13.9197 0.941694 13.8727 0.995791 13.8135L6.82903 7.44993C6.88323 7.39087 6.92623 7.32074 6.95556 7.24354C6.9849 7.16634 7 7.08359 7 7.00002C7 6.91645 6.9849 6.8337 6.95556 6.7565C6.92623 6.6793 6.88323 6.60917 6.82903 6.55011L0.995791 0.186494C0.767857 -0.0621646 0.398758 -0.0621646 0.17097 0.186494C-0.056818 0.435152 -0.0569639 0.83781 0.17097 1.08631L5.5918 7.00002L0.17097 12.9137C0.11677 12.9728 0.0737724 13.0429 0.044436 13.1201C0.0150995 13.1973 0 13.2801 0 13.3636C0 13.4472 0.0150995 13.53 0.044436 13.6072C0.0737724 13.6844 0.11677 13.7545 0.17097 13.8135C0.225067 13.8727 0.289349 13.9197 0.360124 13.9517C0.430898 13.9837 0.506769 14.0001 0.58338 14Z" fill="#626262"/>
</svg>
