<svg width="18" height="18" viewBox="0 0 18 18" fill="none" xmlns="http://www.w3.org/2000/svg">
<path d="M14.5086 14.5394C14.5711 14.4791 14.6667 14.4797 14.7286 14.5412L14.756 14.5684L14.7861 14.5926L17.1322 16.4864L17.1867 16.5305C17.2915 16.7148 17.2662 16.9557 17.1109 17.1127C16.934 17.2915 16.653 17.2957 16.4713 17.1253L14.5433 14.9157L14.5433 14.9157L14.5395 14.9113L14.4845 14.8493C14.4566 14.8093 14.4407 14.7603 14.4407 14.7089C14.4407 14.644 14.466 14.5833 14.5086 14.5394ZM7.87742 0.75C9.76513 0.75 11.5772 1.50788 12.9144 2.85955C14.252 4.2115 15.0048 6.04681 15.0048 7.96218C15.0048 11.9529 11.8062 15.1744 7.87742 15.1744C3.9486 15.1744 0.75 11.9529 0.75 7.96218C0.75 3.97141 3.9486 0.75 7.87742 0.75Z" stroke="#242424" stroke-opacity="0.8" stroke-width="1.5"/>
</svg>
