<svg width="24" height="24" viewBox="0 0 24 24" fill="none" xmlns="http://www.w3.org/2000/svg">
<path d="M20.7124 9.85918L19.872 10.5279C18.9133 11.2906 18.9133 12.7094 19.872 13.4721L20.7124 14.1408C21.0102 14.3778 21.0871 14.7881 20.8942 15.111L19.2348 17.889C19.0418 18.2119 18.6357 18.3527 18.2745 18.2219L17.2551 17.8528C16.0923 17.4318 14.821 18.1411 14.6168 19.3249L14.4379 20.3627C14.3745 20.7304 14.0453 21 13.6595 21H10.3405C9.95474 21 9.6255 20.7304 9.5621 20.3627L9.38312 19.3249C9.179 18.1411 7.90771 17.4318 6.74492 17.8528L5.72557 18.2219C5.36429 18.3527 4.95815 18.2119 4.76524 17.889L3.10576 15.111C2.91289 14.7881 2.9898 14.3778 3.28763 14.1408L4.12808 13.4721C5.08671 12.7094 5.08671 11.2906 4.12808 10.5279L3.28763 9.85918C2.9898 9.62221 2.91289 9.21187 3.10576 8.88898L4.76524 6.11099C4.95815 5.78809 5.36429 5.6473 5.72557 5.7781L6.74492 6.14718C7.90771 6.5682 9.179 5.85883 9.38312 4.67507L9.5621 3.63729C9.6255 3.26954 9.95474 3 10.3405 3H13.6595C14.0453 3 14.3745 3.26954 14.4379 3.63729L14.6168 4.67507C14.821 5.85883 16.0923 6.5682 17.2551 6.14718L18.2745 5.7781C18.6357 5.6473 19.0418 5.78809 19.2348 6.11099L20.8942 8.88898C21.0871 9.21187 21.0102 9.62221 20.7124 9.85918Z" stroke="#0D1442" stroke-width="1.3" stroke-miterlimit="10" stroke-linecap="round" stroke-linejoin="round"/>
<path d="M11.9995 8.99998C10.2853 8.99998 8.89551 10.3431 8.89551 12C8.89551 13.6568 10.2853 15 11.9995 15C13.7138 15 15.1036 13.6568 15.1036 12C15.1036 10.3431 13.7138 8.99998 11.9995 8.99998Z" stroke="#EE4036" stroke-width="1.3" stroke-miterlimit="10" stroke-linecap="round" stroke-linejoin="round"/>
</svg>
