<svg width="24" height="24" viewBox="0 0 24 24" fill="none" xmlns="http://www.w3.org/2000/svg">
<path d="M22.7238 13.9877L22.7168 13.9912C21.8942 14.6221 21.5456 15.6956 21.8385 16.6891L21.8419 16.6961C22.309 18.2751 21.1518 19.868 19.5065 19.9099H19.4995C18.4608 19.9378 17.5475 20.6 17.2024 21.5795V21.583C16.6516 23.1376 14.7764 23.7476 13.4205 22.8099C12.5785 22.235 11.4654 22.205 10.5796 22.8099H10.5761C9.22022 23.7441 7.34489 23.1376 6.79762 21.5795C6.62871 21.1014 6.31869 20.6858 5.90854 20.3877C5.49839 20.0896 5.00744 19.923 4.50056 19.9099H4.49358C2.84836 19.868 1.69106 18.2751 2.15817 16.6961L2.16164 16.6891C2.45437 15.6956 2.10581 14.622 1.28325 13.9911L1.27627 13.9877C-0.0308906 12.9837 -0.0308906 11.0179 1.27627 10.014L1.28325 10.0105C2.10581 9.37962 2.45437 8.30599 2.15817 7.31257V7.30559C1.68755 5.7266 2.84831 4.1336 4.49358 4.09179H4.50056C5.5358 4.0639 6.45253 3.4016 6.79762 2.42215V2.41868C7.34484 0.864069 9.22022 0.254085 10.5761 1.19177H10.5796C11.4336 1.78085 12.5629 1.78085 13.4205 1.19177C14.79 0.245976 16.6549 0.873398 17.2024 2.41868V2.42215C17.5475 3.39813 18.4607 4.06394 19.4995 4.09179H19.5065C21.1517 4.1336 22.309 5.7266 21.8419 7.30559L21.8385 7.31257C21.5456 8.30599 21.8942 9.37962 22.7168 10.0105L22.7238 10.014C24.031 11.0179 24.031 12.9838 22.7238 13.9877Z" fill="#3EB655"/>
<path d="M11.9998 18.493C15.5858 18.493 18.4928 15.586 18.4928 12.0001C18.4928 8.41409 15.5858 5.50708 11.9998 5.50708C8.41384 5.50708 5.50684 8.41409 5.50684 12.0001C5.50684 15.586 8.41384 18.493 11.9998 18.493Z" fill="#8BD399"/>
<path d="M16.9853 7.84369C15.8622 6.91978 14.4254 6.36445 12.859 6.36445C9.27305 6.36445 6.36445 9.27305 6.36445 12.859C6.36445 14.4254 6.91978 15.8622 7.84364 16.9853C6.41672 15.795 5.50781 14.0045 5.50781 11.9999C5.50781 8.41388 8.41392 5.50781 11.9999 5.50781C14.0045 5.50781 15.795 6.41672 16.9853 7.84369Z" fill="black" fill-opacity="0.0627451"/>
<path d="M10.4556 14.5418L9.0198 13.0142C8.64377 12.6141 8.66318 11.985 9.06316 11.6089C9.46315 11.2324 10.0925 11.2526 10.4682 11.6525L11.1536 12.3814L14.0671 9.05147C14.4282 8.63822 15.0563 8.59632 15.4699 8.95796C15.8831 9.3196 15.9249 9.94753 15.5634 10.3608L11.928 14.5155C11.5407 14.9577 10.8573 14.9693 10.4556 14.5418Z" fill="white"/>
</svg>
