<svg width="20" height="24" viewBox="0 0 20 24" fill="none" xmlns="http://www.w3.org/2000/svg">
<path d="M19.2614 16.594C19.3232 16.4408 19.295 16.2342 19.295 16.0732V3.40847C19.295 2.89738 19.3116 2.3832 19.295 1.87233C19.295 1.29056 18.8011 0.989319 18.2795 0.989319H5.7977C5.23243 0.989319 4.91138 1.46298 4.91138 1.98089V12.9342C4.91138 13.3733 5.50703 13.5464 5.73207 13.1624C5.79241 13.0593 5.79219 12.9536 5.79219 12.8413L5.79351 6.01281L5.79417 2.54924V1.88114C5.79439 1.85626 6.11589 1.87013 6.14782 1.87013L13.3297 1.87145L17.0732 1.87211L18.1498 1.87233C18.2042 1.87233 18.414 1.83424 18.414 1.9036V15.6273C18.414 15.6412 17.1718 15.6339 17.0765 15.6339C16.5562 15.6339 15.7553 15.484 15.4226 15.9951C15.281 16.2124 15.2948 16.4513 15.2948 16.6966V18.5891C15.2948 18.7005 15.3349 18.7533 15.2224 18.7533H10.4515C9.98266 18.7533 9.83248 19.4135 10.2718 19.5996C10.3865 19.6482 10.5241 19.6341 10.6463 19.6341H15.9006C16.123 19.6341 16.2939 19.609 16.4608 19.4421L17.3841 18.5188L18.6241 17.2788C18.8179 17.0848 19.1493 16.8556 19.2614 16.594C19.2671 16.5797 19.2548 16.6092 19.2614 16.594ZM18.1427 16.5147L16.1756 18.4818V16.8305C16.1756 16.7856 16.1424 16.5482 16.1756 16.5147C16.2056 16.4848 16.4185 16.5147 16.4586 16.5147H17.1371H18.1427Z" fill="#0D1442"/>
<path d="M19.2614 16.594C19.3232 16.4408 19.295 16.2342 19.295 16.0732V3.40847C19.295 2.89738 19.3116 2.3832 19.295 1.87233C19.295 1.29056 18.8011 0.989319 18.2795 0.989319H5.7977C5.23243 0.989319 4.91138 1.46298 4.91138 1.98089V12.9342C4.91138 13.3733 5.50703 13.5464 5.73207 13.1624C5.79241 13.0593 5.79219 12.9536 5.79219 12.8413L5.79351 6.01281L5.79417 2.54924V1.88114C5.79439 1.85626 6.11589 1.87013 6.14782 1.87013L13.3297 1.87145L17.0732 1.87211L18.1498 1.87233C18.2042 1.87233 18.414 1.83424 18.414 1.9036V15.6273C18.414 15.6412 17.1718 15.6339 17.0765 15.6339C16.5562 15.6339 15.7553 15.484 15.4226 15.9951C15.281 16.2124 15.2948 16.4513 15.2948 16.6966V18.5891C15.2948 18.7005 15.3349 18.7533 15.2224 18.7533H10.4515C9.98266 18.7533 9.83248 19.4135 10.2718 19.5996C10.3865 19.6482 10.5241 19.6341 10.6463 19.6341H15.9006C16.123 19.6341 16.2939 19.609 16.4608 19.4421L17.3841 18.5188L18.6241 17.2788C18.8179 17.0848 19.1493 16.8556 19.2614 16.594ZM19.2614 16.594C19.2548 16.6092 19.2671 16.5797 19.2614 16.594ZM18.1427 16.5147L16.1756 18.4818V16.8305C16.1756 16.7856 16.1424 16.5482 16.1756 16.5147C16.2056 16.4848 16.4185 16.5147 16.4586 16.5147H17.1371H18.1427Z" stroke="#0D1442" stroke-width="0.2"/>
<path d="M5.21351 13.9943C3.21076 13.9943 1.39959 15.3741 0.867139 17.305C0.329843 19.2543 1.19876 21.3719 2.94013 22.3933C4.68854 23.4185 6.96831 23.119 8.39963 21.6877C9.83095 20.2564 10.1306 17.9766 9.10516 16.2284C8.30208 14.8592 6.80161 13.9943 5.21351 13.9943ZM5.21351 22.1288C3.1676 22.1288 1.48833 20.3597 1.59117 18.3171C1.694 16.2747 3.54679 14.6879 5.58015 14.8929C7.4761 15.0838 8.93186 16.7845 8.83607 18.6861C8.74028 20.588 7.11672 22.1288 5.21351 22.1288Z" fill="#0D1442" stroke="#0D1442" stroke-width="0.2"/>
<path d="M7.3421 16.7187C7.02677 16.4677 6.76648 16.7342 6.57865 16.9696L5.90703 17.8112L4.73709 19.2771L3.86377 18.3866C3.73627 18.2566 3.61252 18.0919 3.42006 18.0653C3.0118 18.0091 2.75879 18.5178 3.04637 18.8109L3.88843 19.6692L4.36077 20.1508C4.47615 20.2686 4.58956 20.3809 4.77078 20.3809C5.05132 20.3827 5.21449 20.0912 5.3682 19.8985L6.26332 18.7768L7.15867 17.6548C7.36632 17.3941 7.72437 17.0235 7.3421 16.7187C7.53235 16.8705 7.15184 16.5672 7.3421 16.7187ZM7.0675 3.75142H16.6474C16.9476 3.75142 17.3488 3.80713 17.4532 3.42794C17.5967 2.90628 17.061 2.87061 16.717 2.87061H7.0838C6.50709 2.87061 6.48859 3.75142 7.0675 3.75142ZM7.0675 5.67445H14.7127C15.3513 5.67445 15.3229 4.79364 14.696 4.79364H7.18289C7.1056 4.79364 7.02566 4.7888 6.95035 4.80927C6.46965 4.94184 6.56874 5.67445 7.0675 5.67445ZM7.0675 7.59749H10.286C10.5324 7.59749 10.7896 7.55851 10.868 7.27423C10.964 6.92565 10.6628 6.71667 10.3567 6.71667H7.22495C7.09393 6.71667 6.96423 6.70721 6.84554 6.77679C6.46723 6.99853 6.62864 7.59749 7.0675 7.59749ZM7.0675 9.52074H11.997C12.2727 9.52074 12.7974 9.61389 13.0365 9.42892C13.3759 9.16643 13.1634 8.63993 12.7516 8.63993H7.15118C7.02478 8.63993 6.90477 8.6494 6.79819 8.73175C6.47339 8.98278 6.65638 9.52074 7.0675 9.52074ZM7.0675 11.4438H16.069C16.4294 11.4438 16.6668 11.0333 16.4354 10.7343C16.324 10.5903 16.1648 10.563 15.9981 10.563H7.08534C6.50797 10.563 6.48749 11.4438 7.0675 11.4438Z" fill="#EE4036"/>
<path d="M7.3421 16.7187C7.02677 16.4677 6.76648 16.7342 6.57865 16.9696L5.90703 17.8112L4.73709 19.2771L3.86377 18.3866C3.73627 18.2566 3.61252 18.0919 3.42006 18.0653C3.0118 18.0091 2.75879 18.5178 3.04637 18.8109L3.88843 19.6692L4.36077 20.1508C4.47615 20.2686 4.58956 20.3809 4.77078 20.3809C5.05132 20.3827 5.21449 20.0912 5.3682 19.8985L6.26332 18.7768L7.15867 17.6548C7.36632 17.3941 7.72437 17.0235 7.3421 16.7187ZM7.3421 16.7187C7.15184 16.5672 7.53235 16.8705 7.3421 16.7187ZM7.0675 3.75142H16.6474C16.9476 3.75142 17.3488 3.80713 17.4532 3.42794C17.5967 2.90628 17.061 2.87061 16.717 2.87061H7.0838C6.50709 2.87061 6.48859 3.75142 7.0675 3.75142ZM7.0675 5.67445H14.7127C15.3513 5.67445 15.3229 4.79364 14.696 4.79364H7.18289C7.1056 4.79364 7.02566 4.7888 6.95035 4.80927C6.46965 4.94184 6.56874 5.67445 7.0675 5.67445ZM7.0675 7.59749H10.286C10.5324 7.59749 10.7896 7.55851 10.868 7.27423C10.964 6.92565 10.6628 6.71667 10.3567 6.71667H7.22495C7.09393 6.71667 6.96423 6.70721 6.84554 6.77679C6.46723 6.99853 6.62864 7.59749 7.0675 7.59749ZM7.0675 9.52074H11.997C12.2727 9.52074 12.7974 9.61389 13.0365 9.42892C13.3759 9.16643 13.1634 8.63993 12.7516 8.63993H7.15118C7.02478 8.63993 6.90477 8.6494 6.79819 8.73175C6.47339 8.98278 6.65638 9.52074 7.0675 9.52074ZM7.0675 11.4438H16.069C16.4294 11.4438 16.6668 11.0333 16.4354 10.7343C16.324 10.5903 16.1648 10.563 15.9981 10.563H7.08534C6.50797 10.563 6.48749 11.4438 7.0675 11.4438Z" stroke="#EE4036" stroke-width="0.2"/>
</svg>
