<svg width="14" height="9" viewBox="0 0 14 9" fill="none" xmlns="http://www.w3.org/2000/svg">
<path d="M7.25061 1.00005C7.174 0.999969 7.09813 1.01503 7.02735 1.04436C6.95658 1.07369 6.89229 1.11671 6.8382 1.17096L1.00494 7.00423C0.777001 7.23216 0.777001 7.60126 1.00494 7.82905C1.23287 8.05684 1.60197 8.05698 1.82976 7.82905L7.25061 2.4082L12.6715 7.82905C12.8994 8.05698 13.2685 8.05698 13.4963 7.82905C13.7241 7.60111 13.7242 7.23201 13.4963 7.00423L7.66302 1.17096C7.60892 1.11671 7.54464 1.07369 7.47387 1.04436C7.40309 1.01503 7.32722 0.999969 7.25061 1.00005Z" fill="#646779" stroke="#646779" stroke-width="0.5"/>
</svg>
