<svg width="13" height="13" viewBox="0 0 13 13" fill="none" xmlns="http://www.w3.org/2000/svg">
<path d="M9.06359 3.46946C9.06359 4.87509 7.91797 6.02071 6.51234 6.02071C5.10672 6.02071 3.95703 4.87509 3.95703 3.46946C3.95703 2.06384 5.10266 0.918213 6.51234 0.918213C7.92203 0.918213 9.06359 2.05978 9.06359 3.46946Z" fill="#646779"/>
<path d="M10.6072 10.6886C9.48598 11.7083 8.0316 12.269 6.51222 12.269C4.99285 12.269 3.53847 11.7083 2.41722 10.6886C2.00691 10.319 1.89722 9.70552 2.15316 9.2302C2.90472 7.84489 4.35097 6.98364 5.92722 6.98364H7.09722C8.66941 6.98364 10.1157 7.84489 10.8713 9.2302C11.1272 9.70552 11.0175 10.319 10.6072 10.6886Z" fill="#646779"/>
</svg>
