<svg width="26" height="26" viewBox="0 0 26 26" fill="none" xmlns="http://www.w3.org/2000/svg">
<path d="M5.33898 3.25C2.99591 3.25 1.08301 5.1629 1.08301 7.50597V19.4226C1.08301 21.7657 2.99591 23.6786 5.33898 23.6786H20.6604C23.0034 23.6786 24.9163 21.7657 24.9163 19.4226V7.50597C24.9163 5.1629 23.0034 3.25 20.6604 3.25H5.33898ZM5.33898 4.95241H20.6604C22.0898 4.95241 23.214 6.07658 23.214 7.50597V9.20833H16.4044C14.0614 9.20833 12.1485 11.1212 12.1485 13.4643C12.1485 15.8074 14.0614 17.7203 16.4044 17.7203H23.214V19.4226C23.214 20.852 22.0898 21.9762 20.6604 21.9762H5.33898C3.90959 21.9762 2.78542 20.852 2.78542 19.4226V7.50597C2.78537 6.07658 3.90954 4.95241 5.33898 4.95241ZM16.4044 10.9107H23.214V16.0179H16.4044C14.975 16.0179 13.8509 14.8937 13.8509 13.4643C13.8509 12.0349 14.975 10.9107 16.4044 10.9107Z" fill="white"/>
<path d="M17.2561 13.4645C17.2561 13.9346 16.875 14.3157 16.4049 14.3157C15.9348 14.3157 15.5537 13.9346 15.5537 13.4645C15.5537 12.9944 15.9348 12.6133 16.4049 12.6133C16.875 12.6133 17.2561 12.9944 17.2561 13.4645Z" fill="white"/>
</svg>
