<svg width="39" height="39" viewBox="0 0 39 39" fill="none" xmlns="http://www.w3.org/2000/svg">
<path d="M38.1461 19.332L38.1463 19.3235L38.1461 19.315C37.7132 -5.80805 0.902461 -5.73549 0.500064 19.3156L0.499938 19.3235L0.50006 19.3314C0.888018 44.38 37.7291 44.4554 38.1461 19.332Z" fill="url(#paint0_linear_422_437)" stroke="white"/>
<path opacity="0.45" d="M37.6453 19.1798C37.8364 40.6406 7.18385 44.6826 1.73291 24.4683C14.4644 28.7781 29.5469 22.3089 35.5782 10.5287C36.936 13.1828 37.6467 16.1573 37.6453 19.1798V19.1798Z" fill="url(#paint1_linear_422_437)"/>
<g opacity="0.2">
<path opacity="0.6" d="M9.85828 29.6901C6.60038 29.2918 3.70339 25.5674 4.50572 22.2582C6.66563 24.214 8.89909 26.9417 9.85828 29.6901Z" fill="white"/>
<path opacity="0.2" d="M28.6589 5.4075C25.8222 3.62918 22.4383 2.93604 19.1309 3.45581C26.4976 5.26036 32.8204 10.4602 34.2613 18.1018C36.1297 13.6307 32.4332 7.81865 28.6589 5.4075Z" fill="white"/>
</g>
<path d="M28.0005 18.723V20.577C28.0005 21.072 27.6045 21.477 27.1005 21.495H25.3365C24.3645 21.495 23.4735 20.784 23.3925 19.812C23.3385 19.245 23.5545 18.714 23.9325 18.345C24.2655 18.003 24.7245 17.805 25.2285 17.805H27.1005C27.6045 17.823 28.0005 18.228 28.0005 18.723Z" fill="white"/>
<path d="M26.623 22.845H25.336C23.626 22.845 22.186 21.558 22.042 19.92C21.961 18.984 22.303 18.048 22.987 17.382C23.563 16.788 24.364 16.455 25.228 16.455H26.623C26.884 16.455 27.1 16.239 27.073 15.978C26.875 13.791 25.426 12.297 23.275 12.045C23.059 12.009 22.834 12 22.6 12H14.5C14.248 12 14.005 12.018 13.771 12.054C11.476 12.342 10 14.052 10 16.5V22.8C10 25.284 12.016 27.3 14.5 27.3H22.6C25.12 27.3 26.857 25.725 27.073 23.322C27.0781 23.2604 27.0701 23.1984 27.0497 23.14C27.0292 23.0816 26.9967 23.0282 26.9543 22.9833C26.9118 22.9383 26.8604 22.9027 26.8033 22.8789C26.7463 22.8551 26.6848 22.8435 26.623 22.845ZM19.9 17.625H14.5C14.131 17.625 13.825 17.319 13.825 16.95C13.825 16.581 14.131 16.275 14.5 16.275H19.9C20.269 16.275 20.575 16.581 20.575 16.95C20.575 17.319 20.269 17.625 19.9 17.625Z" fill="white"/>
<defs>
<linearGradient id="paint0_linear_422_437" x1="19.3231" y1="1" x2="19.3231" y2="37.6462" gradientUnits="userSpaceOnUse">
<stop stop-color="#FF8B00"/>
<stop offset="0.9998" stop-color="#EF463C"/>
<stop offset="0.9999" stop-color="#EF453B"/>
<stop offset="1" stop-color="#EE4036"/>
</linearGradient>
<linearGradient id="paint1_linear_422_437" x1="59836.1" y1="4556.35" x2="59344.4" y2="9518.22" gradientUnits="userSpaceOnUse">
<stop stop-color="#FFEF00"/>
<stop offset="0.16" stop-color="#FFC500"/>
<stop offset="0.34" stop-color="#FF9D00"/>
<stop offset="0.52" stop-color="#FF7E00"/>
<stop offset="0.69" stop-color="#FF6700"/>
<stop offset="0.85" stop-color="#FF5A00"/>
<stop offset="1" stop-color="#FF5500"/>
</linearGradient>
</defs>
</svg>
