<svg width="41" height="41" viewBox="0 0 41 41" fill="none" xmlns="http://www.w3.org/2000/svg">
<path d="M39.6201 20.3106C39.1922 46.0863 1.3983 46.0269 1 20.3106C1.4131 -5.40714 39.1759 -5.46661 39.6201 20.3106Z" fill="url(#paint0_linear_422_2249)" stroke="white" stroke-width="1.5"/>
<path opacity="0.1" d="M39.6188 20.1585C39.8202 42.7753 7.51652 47.035 1.77197 25.7318C15.1892 30.2738 31.0841 23.4561 37.4403 11.0414C38.8712 13.8385 39.6202 16.9732 39.6188 20.1585Z" fill="white"/>
<g opacity="0.2">
<path opacity="0.6" d="M10.3355 31.2347C6.90212 30.8149 3.84909 26.89 4.69464 23.4025C6.97089 25.4637 9.32466 28.3382 10.3355 31.2347Z" fill="white"/>
<path opacity="0.2" d="M30.1484 5.64474C27.1589 3.77063 23.5928 3.04015 20.1072 3.58792C27.8707 5.48967 34.5341 10.9696 36.0526 19.0228C38.0216 14.3109 34.126 8.18576 30.1484 5.64474Z" fill="white"/>
</g>
<path d="M18.9762 24.0414C18.6737 24.0414 18.4263 24.2861 18.4263 24.5913C18.4263 24.8965 18.671 25.1413 18.9762 25.1413H21.6543C21.9567 25.1413 22.2042 24.8965 22.2042 24.5913C22.2042 24.2861 21.9595 24.0414 21.6543 24.0414H18.9762ZM14.9591 13.0102H25.6686C25.9711 13.0102 26.2185 12.7655 26.2185 12.4603C26.2185 12.1551 25.9738 11.9104 25.6686 11.9104H14.9591C14.8132 11.9104 14.6734 11.9683 14.5702 12.0715C14.4671 12.1746 14.4092 12.3145 14.4092 12.4603C14.4092 12.6062 14.4671 12.746 14.5702 12.8492C14.6734 12.9523 14.8132 13.0102 14.9591 13.0102ZM24.5055 28.6854H23.8401V26.7882C23.8401 26.6424 23.7822 26.5025 23.6791 26.3994C23.576 26.2963 23.4361 26.2383 23.2902 26.2383H21.503V25.6912H19.1247V26.2383H17.3375C17.1916 26.2383 17.0517 26.2963 16.9486 26.3994C16.8455 26.5025 16.7875 26.6424 16.7875 26.7882V28.6854H16.1194C15.9682 28.6854 15.8444 28.8092 15.8444 28.9604C15.8444 29.1116 15.9682 29.2353 16.1194 29.2353H24.5C24.6513 29.2353 24.775 29.1116 24.775 28.9604C24.775 28.8092 24.6568 28.6854 24.5055 28.6854ZM22.6001 28.3445H18.0303C17.8791 28.3445 17.7554 28.2208 17.7554 28.0695C17.7554 27.9183 17.8791 27.7946 18.0303 27.7946H22.5973C22.7486 27.7946 22.8723 27.9183 22.8723 28.0695C22.8723 28.2208 22.7513 28.3445 22.6001 28.3445ZM22.6001 27.4069H18.0303C17.8791 27.4069 17.7554 27.2832 17.7554 27.1319C17.7554 26.9807 17.8791 26.857 18.0303 26.857H22.5973C22.7486 26.857 22.8723 26.9807 22.8723 27.1319C22.8723 27.2832 22.7513 27.4069 22.6001 27.4069ZM16.2871 21.5531C15.965 21.1348 15.6667 20.6988 15.3935 20.247C14.3432 20.1618 13.4358 19.3864 13.2351 18.3031C13.0729 17.415 13.4276 16.5489 14.0847 16.0182C14.0682 15.4986 14.104 14.9569 14.1947 14.3932C12.5697 15.0421 11.5634 16.7634 11.8933 18.5506C12.2673 20.5852 14.2277 21.9353 16.2624 21.5613C16.2706 21.5558 16.2789 21.5531 16.2871 21.5531ZM26.4357 14.3905C26.5265 14.9542 26.5622 15.4931 26.5457 16.0155C27.2029 16.5489 27.5575 17.4123 27.3953 18.3004C27.1946 19.3864 26.2873 20.1618 25.2369 20.2443C24.9675 20.6925 24.6678 21.1297 24.3433 21.5503C24.3516 21.5531 24.3598 21.5558 24.3681 21.5558C26.4027 21.9298 28.3632 20.5797 28.7371 18.5451C29.0671 16.7606 28.0607 15.0394 26.4357 14.3905ZM20.318 14.264C20.3537 14.2613 20.4637 14.22 20.5352 14.1925C20.7002 14.1293 20.9036 14.0523 21.1318 14.0523H21.1373V13.5629H19.4931V14.0551H19.4986C19.7268 14.0551 19.9303 14.132 20.0953 14.1953C20.1667 14.22 20.2767 14.2613 20.318 14.264Z" fill="white"/>
<path d="M25.6931 13.5574C25.6849 13.5574 25.6794 13.5601 25.6711 13.5601H21.687V14.2365C21.874 14.3712 21.995 14.5582 22.0884 14.7039C22.1269 14.7672 22.1874 14.8579 22.2149 14.8827C22.2397 14.8964 22.3497 14.9267 22.4211 14.9459C22.6604 15.0091 22.9875 15.0971 23.202 15.3913C23.4137 15.6855 23.3972 16.021 23.3862 16.2684C23.3807 16.3427 23.3752 16.4582 23.3835 16.4939C23.3972 16.5186 23.4632 16.6011 23.5072 16.6561C23.6667 16.8513 23.8839 17.118 23.8839 17.4892C23.8839 17.8632 23.6667 18.1271 23.5072 18.3224C23.4632 18.3773 23.3972 18.4598 23.3807 18.4928C23.3752 18.5203 23.3807 18.6358 23.3862 18.71C23.3972 18.9575 23.4137 19.2957 23.202 19.5871C22.9875 19.8813 22.6604 19.9693 22.4211 20.0353C22.3497 20.0518 22.2397 20.0821 22.2094 20.1013C22.1874 20.1206 22.1269 20.214 22.0884 20.2745C21.9537 20.4835 21.7667 20.7695 21.4176 20.8849C21.3268 20.9124 21.2306 20.9289 21.1316 20.9289C20.9034 20.9289 20.6999 20.8492 20.5349 20.7887C20.4635 20.7585 20.3535 20.7172 20.3122 20.7172C20.2765 20.7172 20.1665 20.7585 20.095 20.7887C19.93 20.8492 19.7266 20.9289 19.4984 20.9289C19.3994 20.9289 19.3031 20.9124 19.2124 20.8849C18.8632 20.7695 18.6762 20.4835 18.5415 20.2745C18.503 20.214 18.4425 20.1206 18.415 20.0958C18.3903 20.0821 18.2803 20.0518 18.2088 20.0353C17.9696 19.9693 17.6424 19.8813 17.428 19.5871C17.2162 19.2957 17.2327 18.9575 17.2437 18.71C17.2492 18.6358 17.2547 18.5231 17.2437 18.4846C17.2327 18.4598 17.1667 18.3773 17.1227 18.3224C16.9633 18.1271 16.7461 17.8632 16.7461 17.4892C16.7461 17.118 16.9633 16.8513 17.1227 16.6561C17.1667 16.6011 17.2327 16.5186 17.2492 16.4856C17.2547 16.4582 17.2492 16.3427 17.2437 16.2684C17.2327 16.021 17.2162 15.6855 17.428 15.3913C17.6424 15.0971 17.9696 15.0091 18.2088 14.9459C18.2803 14.9267 18.3903 14.8964 18.4205 14.8772C18.4425 14.8579 18.503 14.7672 18.5415 14.7039C18.635 14.5582 18.756 14.3712 18.943 14.2365V13.5601H14.9589C14.9506 13.5601 14.9451 13.5574 14.9369 13.5574C13.7985 17.8357 16.1219 20.8519 18.778 23.5108C18.8412 23.4998 18.9072 23.4915 18.9759 23.4915H21.654C21.7228 23.4915 21.7887 23.4998 21.852 23.5108C24.5081 20.8519 26.8314 17.8357 25.6931 13.5574Z" fill="white"/>
<path d="M19.3835 14.6187C19.0976 14.7122 18.9821 15.1494 18.7429 15.3254C18.5009 15.5013 18.05 15.4738 17.874 15.7158C17.7008 15.955 17.863 16.3757 17.7696 16.6617C17.6788 16.9394 17.2966 17.1813 17.2966 17.4893C17.2966 17.7972 17.6788 18.0392 17.7696 18.3169C17.863 18.6028 17.7008 19.0235 17.874 19.2627C18.05 19.5047 18.5009 19.4772 18.7429 19.6532C18.9821 19.8264 19.0948 20.2663 19.3835 20.3598C19.6612 20.4505 20.0104 20.1646 20.3156 20.1646C20.6236 20.1646 20.97 20.4505 21.2477 20.3598C21.5337 20.2663 21.6492 19.8291 21.8884 19.6532C22.1303 19.4772 22.5813 19.5047 22.7572 19.2627C22.9305 19.0235 22.7682 18.6028 22.8617 18.3169C22.9525 18.0392 23.3347 17.7972 23.3347 17.4893C23.3347 17.1813 22.9525 16.9394 22.8617 16.6617C22.7682 16.3757 22.9305 15.955 22.7572 15.7158C22.5813 15.4738 22.1303 15.5013 21.8884 15.3254C21.6492 15.1522 21.5364 14.7122 21.2477 14.6187C20.97 14.528 20.6208 14.814 20.3156 14.814C20.0077 14.814 19.6612 14.5308 19.3835 14.6187ZM20.1204 15.8808C20.1383 15.8442 20.166 15.8134 20.2005 15.7918C20.2351 15.7702 20.2749 15.7588 20.3156 15.7588C20.3563 15.7588 20.3962 15.7702 20.4307 15.7918C20.4653 15.8134 20.493 15.8442 20.5109 15.8808L20.9673 16.8019L21.9846 16.9504C22.1633 16.9751 22.2348 17.1951 22.1056 17.3215L21.3687 18.0392L21.5419 19.0538C21.5722 19.2297 21.3852 19.3672 21.2285 19.282L20.3156 18.8036L19.4055 19.282C19.2461 19.3645 19.0591 19.2297 19.0921 19.0538L19.2653 18.0392L18.5284 17.3215C18.4994 17.2932 18.4789 17.2572 18.4692 17.2178C18.4595 17.1783 18.4611 17.137 18.4736 17.0984C18.4862 17.0598 18.5094 17.0255 18.5404 16.9993C18.5715 16.9731 18.6092 16.9562 18.6494 16.9504L19.6667 16.8019L20.1204 15.8808Z" fill="white"/>
<defs>
<linearGradient id="paint0_linear_422_2249" x1="20.3101" y1="1" x2="20.3101" y2="39.6201" gradientUnits="userSpaceOnUse">
<stop stop-color="#0D1443"/>
<stop offset="1" stop-color="#273179"/>
</linearGradient>
</defs>
</svg>
