<svg width="19" height="25" viewBox="0 0 19 25" fill="none" xmlns="http://www.w3.org/2000/svg">
<path d="M4.40137 24.5485V16.0398H14.1815V24.5485L9.29142 21.7123L4.40137 24.5485Z" fill="#DB3328"/>
<path d="M4.40137 18.4066L6.87573 18.0741L9.29142 20.2941L11.7071 18.0741L14.1815 18.4066V16.0398H4.40137V18.4066Z" fill="#B5100B"/>
<path d="M6.45508 23.3553V16.0398H12.1275L12.1324 23.3602L9.29131 21.7123L6.45508 23.3553Z" fill="#1F3F77"/>
<path d="M12.1275 16.0398H6.45508V18.1327L6.88051 18.0741L9.2962 20.2941L11.707 18.0741L12.1275 18.1278V16.0398Z" fill="#0A2751"/>
<path d="M9.29109 0L11.7068 2.22008L15.032 1.77509L15.6139 4.92428L18.5822 6.42063L17.1054 9.29109L18.5822 12.1616L15.6139 13.6579L15.032 16.8071L11.7068 16.3621L9.29109 18.5822L6.87541 16.3621L3.55018 16.8071L2.96826 13.6579L0 12.1616L1.47679 9.29109L0 6.42063L2.96826 4.92428L3.55018 1.77509L6.87541 2.22008L9.29109 0Z" fill="#F8D707"/>
<path d="M3.55018 1.7749L2.96826 4.9241L0 6.42045L0.396094 7.19308C1.1785 7.62829 2.07338 7.8728 3.03183 7.8728C6.03432 7.8728 8.46956 5.43755 8.46956 2.43506C8.46956 1.92161 8.39621 1.41793 8.26418 0.948486L6.8803 2.22479L3.55018 1.7749ZM2.73843 10.22C1.93646 10.22 1.20295 10.4939 0.621036 10.9584L0 12.1614L2.96826 13.6577L3.55018 16.8069L4.19077 16.7189C5.34971 16.1712 6.15168 14.9976 6.15168 13.6284C6.15168 11.7457 4.6211 10.22 2.73843 10.22Z" fill="#FFFA5A"/>
<path d="M9.29127 15.4038C12.6671 15.4038 15.4038 12.6671 15.4038 9.29127C15.4038 5.9154 12.6671 3.17871 9.29127 3.17871C5.9154 3.17871 3.17871 5.9154 3.17871 9.29127C3.17871 12.6671 5.9154 15.4038 9.29127 15.4038Z" fill="#F8961E"/>
<path d="M4.01002 9.29127C4.01002 6.05406 6.5235 3.40854 9.70693 3.19338C9.57 3.1836 9.43308 3.17871 9.29127 3.17871C5.91714 3.17871 3.17871 5.91714 3.17871 9.29127C3.17871 12.6654 5.91714 15.4038 9.29127 15.4038C9.43308 15.4038 9.57 15.3989 9.70693 15.3892C6.5235 15.174 4.01002 12.5285 4.01002 9.29127Z" fill="#E36414"/>
<path d="M9.29048 5.43823L10.4005 7.69255L12.8896 8.05441L11.09 9.80994L11.5155 12.2843L9.29048 11.1156L7.06551 12.2843L7.49094 9.80994L5.69141 8.05441L8.18044 7.69255L9.29048 5.43823Z" fill="#FFFA5A"/>
<path d="M9.29138 5.43823L10.4014 7.69255L12.8905 8.05441L11.0909 9.80994L11.5164 12.2843L9.29138 11.1156L7.06641 12.2843L9.29138 8.86127V5.43823Z" fill="#F8D707"/>
</svg>
