<svg width="20" height="20" viewBox="0 0 20 20" fill="none" xmlns="http://www.w3.org/2000/svg">
<path d="M3.56715 11.0904C2.35763 10.4523 0.152879 8.67139 0.000498855 4.08094C-0.00409208 3.92303 0.0230434 3.76581 0.0802989 3.61858C0.137554 3.47136 0.223766 3.33711 0.333831 3.2238C0.445557 3.10799 0.579441 3.01585 0.727513 2.95286C0.875585 2.88987 1.03482 2.85731 1.19573 2.85713H2.38144V4.2857H1.43859C1.46387 5.63005 1.82218 6.94714 2.48144 8.11901C2.64577 9.1709 3.01462 10.1804 3.56715 11.0904ZM20.0004 4.08094C19.848 8.67139 17.6433 10.4523 16.4338 11.0904C16.9863 10.1804 17.3551 9.1709 17.5195 8.11901C18.1787 6.94714 18.537 5.63005 18.5623 4.2857H17.6195V2.85713H18.8052C18.9661 2.85731 19.1253 2.88987 19.2734 2.95286C19.4215 3.01585 19.5554 3.10799 19.6671 3.2238C19.7771 3.33711 19.8634 3.47136 19.9206 3.61858C19.9779 3.76581 20.005 3.92303 20.0004 4.08094ZM14.2862 17.1428H13.3338C12.9549 17.1428 12.5915 16.9923 12.3236 16.7244C12.0557 16.4565 11.9052 16.0931 11.9052 15.7142V15.0052C10.6687 15.4166 9.33221 15.4166 8.0957 15.0052V15.7142C8.0957 16.0931 7.94519 16.4565 7.67729 16.7244C7.40938 16.9923 7.04602 17.1428 6.66714 17.1428H5.71476C5.40036 17.1428 5.08907 17.205 4.79886 17.326C4.50865 17.4469 4.24526 17.6241 4.0239 17.8474C3.80254 18.0706 3.62759 18.3355 3.50915 18.6268C3.3907 18.918 3.33111 19.2298 3.33382 19.5442C3.3378 19.6674 3.38988 19.784 3.47891 19.8692C3.56793 19.9544 3.68679 20.0014 3.81001 19.9999H16.1909C16.3141 20.0014 16.433 19.9544 16.522 19.8692C16.611 19.784 16.6631 19.6674 16.6671 19.5442C16.6698 19.2298 16.6102 18.918 16.4918 18.6268C16.3733 18.3355 16.1984 18.0706 15.977 17.8474C15.7557 17.6241 15.4923 17.4469 15.2021 17.326C14.9118 17.205 14.6006 17.1428 14.2862 17.1428ZM15.2385 0H4.76238C4.3835 0 4.02014 0.150509 3.75223 0.418417C3.48433 0.686325 3.33382 1.04969 3.33382 1.42857V6.86283C3.33382 9.25806 4.5181 11.4604 6.75904 13.2309C7.68087 13.9629 8.82333 14.3614 10.0005 14.3614C11.1776 14.3614 12.32 13.9629 13.2419 13.2309C15.4828 11.4604 16.6671 9.25806 16.6671 6.86283V1.42857C16.6671 1.04969 16.5166 0.686325 16.2487 0.418417C15.9808 0.150509 15.6174 0 15.2385 0ZM12.4338 6.49521L11.8181 7.29568C11.7513 7.38246 11.7165 7.48958 11.7195 7.59902L11.7471 8.60901C11.7492 8.68633 11.7324 8.763 11.6982 8.83238C11.664 8.90176 11.6134 8.96176 11.5508 9.0072C11.4882 9.05264 11.4155 9.08214 11.3389 9.09316C11.2624 9.10418 11.1843 9.09638 11.1114 9.07044L10.159 8.73234C10.0558 8.69566 9.94317 8.69566 9.83998 8.73234L8.8876 9.07044C8.81473 9.09638 8.73664 9.10418 8.66008 9.09316C8.58351 9.08214 8.51079 9.05264 8.44819 9.0072C8.38559 8.96176 8.335 8.90176 8.3008 8.83238C8.2666 8.763 8.24981 8.68633 8.25189 8.60901L8.27951 7.59902C8.2825 7.48958 8.24769 7.38246 8.18094 7.29568L7.56713 6.49521C7.51995 6.43392 7.48841 6.36207 7.47524 6.28585C7.46206 6.20964 7.46765 6.13136 7.49152 6.05779C7.51538 5.98423 7.55681 5.91758 7.61222 5.86361C7.66762 5.80965 7.73534 5.76999 7.80951 5.74807L8.77856 5.46236C8.8836 5.43136 8.97476 5.3651 9.03665 5.27474L9.60808 4.44189C9.65181 4.37805 9.71043 4.32583 9.77889 4.28975C9.84734 4.25366 9.92355 4.23481 10.0009 4.23481C10.0783 4.23481 10.1545 4.25366 10.223 4.28975C10.2914 4.32583 10.3501 4.37805 10.3938 4.44189L10.9652 5.27474C11.0271 5.3651 11.1183 5.43136 11.2233 5.46236L12.1924 5.74807C12.2664 5.7701 12.3341 5.80984 12.3894 5.86386C12.4447 5.91787 12.486 5.98453 12.5097 6.05809C12.5335 6.13164 12.539 6.20988 12.5258 6.28604C12.5125 6.3622 12.481 6.43399 12.4338 6.49521Z" fill="#242424"/>
</svg>
