<svg width="22" height="22" viewBox="0 0 22 22" fill="none" xmlns="http://www.w3.org/2000/svg">
<path d="M11.4332 4.88609L12.0618 5.80223C12.1299 5.90162 12.2301 5.97451 12.3457 6.00861L12.4871 5.52902C12.4819 5.52746 12.4773 5.52416 12.4743 5.51967L12.4741 5.51935L11.8457 4.60352M11.4332 4.88609L11.8457 4.60352M11.4332 4.88609L11.8455 4.60321L11.8457 4.60352M11.4332 4.88609L11.8457 4.60352M1.31587 3.64285L2.11959 3.64285V4.21428H1.58245H1.07296L1.08254 4.72368C1.11134 6.25506 1.51219 7.75598 2.24994 9.09721C2.33256 9.59491 2.45466 10.0841 2.6146 10.5604C1.60138 9.4647 0.604416 7.60284 0.500312 4.4736C0.497335 4.36707 0.515701 4.26101 0.554331 4.16168C0.593071 4.06206 0.651403 3.97123 0.725875 3.89456L0.725877 3.89456L0.727047 3.89335C0.803375 3.81423 0.89484 3.75128 0.995998 3.70825C1.0971 3.66524 1.20581 3.643 1.31568 3.64285C1.31574 3.64285 1.31581 3.64285 1.31587 3.64285ZM20.4186 4.21428H19.8815V3.64285L20.6852 3.64285C20.6853 3.64285 20.6853 3.64285 20.6854 3.64285C20.7953 3.643 20.904 3.66524 21.0051 3.70825L21.2008 3.24815L21.0051 3.70825C21.1062 3.75129 21.1977 3.81423 21.274 3.89335L21.2752 3.89456C21.3497 3.97123 21.408 4.06206 21.4467 4.16167C21.4853 4.26095 21.5037 4.36693 21.5008 4.4734C21.3967 7.60277 20.3997 9.46468 19.3865 10.5604C19.5464 10.0841 19.6685 9.59491 19.7511 9.09721C20.4889 7.75598 20.8897 6.25506 20.9185 4.72368L20.9281 4.21428H20.4186ZM9.4053 17.1646C10.4551 17.4053 11.546 17.4053 12.5958 17.1646V17.2857C12.5958 17.8351 12.814 18.3619 13.2025 18.7504C13.5909 19.1389 14.1178 19.3571 14.6672 19.3571H15.7148C15.9946 19.3571 16.2717 19.4125 16.53 19.5201C16.7883 19.6278 17.0227 19.7855 17.2197 19.9842C17.4167 20.1829 17.5724 20.4187 17.6778 20.6779C17.782 20.9341 17.835 21.2081 17.8339 21.4846C17.8333 21.4886 17.8315 21.4922 17.8286 21.495C17.8251 21.4983 17.8206 21.5001 17.8159 21.5V21.5H17.81H4.19102V21.4999L4.1852 21.5C4.18047 21.5001 4.17592 21.4983 4.17251 21.495C4.16961 21.4922 4.16772 21.4886 4.16713 21.4846C4.16602 21.2081 4.21904 20.9341 4.32323 20.6779C4.42865 20.4187 4.58435 20.1829 4.78136 19.9842C4.97837 19.7855 5.21279 19.6278 5.47108 19.5201C5.72937 19.4125 6.00642 19.3571 6.28624 19.3571H7.33387C7.88325 19.3571 8.41012 19.1389 8.79859 18.7504C9.18706 18.3619 9.4053 17.8351 9.4053 17.2857V17.1646ZM7.7459 14.1625L7.74493 14.1617C5.3742 12.2887 4.16721 10.0009 4.16721 7.54913V1.57143C4.16721 1.28727 4.28009 1.01474 4.48102 0.813814C4.68195 0.612882 4.95448 0.5 5.23864 0.5H16.7624C17.0466 0.5 17.3191 0.612882 17.52 0.813813C17.721 1.01475 17.8339 1.28727 17.8339 1.57143V7.54913C17.8339 10.0009 16.6269 12.2887 14.2561 14.1617L14.2552 14.1625C13.3296 14.8975 12.1825 15.2975 11.0005 15.2975C9.81861 15.2975 8.67149 14.8975 7.7459 14.1625ZM13.553 5.84331L12.4872 5.52905L13.3962 8.33013L13.3962 8.33012L14.0732 7.44999C14.1747 7.31836 14.2426 7.16401 14.271 7.00027L13.7784 6.91466L14.271 7.00026C14.2995 6.83652 14.2876 6.66832 14.2365 6.51017C14.1854 6.35203 14.0966 6.2087 13.9777 6.09258C13.8588 5.97645 13.7134 5.89101 13.5541 5.84363L13.553 5.84331ZM13.4217 9.45627L13.3913 8.34529L10.5689 4.88609L10.1566 4.60321L10.1564 4.60352L9.52805 5.51935L9.52784 5.51967C9.52476 5.52416 9.52024 5.52746 9.51503 5.52902C9.51503 5.52902 9.51502 5.52903 9.51501 5.52903C9.51498 5.52904 9.51496 5.52904 9.51493 5.52905L8.44908 5.84331L8.44878 5.84339C8.28931 5.89052 8.14372 5.97578 8.0246 6.09181C7.90548 6.20783 7.8164 6.35112 7.76509 6.5093C7.71378 6.66747 7.70176 6.83577 7.73009 6.99963C7.75838 7.16326 7.82604 7.31756 7.92725 7.44921C7.92739 7.44939 7.92753 7.44957 7.92767 7.44975L8.60228 8.32952L8.60274 8.33013C8.60608 8.33446 8.60782 8.33982 8.60767 8.34529L8.57729 9.45627L8.57729 9.45648C8.57281 9.62273 8.6089 9.78756 8.68244 9.93673C8.75597 10.0859 8.86473 10.2149 8.99932 10.3126C9.13391 10.4103 9.29027 10.4737 9.45488 10.4974C9.61949 10.5211 9.78739 10.5043 9.94407 10.4486L10.9913 10.0768L10.9915 10.0767C10.9967 10.0749 11.0023 10.0749 11.0075 10.0767L11.0077 10.0768L12.0549 10.4486C12.2116 10.5043 12.3795 10.5211 12.5441 10.4974C12.7087 10.4737 12.8651 10.4103 12.9996 10.3126C13.1342 10.2149 13.243 10.0859 13.3165 9.93673C13.3901 9.78756 13.4262 9.62272 13.4217 9.45648L13.4217 9.45627Z" stroke="#242424"/>
</svg>
