<svg width="43" height="43" viewBox="0 0 43 43" fill="none" xmlns="http://www.w3.org/2000/svg">
<path d="M40.6201 21.3106C40.1922 47.0863 2.3983 47.0269 2 21.3106C2.4131 -4.40714 40.1759 -4.46661 40.6201 21.3106Z" fill="url(#paint0_linear_422_2249)" stroke="#78C444" stroke-width="3" stroke-linejoin="round"/>
<path opacity="0.1" d="M40.6188 21.1585C40.8202 43.7753 8.51652 48.035 2.77197 26.7318C16.1892 31.2738 32.0841 24.4561 38.4403 12.0414C39.8712 14.8385 40.6202 17.9732 40.6188 21.1585V21.1585Z" fill="#78C444"/>
<g opacity="0.2">
<path opacity="0.6" d="M11.3355 32.2347C7.90212 31.8149 4.84909 27.89 5.69464 24.4025C7.97089 26.4637 10.3247 29.3382 11.3355 32.2347Z" fill="#78C444"/>
<path opacity="0.2" d="M31.1484 6.64474C28.1589 4.77063 24.5928 4.04015 21.1072 4.58792C28.8707 6.48967 35.5341 11.9696 37.0526 20.0228C39.0216 15.3109 35.126 9.18576 31.1484 6.64474Z" fill="#78C444"/>
</g>
<path d="M19.9762 25.0414C19.6737 25.0414 19.4263 25.2861 19.4263 25.5913C19.4263 25.8965 19.671 26.1413 19.9762 26.1413H22.6543C22.9567 26.1413 23.2042 25.8965 23.2042 25.5913C23.2042 25.2861 22.9595 25.0414 22.6543 25.0414H19.9762ZM15.9591 14.0102H26.6686C26.9711 14.0102 27.2185 13.7655 27.2185 13.4603C27.2185 13.1551 26.9738 12.9104 26.6686 12.9104H15.9591C15.8132 12.9104 15.6734 12.9683 15.5702 13.0715C15.4671 13.1746 15.4092 13.3145 15.4092 13.4603C15.4092 13.6062 15.4671 13.746 15.5702 13.8492C15.6734 13.9523 15.8132 14.0102 15.9591 14.0102ZM25.5055 29.6854H24.8401V27.7882C24.8401 27.6424 24.7822 27.5025 24.6791 27.3994C24.576 27.2963 24.4361 27.2383 24.2902 27.2383H22.503V26.6912H20.1247V27.2383H18.3375C18.1916 27.2383 18.0517 27.2963 17.9486 27.3994C17.8455 27.5025 17.7875 27.6424 17.7875 27.7882V29.6854H17.1194C16.9682 29.6854 16.8444 29.8092 16.8444 29.9604C16.8444 30.1116 16.9682 30.2353 17.1194 30.2353H25.5C25.6513 30.2353 25.775 30.1116 25.775 29.9604C25.775 29.8092 25.6568 29.6854 25.5055 29.6854ZM23.6001 29.3445H19.0303C18.8791 29.3445 18.7554 29.2208 18.7554 29.0695C18.7554 28.9183 18.8791 28.7946 19.0303 28.7946H23.5973C23.7486 28.7946 23.8723 28.9183 23.8723 29.0695C23.8723 29.2208 23.7513 29.3445 23.6001 29.3445ZM23.6001 28.4069H19.0303C18.8791 28.4069 18.7554 28.2832 18.7554 28.1319C18.7554 27.9807 18.8791 27.857 19.0303 27.857H23.5973C23.7486 27.857 23.8723 27.9807 23.8723 28.1319C23.8723 28.2832 23.7513 28.4069 23.6001 28.4069ZM17.2871 22.5531C16.965 22.1348 16.6667 21.6988 16.3935 21.247C15.3432 21.1618 14.4358 20.3864 14.2351 19.3031C14.0729 18.415 14.4276 17.5489 15.0847 17.0182C15.0682 16.4986 15.104 15.9569 15.1947 15.3932C13.5697 16.0421 12.5634 17.7634 12.8933 19.5506C13.2673 21.5852 15.2277 22.9353 17.2624 22.5613C17.2706 22.5558 17.2789 22.5531 17.2871 22.5531ZM27.4357 15.3905C27.5265 15.9542 27.5622 16.4931 27.5457 17.0155C28.2029 17.5489 28.5575 18.4123 28.3953 19.3004C28.1946 20.3864 27.2873 21.1618 26.2369 21.2443C25.9675 21.6925 25.6678 22.1297 25.3433 22.5503C25.3516 22.5531 25.3598 22.5558 25.3681 22.5558C27.4027 22.9298 29.3632 21.5797 29.7371 19.5451C30.0671 17.7606 29.0607 16.0394 27.4357 15.3905ZM21.318 15.264C21.3537 15.2613 21.4637 15.22 21.5352 15.1925C21.7002 15.1293 21.9036 15.0523 22.1318 15.0523H22.1373V14.5629H20.4931V15.0551H20.4986C20.7268 15.0551 20.9303 15.132 21.0953 15.1953C21.1667 15.22 21.2767 15.2613 21.318 15.264Z" fill="#78C444"/>
<path d="M26.6931 14.5574C26.6849 14.5574 26.6794 14.5601 26.6711 14.5601H22.687V15.2365C22.874 15.3712 22.995 15.5582 23.0884 15.7039C23.1269 15.7672 23.1874 15.8579 23.2149 15.8827C23.2397 15.8964 23.3497 15.9267 23.4211 15.9459C23.6604 16.0091 23.9875 16.0971 24.202 16.3913C24.4137 16.6855 24.3972 17.021 24.3862 17.2684C24.3807 17.3427 24.3752 17.4582 24.3835 17.4939C24.3972 17.5186 24.4632 17.6011 24.5072 17.6561C24.6667 17.8513 24.8839 18.118 24.8839 18.4892C24.8839 18.8632 24.6667 19.1271 24.5072 19.3223C24.4632 19.3773 24.3972 19.4598 24.3807 19.4928C24.3752 19.5203 24.3807 19.6358 24.3862 19.71C24.3972 19.9575 24.4137 20.2957 24.202 20.5871C23.9875 20.8813 23.6604 20.9693 23.4211 21.0353C23.3497 21.0518 23.2397 21.0821 23.2094 21.1013C23.1874 21.1206 23.1269 21.214 23.0884 21.2745C22.9537 21.4835 22.7667 21.7695 22.4176 21.8849C22.3268 21.9124 22.2306 21.9289 22.1316 21.9289C21.9034 21.9289 21.6999 21.8492 21.5349 21.7887C21.4635 21.7585 21.3535 21.7172 21.3122 21.7172C21.2765 21.7172 21.1665 21.7585 21.095 21.7887C20.93 21.8492 20.7266 21.9289 20.4984 21.9289C20.3994 21.9289 20.3031 21.9124 20.2124 21.8849C19.8632 21.7695 19.6762 21.4835 19.5415 21.2745C19.503 21.214 19.4425 21.1206 19.415 21.0958C19.3903 21.0821 19.2803 21.0518 19.2088 21.0353C18.9696 20.9693 18.6424 20.8813 18.428 20.5871C18.2162 20.2957 18.2327 19.9575 18.2437 19.71C18.2492 19.6358 18.2547 19.5231 18.2437 19.4846C18.2327 19.4598 18.1667 19.3773 18.1227 19.3223C17.9633 19.1271 17.7461 18.8632 17.7461 18.4892C17.7461 18.118 17.9633 17.8513 18.1227 17.6561C18.1667 17.6011 18.2327 17.5186 18.2492 17.4856C18.2547 17.4582 18.2492 17.3427 18.2437 17.2684C18.2327 17.021 18.2162 16.6855 18.428 16.3913C18.6424 16.0971 18.9696 16.0091 19.2088 15.9459C19.2803 15.9267 19.3903 15.8964 19.4205 15.8772C19.4425 15.8579 19.503 15.7672 19.5415 15.7039C19.635 15.5582 19.756 15.3712 19.943 15.2365V14.5601H15.9589C15.9506 14.5601 15.9451 14.5574 15.9369 14.5574C14.7985 18.8357 17.1219 21.8519 19.778 24.5108C19.8412 24.4998 19.9072 24.4915 19.9759 24.4915H22.654C22.7228 24.4915 22.7887 24.4998 22.852 24.5108C25.5081 21.8519 27.8314 18.8357 26.6931 14.5574Z" fill="#78C444"/>
<path d="M20.3835 15.6187C20.0976 15.7122 19.9821 16.1494 19.7429 16.3254C19.5009 16.5013 19.05 16.4738 18.874 16.7158C18.7008 16.955 18.863 17.3757 18.7696 17.6617C18.6788 17.9394 18.2966 18.1813 18.2966 18.4893C18.2966 18.7972 18.6788 19.0392 18.7696 19.3169C18.863 19.6028 18.7008 20.0235 18.874 20.2627C19.05 20.5047 19.5009 20.4772 19.7429 20.6532C19.9821 20.8264 20.0948 21.2663 20.3835 21.3598C20.6612 21.4505 21.0104 21.1646 21.3156 21.1646C21.6236 21.1646 21.97 21.4505 22.2477 21.3598C22.5337 21.2663 22.6492 20.8291 22.8884 20.6532C23.1303 20.4772 23.5813 20.5047 23.7572 20.2627C23.9305 20.0235 23.7682 19.6028 23.8617 19.3169C23.9525 19.0392 24.3347 18.7972 24.3347 18.4893C24.3347 18.1813 23.9525 17.9394 23.8617 17.6617C23.7682 17.3757 23.9305 16.955 23.7572 16.7158C23.5813 16.4738 23.1303 16.5013 22.8884 16.3254C22.6492 16.1522 22.5364 15.7122 22.2477 15.6187C21.97 15.528 21.6208 15.814 21.3156 15.814C21.0077 15.814 20.6612 15.5308 20.3835 15.6187ZM21.1204 16.8808C21.1383 16.8442 21.166 16.8134 21.2005 16.7918C21.2351 16.7702 21.2749 16.7588 21.3156 16.7588C21.3563 16.7588 21.3962 16.7702 21.4307 16.7918C21.4653 16.8134 21.493 16.8442 21.5109 16.8808L21.9673 17.8019L22.9846 17.9504C23.1633 17.9751 23.2348 18.1951 23.1056 18.3215L22.3687 19.0392L22.5419 20.0538C22.5722 20.2297 22.3852 20.3672 22.2285 20.282L21.3156 19.8036L20.4055 20.282C20.2461 20.3645 20.0591 20.2297 20.0921 20.0538L20.2653 19.0392L19.5284 18.3215C19.4994 18.2932 19.4789 18.2572 19.4692 18.2178C19.4595 18.1783 19.4611 18.137 19.4736 18.0984C19.4862 18.0598 19.5094 18.0255 19.5404 17.9993C19.5715 17.9731 19.6092 17.9562 19.6494 17.9504L20.6667 17.8019L21.1204 16.8808Z" fill="#78C444"/>
<defs>
<linearGradient id="paint0_linear_422_2249" x1="21.3101" y1="2" x2="21.3101" y2="40.6201" gradientUnits="userSpaceOnUse">
<stop stop-color="#0D1443"/>
<stop offset="1" stop-color="#273179"/>
</linearGradient>
</defs>
</svg>
